<svg width="26" height="31" fill="none" xmlns="http://www.w3.org/2000/svg"><path fill-rule="evenodd" clip-rule="evenodd" d="M19.006.078c-1.55.065-3.427 1.032-4.538 2.331-1 1.154-1.871 2.996-1.636 4.762 1.73.136 3.492-.878 4.57-2.178 1.075-1.302 1.802-3.11 1.604-4.915zm-.439 30.735c2.1-.04 3.43-1.904 4.716-3.78a16.947 16.947 0 0 0 2.122-4.342l.012-.036-.008-.003c-.2-.082-4.089-1.66-4.127-6.22-.039-3.897 3.183-5.768 3.326-5.862-1.81-2.643-4.63-3.006-5.634-3.047-1.467-.148-2.89.412-4.053.87-.74.29-1.373.54-1.847.54-.526 0-1.178-.259-1.908-.548-.957-.38-2.05-.813-3.179-.792-2.613.04-5.025 1.519-6.37 3.858-2.72 4.71-.698 11.688 1.95 15.507 1.296 1.868 2.837 3.97 4.865 3.894 1.95-.078 2.69-1.26 5.05-1.26 1.205 0 1.966.329 2.7.646.7.303 1.376.594 2.385.575z" fill="#fff"/></svg>