<svg width="72" height="85" fill="none" xmlns="http://www.w3.org/2000/svg"><path d="M36.069.127c-8.476 0-24.104 2.2-32.063 6.845-10.479 37.282 3.772 62.634 32.063 77.024C64.359 69.606 78.61 44.128 68.13 6.973 60.164 2.328 44.544.127 36.07.127z" fill="#9C824A" stroke="#9C824A" stroke-width=".175" stroke-miterlimit="282"/><path d="M36.068 2.525c-8.327 0-17.703 1.068-29.982 6.098-9.14 32.543 1.464 58.626 29.982 72.842C64.585 67.25 75.18 41.165 66.04 8.623c-12.28-5.03-21.647-6.098-29.973-6.098z" fill="#023474" stroke="#023474" stroke-width=".175" stroke-miterlimit="282"/><path d="M36.03 2.493c-8.288 0-17.186 1.234-25.215 4.283-8.327 33.32-2.184 57.651 25.262 74.665L36.03 2.493zm.047 78.948C63.522 64.427 69.657 40.097 61.33 6.776c-8.03-3.05-16.92-4.283-25.207-4.283l-.047 78.948z" fill="#fff" stroke="#fff" stroke-width=".175" stroke-miterlimit="282"/><path d="M36.076 2.485c-8.335 0-16.771 1.265-23.627 3.662-8.624 34.924-1.698 58.508 23.635 74.626l-.008-78.288z" fill="#EF0107" stroke="#EF0107" stroke-width=".175" stroke-miterlimit="282"/><path d="M36.092 2.485c8.334 0 16.77 1.265 23.634 3.662 8.624 34.924 1.698 58.508-23.642 74.626l.008-78.288z" fill="#DB0007" stroke="#DB0007" stroke-width=".175" stroke-miterlimit="282"/><path d="M25.308 55.185c-3.678 2.531-6.605 3.443-10.002 4.346l-2.05-3.198c3.122-1.587 6.354-3.796 9.61-6.994.274 3.104 1.714 5.304 2.442 5.846z" fill="#fff"/><path d="M24.807 55.052c-3.49 2.404-8.35 4.078-13.914 4.896l-1.135-1.729c4.766-1.792 9.367-4.464 12.936-8.22.54 2.404 1.362 4 2.113 5.053z" fill="#9C824A"/><path d="M15.51 40.364a2.42 2.42 0 0 1-2.419 2.429 2.427 2.427 0 0 1-2.426-2.429 2.426 2.426 0 0 1 2.426-2.428 2.42 2.42 0 0 1 2.418 2.428z" fill="#fff"/><path d="M15.251 35.578v9.163h7.192c.47-3.073 2.207-6.334 6.143-9.163H15.251z" fill="#fff"/><path d="M15.54 44.741c-1.604.024-2.926-1.996-2.95-4.526-.016-2.531 1.268-4.606 2.88-4.637h.055" fill="#fff"/><path d="M14.492 40.364c0 1.037-.751 1.87-1.675 1.87-.923 0-1.674-.832-1.674-1.87 0-1.037.75-1.87 1.674-1.87.924 0 1.675.833 1.675 1.87zm.955-4.306v8.235h7.137c.564-2.734 1.95-5.642 5.408-8.235H15.447z" fill="#9C824A"/><path d="M15.712 44.293c-1.51.032-2.747-1.791-2.77-4.063-.016-2.27 1.197-4.141 2.707-4.172h.047" fill="#9C824A"/><path d="M49.725 46.886c0 7.647-6.167 13.84-13.782 13.84-7.606 0-13.78-6.193-13.78-13.84 0-7.646 6.174-13.839 13.78-13.839 7.615 0 13.782 6.193 13.782 13.84z" fill="#fff"/><path d="M49.006 46.887c0 7.246-5.846 13.116-13.062 13.116-7.207 0-13.053-5.87-13.053-13.116 0-7.238 5.846-13.116 13.053-13.116 7.216 0 13.062 5.87 13.062 13.116z" fill="#9C824A"/><path d="M46.837 46.887c0 6.043-4.876 10.94-10.894 10.94-6.01 0-10.885-4.897-10.885-10.94 0-6.044 4.875-10.94 10.885-10.94 6.018 0 10.894 4.896 10.894 10.94z" fill="#fff"/><path d="M46.117 46.887c0 5.642-4.555 10.208-10.174 10.208-5.611 0-10.166-4.566-10.166-10.208s4.555-10.208 10.166-10.208c5.62 0 10.174 4.566 10.174 10.208z" fill="#9C824A"/><path d="M40.184 46.887a4.254 4.254 0 0 1-4.234 4.267 4.256 4.256 0 0 1-4.25-4.26v-.007c0-2.35 1.894-4.26 4.242-4.26 2.34-.007 4.241 1.902 4.241 4.252v.008z" fill="#fff"/><path d="M39.684 46.887c0 2.075-1.667 3.756-3.733 3.756a3.754 3.754 0 0 1-3.749-3.748v-.008a3.749 3.749 0 0 1 3.74-3.757 3.742 3.742 0 0 1 3.742 3.749v.008z" fill="#9C824A"/><path d="M37.869 46.887c0 1.06-.861 1.925-1.925 1.932a1.926 1.926 0 0 1-1.918-1.932 1.93 1.93 0 0 1 1.918-1.933c1.064 0 1.925.864 1.925 1.933z" fill="#fff"/><path d="M37.336 46.887a1.394 1.394 0 1 1-2.786 0c0-.77.626-1.399 1.393-1.399s1.393.62 1.393 1.399z" fill="#9C824A"/><path d="M37.375 36.443H34.48v6.782h2.895v-6.782z" fill="#fff"/><path d="M36.928 35.468h-1.995v8.621h1.995v-8.621z" fill="#9C824A"/><path d="M44.011 40.27l1.581 2.436-5.666 3.694-1.573-2.437 5.658-3.694z" fill="#fff"/><path d="M45.068 40.12l1.088 1.682-7.2 4.7-1.088-1.69 7.2-4.692z" fill="#9C824A"/><path d="M31.88 47.437l1.55 2.452-5.705 3.63-1.55-2.46 5.706-3.622z" fill="#fff"/><path d="M32.851 47.295l1.072 1.698-7.246 4.613-1.072-1.698 7.246-4.613z" fill="#9C824A"/><path d="M37.375 50.777H34.48v6.781h2.895v-6.781z" fill="#fff"/><path d="M36.928 49.81h-1.995v8.613h1.995V49.81z" fill="#9C824A"/><path d="M33.118 50.054c.391.33.822.628 1.362.856l-.016 6.051c-2.731-.353-4.797-1.705-6.362-3.63l5.024-3.277" fill="#EF0107"/><path d="M33.118 50.054c.391.33.822.628 1.362.856l-.016 6.051c-2.731-.353-4.797-1.705-6.362-3.63l5.024-3.277" stroke="#EF0107" stroke-width=".069" stroke-miterlimit="282"/><path d="M38.76 50.077c-.399.323-.822.63-1.362.849l.008 6.051c2.731-.353 4.798-1.705 6.363-3.63l-5.017-3.27" fill="#DB0007"/><path d="M38.76 50.077c-.399.323-.822.63-1.362.849l.008 6.051c2.731-.353 4.798-1.705 6.363-3.63l-5.017-3.27" stroke="#DB0007" stroke-width=".069" stroke-miterlimit="282"/><path d="M40.13 47.54l5.98-.724c.046 1.5-.314 2.821-.823 4.086l-5.173-3.363" fill="#DB0007"/><path d="M40.138 47.515c.023-.094.015-.18.055-.455l5.9-.77c.024.275.008.377 0 .502l-5.955.723z" fill="#fff" stroke="#fff" stroke-width=".069" stroke-miterlimit="282"/><path d="M48.87 42.525h7.74c-.243.92-.478 1.855-1.589 2.272-1.776.668-5.462 1.312-5.462 1.312a15.802 15.802 0 0 0-.689-3.584z" fill="#fff"/><path d="M43.48 35.445l20.222.023-.713 7.418-13.812.724c-.744-3.317-3.256-6.484-5.697-8.165z" fill="#fff"/><path d="M44.2 35.971l25.817.024-.986 6.043-20.035.99c-.79-3.002-2.598-5.194-4.797-7.057z" fill="#9C824A"/><path d="M48.87 42.525H56c-.235.817-.4 1.564-1.448 1.933-1.667.598-5.024 1.07-5.024 1.07a19.754 19.754 0 0 0-.658-3.003zM41.044 24.67c0 .33-.07 1.234-.11 1.486h4.008c-.243-1.07-.353-2.554-.384-3.702 0 .079-.07-2.303-.07-2.303 0-.165.07-.416.172-.494.14-.166.282-.166.454-.166.172-.078.485-.078.524.574l.102 2.468c.039 1.155.039 2.719-.102 3.623h3.858c-.031-.33-.14-1.156-.172-1.4.485 1.07 1.534 1.643 2.927 1.643.83 0 1.463-.322 1.948-.652 0 .078.204.409.204.409h7.169c-.314-1.07-.517-2.554-.627-3.702l-1.01-8.063-3.685-.66c.313 1.069.524 2.633.657 3.702l.564 5.186c.101.904.172 1.894.172 2.963v.078l-.141-.33c-.282-.66-.415-1.477-.525-2.71l-.133-1.651c-.21-2.633-1.635-3.78-4.773-3.78-.517 0-1.84.078-2.645.33l.21 2.955.838-.488c.697-.416 1.213-.581 1.84-.581.492 0 .805.165.946.495a7.6 7.6 0 0 0-1.987.574c-1.112.494-1.808 1.24-2.121 2.058v-.078l-.11-2.72c-.062-1.728-1.181-2.876-2.888-2.876-.759 0-1.456.244-2.081.66-.04-.086-.07-.165-.11-.251l-.14-.33-3.202-.165c.141.581.353 2.224.384 2.798a4.122 4.122 0 0 0-1.464-2.382c-.657-.416-1.494-.66-2.363-.66-1.182 0-2.403.495-3.201 1.32-.837.818-1.252 1.973-1.291 3.285-.313-.33-.728-.652-1.213-.817l-1.464-.746h-.07c-.344-.166-.384-.244-.384-.323.04-.165.384-.33.838-.33.626 0 1.495.33 2.191.739l.07-2.633c-.524-.251-1.252-.409-2.3-.409-.556 0-1.597.079-2.505.574-.243.165-.454.33-.657.495l.031-.747c-.837-.157-1.737-.157-2.849.912-.039-.086-.11-.495-.18-.66l-3.443.165c.243.983.282 2.381.211 3.615l-.07 1.32v.166c-.04.66-.07 1.398-.14 2.058-.283-.911-.588-2.145-.838-3.127l-1.706-7.733-4.868.739c.031.078.102.33.141.573.031.33.031.99-.422 2.39-.799 2.216-1.91 5.595-2.99 7.976-.14.33-.423.825-.423.825h3.796c.07-.574.313-1.564.556-2.303.524 0 1.878 0 2.504-.086.14.581.282 1.32.32 1.815l.063.574h7.591c-.172-1.234-.101-2.877-.038-3.788.07-1.07.281-1.808.735-2.217.344-.416.728-.495 1.01-.495-.04 1.478.9 2.138 1.737 2.546l1.495.747c.524.33.524.409.524.574-.031.243-.454.33-.837.33-.799 0-1.879-.495-3.06-1.808l-.07 3.45c.938.495 2.12.739 3.169.739 1.737 0 3.584-.817 4.07-2.381.868 1.642 2.574 2.381 4.249 2.381 1.494.001 2.605-.486 3.584-1.563zM14.906 21.3c.21-.574.383-1.069.696-1.973.211.904.313 1.478.415 1.894-.415.079-.626.079-1.111.079zm21.302-.904c0-1.147.414-1.642.83-1.642.14 0 .453-.087.594.495.07.243.101.409.101.487 0 .33-.172.416-.383.416v.08s-.587.164-1.142.415v-.25zm3.967 2.39c-.736.651-1.26 1.068-2.128 1.068-.697-.087-1.112-.495-1.354-1.069a156.13 156.13 0 0 0 4.35-1.65c0 .66.032 1.399.032 1.399v1.399l-.9-1.148zm12.975 1.147c-.657 0-.798-.495-.83-.818.032-.33.134-.825 1.182-1.155.032.409.07.739.07.739v.33c.032.251.032.495.063.739-.132.086-.304.086-.485.165z" fill="#9C824A"/><path d="M32.06 17.432c-.344-.078-.868-.243-1.706-.243-.657 0-1.526.165-2.191.495-.767.495-1.323 1.147-1.354 1.894-.07 1.147.524 1.642 1.393 2.051.587.33 1.15.66 1.495.825.454.244.868.495.837 1.07-.039.573-.563.99-1.432.99-.728 0-1.769-.496-2.504-1.156l-.032 1.729c.626.33 1.636.495 2.575.495 1.597 0 3.584-.739 3.616-2.554.039-1.399-.94-1.894-1.526-2.216-.595-.252-1.19-.582-1.464-.66-.282-.166-.837-.33-.798-.99.063-.574.728-.826 1.424-.826.587 0 1.182.165 1.636.417M17.763 14.39l-3.694.496c.071.495-.07 1.477-.453 2.633-.76 2.216-2.012 5.917-2.99 8.062h2.301c.133-.746.305-1.398.657-2.302l3.413-.087c.133.66.383 1.73.414 2.39h3.1c-.384-.912-.87-2.798-1.182-4.119l-1.566-7.072zm-3.694 7.482l1.675-4.849 1.01 4.77m9.844-4.361l-.07 1.65c-.556-.086-1.252.08-1.808.653-.485.495-.798 1.234-.868 2.554-.071 1.069-.102 2.303-.04 3.293h-2.606c.172-.99.243-2.138.274-3.214l.07-1.313c.07-1.068.07-2.137-.101-3.127l2.3-.079c.102.33.173.904.134 1.478 1.01-1.565 1.987-1.895 2.715-1.895zm32.823-2.546l-2.371-.416c.243 1.076.313 1.815.454 2.883l.556 5.18c.11 1.068.211 2.059.18 3.049h2.574c-.25-.99-.352-1.98-.454-3.05m-11.56 3.05c-.132-.99-.203-1.98-.242-3.05l-.102-2.71c-.07-1.486-.907-2.303-2.3-2.303-.76 0-1.668.244-2.434 1.234-.032-.252-.141-.904-.282-1.234l-2.082-.087c.172.99.243 1.973.274 3.042l.04 2.059c.03 1.068 0 2.059-.071 3.049h2.606c-.133-.99-.204-1.98-.243-3.05l-.07-2.302c-.032-.825.595-1.399 1.22-1.399.729 0 1.08.495 1.112 1.234l.11 2.468a30.095 30.095 0 0 1-.04 3.049m10.652-.001c-.313-.825-.485-1.815-.555-2.884l-.141-1.642c-.141-1.973-.97-3.293-4.18-3.293-.555 0-1.353.087-2.01.244l.101 1.485c.657-.409 1.323-.739 2.16-.739.869 0 1.597.409 1.667 1.643-.837.086-1.604.243-2.473.66-.97.408-1.98 1.234-1.878 2.546.102 1.485 1.22 2.145 2.614 2.145 1.08 0 1.808-.495 2.222-.99.07.33.18.574.282.825h2.191zm-3.795-1.068c-.767 0-1.393-.417-1.425-1.32 0-.904.556-1.643 2.333-1.895l.102 1.4c.039.494.039.825.109 1.233-.25.33-.665.495-1.12.582zm-13.955-6.83c-.594-.416-1.29-.581-2.019-.581-1.706 0-3.968 1.234-3.897 4.361.031 3.207 2.473 4.197 4.179 4.197 1.495 0 2.403-.574 3.13-1.313l-.524-.746c-.383.33-1.01.825-2.02.825-1.08-.079-1.768-.825-2.151-1.973l4.727-1.729c-.141-1.563-.697-2.467-1.425-3.04zm-1.635 3.042l-1.879.738c-.039-.33-.07-.66-.07-1.068 0-1.894 1.04-2.224 1.393-2.224.556-.079 1.04.251 1.22.911.204.739.134 1.4-.664 1.643zM26.425 42.148l1.588-2.429 5.65 3.71-1.588 2.436-5.65-3.717z" fill="#fff"/><path d="M25.903 41.315L27 39.633l7.176 4.723-1.095 1.682-7.177-4.723z" fill="#9C824A"/><path d="M38.486 49.88l1.589-2.436 5.65 3.717-1.589 2.437-5.65-3.717z" fill="#fff"/><path d="M37.962 49.048l1.096-1.682 7.176 4.723-1.096 1.674-7.176-4.715z" fill="#9C824A"/></svg>