<svg viewBox="0 0 49 50" fill="none" xmlns="http://www.w3.org/2000/svg"><path d="M22 49c2.613 0 4.75-2.123 4.75-4.718h-9.5C17.25 46.877 19.364 49 22 49zm14.25-14.154V23.051c0-7.242-3.895-13.304-10.688-14.908V6.538C25.563 4.581 23.973 3 22 3c-1.971 0-3.563 1.58-3.563 3.538v1.605C11.622 9.747 7.75 15.786 7.75 23.05v11.795L3 39.564v2.36h38v-2.36l-4.75-4.718z" fill="#333"/><path d="M47.406 11.585c0 5.93-4.794 10.736-10.703 10.736-5.91 0-10.704-4.805-10.704-10.737 0-5.93 4.794-10.736 10.704-10.736 5.91 0 10.703 4.805 10.703 10.736z" fill="#00ADEE" stroke="#00ADEE" stroke-width="1.255"/><path d="M40.464 6.922v1.024l-4.262 9.52h-1.597l4.172-9.233h-4.82v1.882h-1.446V6.922h7.953z" fill="#fff"/></svg>