<svg version="1.1" id="Слой_1" xmlns="http://www.w3.org/2000/svg" x="0" y="0" viewBox="0 0 631 631" xml:space="preserve"><style>.st0{fill:#00adee}</style><g id="Слой_1-2"><path class="st0" d="M315.5 78.5h-2.8c-1.7 0-3.4 0-5 .1h-.1v1c2.6-.1 5.3-.1 8-.1v-1h-.1zm-16 .5c-1.3.1-2.6.2-3.8.3h-3.3l-.8.1.1 1c2.6-.3 5.3-.5 7.9-.7l-.1-1v.3zm-15.9 1.6h-5.3l-2.4.4.2 1c2.6-.4 5.3-.8 7.9-1.2l-.1-1-.3.8zm-15.8 2.7c-2.6.5-5.2 1.1-7.8 1.7l.2 1c2.6-.6 5.2-1.2 7.8-1.7l-.2-1zM252.3 87l-1.7.5-.2.1h-.1l-.2.1h-1.6l-.2.1h-.6l-.2.1h-.1l-.2.1-1.7.5h-.1l.3.9c2.5-.8 5.1-1.5 7.6-2.3l-.3-1-.7.9zM237 91.8c-1.2.4-2.4.8-3.5 1.3l-.2.1h-1.5.2-.6l-.4.8h-.3l-.2.1-.9.4.4.9c2.5-1 5-1.9 7.5-2.8l-.3-.9-.2.1zm-14.9 5.8c-2.5 1-4.9 2.1-7.3 3.3l.4.9c2.4-1.1 4.8-2.2 7.3-3.3l-.4-.9zm-14.5 6.8c-2.4 1.2-4.7 2.5-7.1 3.8l.5.9c2.3-1.3 4.7-2.5 7-3.8l-.4-.9zm-14 7.8l-1.6.9-.1.1h-.1l-.2.1h-.8l-.2.1h-.1l-.1.1h-.1l-.2.1h-.1l-.1.1h-.1l-.2.1-.3.2-.2.1-.5.3-.3.2-.2.1-.3.2-.2.1h-.1l-.1.1h-.3l.6.8c2.2-1.4 4.5-2.9 6.8-4.2l-.5-.9-.4 1.4zm-13.4 8.7c-1.3.9-2.7 1.9-4 2.8l-.2.1-.1.1-.1.1h-.1l-.1.1h-.2l-.1.1h-.2l-.1.1h-.1l-.2.1-1.1.8.6.8c2.1-1.6 4.3-3.2 6.4-4.7l-.6-.8.2.4zm-12.8 9.6l-.1.1h-.1l-.2.1c-1.4 1.2-2.9 2.3-4.3 3.5h-.1l-.1.1-.1.1-.1.1-1 .8.7.8c2-1.7 4.1-3.4 6.1-5.1l-.6-.8-.1.3zm-12.2 10.4c-2 1.8-3.9 3.6-5.8 5.5l.7.7c1.9-1.9 3.8-3.7 5.8-5.5l-.7-.7zm-11.4 11.2c-1.1 1.1-2.1 2.2-3.1 3.3l-.2.2v.1l-.1.1v.1l-.1.1-.1.1-.1.1-.1.1-.1.1-.1.1-.2.2-1.4 1.6.8.7c1.8-2 3.6-3.9 5.4-5.9l-.6-1zM133.2 164c-1.7 2.1-3.4 4.1-5 6.2l.8.6c1.6-2.1 3.3-4.2 5-6.2l-.8-.6zm-9.8 12.6l-.1.2-.1.1-.1.1-.1.1-.1.1-.1.1-.1.1-.1.1v.1l-.1.1v.2l-.1.1v.4l-.1.1v.1l-.1.1v.1l-.1.2v.1l-.1.1v.1l-.1.2v.1l-.1.1v.1l-.1.1v.2l-.1.1v.2l-.1.1v.1l-.1.1v.2l-.1.1-.1.1-.1.2-1.2 1.8.8.6c1.5-2.2 3-4.4 4.6-6.5l-.8-.6h-1.1zm-9 13.4c-.6 1-1.3 2.1-1.9 3.1l-.1.2-.1.1-.1.1-.1.1-.1.2v1l-.1.1v.1l-.1.1v.1l-.1.2v.1l-.1.2-.1.2-.3.6.9.5c1.3-2.3 2.7-4.6 4.1-6.8l-.8-.5-1 .3zm-8 13.8l-.1.2c-.5.9-1 1.9-1.5 2.8-.1.1-.1.2-.2.3l-.3.6c0 .1-.1.2-.2.3l-1.5 3 .9.4c1.2-2.4 2.4-4.8 3.6-7.1l-.7-.5zm-7 14.4l-.3.7-.1.2v.1l-.1.1v1.3l-.1.2v.6l-.1.2v.3l-.1.2v1.8l-.1.2c-.1.3-.3.7-.4 1l.9.4c1-2.4 2.1-4.9 3.2-7.3l-.9-.4-1.9.4zM93.3 233l-.6 1.6-.1.2v.6l-.1.2v.6l-.1.2v.1l-.1.2c-.4 1.1-.8 2.3-1.2 3.4l.9.3c.8-2.5 1.7-5 2.7-7.5l-.9-.4-.5.5zm-5.1 15.2l-.1.3v.1l-.1.2v1l-.1.2v.1c-.5 1.9-1.1 3.8-1.6 5.7l1 .3c.7-2.6 1.4-5.1 2.1-7.7l-1-.3-.2.1zm-4 15.4c-.6 2.6-1.1 5.2-1.6 7.8l1 .2c.5-2.6 1-5.2 1.6-7.8l-1-.2zm-3 15.8c-.4 2.6-.8 5.3-1.1 7.9l1 .1c.3-2.6.7-5.3 1.1-7.9l-1-.1zm-1.8 15.8l-.3 4.5v.7c-.1.9-.1 1.8-.2 2.8h1c.1-2.6.3-5.3.5-8h-1zm-.9 16v8h1v-8h-1zm1.3 16h-1c.1 1.4.2 2.7.2 4.1v2c0 .6.1 1.3.1 1.9l1-.1c-.2-2.6-.4-5.3-.5-8l.2.1zm1.3 15.8l-1 .1c.1.9.2 1.7.3 2.6v.7c.2 1.5.4 3.1.7 4.6l1-.1c-.4-2.7-.8-5.3-1-7.9zm2.4 15.8l-1 .2.3 1.5v.6c.2 1.2.5 2.4.7 3.6v.6c.1.5.2 1 .3 1.6l1-.2c-.6-2.6-1.1-5.2-1.6-7.8l.3-.1zm3.4 15.5l-1 .3c.1.4.2.8.3 1.1l.1.3v.1l.1.2v1.3l.1.2v.6l.1.2v.1l.1.2.9 3 1-.3c-.8-2.5-1.5-5.1-2.1-7.7l.4.4zm4.5 15.3l-1 .3c.2.5.3 1.1.5 1.6l.1.3v.1l.1.2v.8l.1.2v.1l.1.2c.4 1.3.9 2.5 1.3 3.8l.9-.3c-.9-2.5-1.8-5-2.6-7.5l.5.2zm5.5 14.9l-.9.4c1 2.5 2.1 4.9 3.2 7.4l.9-.4c-1.2-2.5-2.2-4.9-3.2-7.4zm6.5 14.6l-.9.4.4.8.1.1v.1l.1.1.1.2v.1l.1.1v.4l.1.1v.6l.1.2v.1l.1.2c.7 1.3 1.3 2.5 2 3.8l.9-.5c-1.2-2.3-2.5-4.7-3.6-7.1l.5.3zm7.5 14l-.9.5.1.1.1.1.1.1v.2c.6 1.1 1.3 2.2 1.9 3.2l.1.2v.1l.1.2v.1l.1.1v.4l.1.1v.4l.1.1v.1l.1.1.1.1v.5l2.4.4c-1.7-2.4-3.1-4.7-4.4-7.1zm8.4 13.6l-.8.6.1.1.1.1.1.1.1.1.1.1v.1l.1.1v.1l.1.1v.2l.1.1v.5l.1.1v.5l.1.1.1.1v.1l.1.1v.1l.1.1v.1l.1.1v.1l.1.1v.1l.1.1v.1l.1.1v.1l.1.2v.1l.1.1v.1l.1.2v.1l.2.2.2.2.3.5.8-.6c-1.6-2.1-3.1-4.3-4.6-6.5l1.9 1zm9.3 12.9l-.8.6.1.1.1.2.1.1.1.1.1.1v.1l.1.1.1.1.1.1.1.2.1.1.1.1.1.1.1.2.2.3 1.9 2.4c.1.1.2.2.2.3l.2.2.1.1.1.1v.1l.1.2.1.1.1.1.1.1.8-.6c-1.7-2-3.4-4.1-5-6.2l.6.5zm10.1 12.3l-.8.7.1.1.1.1.1.1.1.1.2.2c1 1.1 2.1 2.3 3.1 3.4l.3.3.2.2.2.2.1.1.1.1.1.1.2.2.1.1.1.1.1.1.1.2.1.1.1.1.1.1.1.1.7-.7c-1.8-1.9-3.6-3.9-5.4-5.9l-.2-.2zm11 11.5l-.7.7.1.1.1.1.1.1.1.1h.1l.1.1h.1l.1.1.1.1.1.1.1.1.1.1.2.2.2.2.1.1 2.4 2.3.2.2.2.2.1.1.2.1.1.1.1.1.1.1h.1l.3.3.7-.7c-2-1.8-3.9-3.6-5.8-5.5l.3.5zm11.7 10.9l-.6.8 1 .9.2.2.1.1.1.1.1.1.1.1.1.1.1.1.1.1h.1l.1.1.1.1h.1l.1.1h.1l.1.1.1.1.1.1.1.1.1.1.1.1.1.1.2.1.1.1.2.2 2.5 2.1.6-.8c-2.1-1.7-4.1-3.4-6.1-5.1l-.1-.2zm12.4 10l-.6.8c2.1 1.6 4.3 3.2 6.5 4.7l.6-.8c-2.2-1.6-4.4-3.2-6.5-4.7zm13 9.1l-.6.8.2.1h.1l.1.1.1.1.2.1h.1l.1.1h.1l.2.1.1.1.1.1h.1l.1.1.1.1h.1l.1.1h.1l.1.1.1.1h.1l.1.1h.8l.1.1h.1l.1.1h.1l.2.1c.1.1.2.1.3.2.8.5 1.5.9 2.3 1.4l.5-.8c-2.3-1.4-4.5-2.8-6.8-4.2l.5.9zm13.6 8.2l-.5.9 1.1.6.2.1h.4l.1.1h.1l5.1 2.7.5-.9c-2.4-1.2-4.7-2.5-7-3.8v.3zm14.2 7.3l-.4.9c1.2.6 2.4 1.1 3.6 1.7l.2.1h.9l.2.1 2.2 1 .4-.9c-2.4-1-4.9-2.2-7.3-3.3l.2.4zm14.6 6.4l-.4.9 1.6.6.2.1h.7l.2.1h.1c1.6.6 3.1 1.2 4.7 1.7l.3-1c-2.5-.9-5-1.8-7.5-2.8l.1.4zm15 5.3l-.3 1 1.1.3.3.1h.1l.2.1h2.4l.2.1h.1l.2.1h.4l.2.1h.1l.2.1h.1l.3.1.3.1h.1l.3.1h2.3l.3-1c-2.5-.7-5.1-1.5-7.6-2.3l-1.3 1.1zm15.4 4.3l-.2 1c2 .5 4 .9 6 1.4h.5l1.4.3.2-1c-2.8-.6-5.4-1.2-7.9-1.7zm15.6 3.2l-.2 1h2.4l3.8.6h1.1l1 .1.1-1c-2.6-.4-5.3-.8-7.9-1.2l-.3.5zm15.8 2.1l-.1 1 1.2.1h.6c2.1.2 4.1.4 6.2.5l.1-1c-2.7-.1-5.4-.3-8-.6zm15.9 1.1v1c1.7.1 3.4.1 5.1.1h3v-1c-2.8.1-5.4 0-8.1-.1zm23.9-.3c-2.6.2-5.3.3-8 .4v1l3-.1h.7c1.4-.1 2.9-.2 4.3-.2V551zm15.8-1.5c-2.6.3-5.3.7-7.9.9l.1 1c1.3-.1 2.6-.3 3.9-.4h.4c1.2-.1 2.5-.3 3.7-.5l-.2-1zm15.8-2.7c-2.6.5-5.2 1-7.8 1.4l.2 1c1.4-.2 2.8-.5 4.2-.7h.7l3.1-.6-.2-1-.2-.1zm15.5-3.6c-2.5.7-5.1 1.3-7.7 2l.2 1 2.8-.7h.7c1.1-.3 2.3-.6 3.4-.9h.7l.2-.1-.3-1v-.3zm15.2-4.7c-2.5.9-5 1.7-7.6 2.5l.3 1 1.8-.6.2-.1h.1l.2-.1h.1l.2-.1.2-.1h.1l.2-.1.4-.1c1.3-.4 2.6-.9 3.9-1.3l-.3-.9.2-.1zm14.8-5.8c-2.4 1-4.9 2-7.4 3l.4.9h.9l.2-.1 3.4-1.3.2-.1h.6l1.9-.8-.4-.9.2-.7zm14.5-6.7c-2.4 1.2-4.8 2.4-7.2 3.5l.4.9c2.4-1.1 4.8-2.3 7.2-3.5l-.4-.9zm13.9-7.7c-2.3 1.4-4.6 2.7-6.9 4l.5.9c2.3-1.3 4.7-2.6 6.9-4l-.5-.9zm13.4-8.6c-2.2 1.5-4.4 3-6.6 4.4l.5.8c2.3-1.4 4.5-2.9 6.7-4.4l-.6-.8zm12.8-9.5c-2.1 1.6-4.2 3.3-6.3 4.9l.6.8 1.5-1.1.2-.1h.1l.1-.1.1-.1.2-.1 3.9-3-.6-.8.2-.4zm12.1-10.4c-2 1.8-4 3.6-6 5.3l.6.8 1.9-1.6.2-.2.1-.1.1-.1.1-.1.1-.1.1-.1.1-.1.1-.1.2-.1.1-.1h.1l.2-.2c.8-.7 1.5-1.4 2.3-2l-.7-.7.4-.5zm11.4-11.1c-1.8 1.9-3.7 3.8-5.6 5.7l.7.7.7-.6.1-.1.1-.1v-.1l.1-.1.1-.1.2-.2c.9-.9 1.8-1.8 2.6-2.7l.2-.2.1-.1.2-.2.2-.2.1-.1.1-.1.1-.1.1-.1h.1l.1-.1-.7-.7.4-.5zm10.6-11.9c-1.7 2-3.5 4-5.2 6l.7.7c1.8-2 3.5-4 5.2-6l-.7-.7zm9.8-12.5c-1.5 2.1-3.2 4.3-4.8 6.4l.8.6 1.1-1.4v-.4l.1-.1.1-.1.1-.2c.8-1.1 1.6-2.1 2.4-3.2l.1-.1.1-.1.1-.1v-.1l.1-.1.1-.1v-.1l.1-.2-.8-.6.4-.1zm9-13.2c-1.4 2.2-2.9 4.5-4.4 6.7l.8.6.6-.9.1-.2v-.1l.1-.1v-.5l.1-.1.1-.1.1-.1v-.1l.1-.2v-.1l.1-.2c.7-1.1 1.4-2.1 2.1-3.2l-.8-.5 1-.9zm8-13.8c-1.3 2.3-2.6 4.7-3.9 6.9l.9.5c.9-1.5 1.7-3 2.5-4.5l.1-.2.1-.1v-.4l.1-.2.8-1.5-.9-.5h.3zm7.1-14.3c-1.1 2.4-2.2 4.8-3.4 7.2l.9.5c.2-.4.3-.7.5-1l.1-.2v-.1l.1-.1v-.8l.1-.2v-.1l.1-.2c.5-1 1-2.1 1.5-3.2v-.6l.2-.4-.9-.4.8-.4zm6.1-14.7c-.9 2.5-1.9 5-2.9 7.4l.9.4 1.2-3 .1-.2v-.8l.1-.1c.3-.9.7-1.8 1-2.7l.1-.2v-.2l-.9-.4.4-.2zm5-15.1c-.8 2.5-1.6 5.1-2.4 7.6l1 .3c.2-.6.4-1.3.6-1.9l.1-.2v-1.1l.1-.2v-.1l.1-.2c0-.1.1-.2.1-.4l.1-.2v-.1l.1-.2.1-.2v-.3l.1-.2v-.8l.1-.2v-.1c.1-.2.1-.4.2-.5l-1-.3.7-.7zm4-15.4c-.6 2.6-1.2 5.2-1.9 7.7l1 .3c.5-2 1-4 1.5-5.9v-.7c.1-.4.2-.7.3-1.1l-1-.2.1-.1zm3-15.7c-.4 2.6-.9 5.3-1.4 7.9l1 .2c.3-1.4.5-2.8.8-4.2 0-.1 0-.2.1-.4v-1.7c.1-.5.2-1 .3-1.6l-1-.1.2-.1zm2-15.8c-.2 2.6-.5 5.3-.8 7.9l1 .1v-1c.3-2.3.5-4.6.7-7l-1-.1.1.1zm.8-15.9c-.1 2.6-.2 5.3-.3 8h1v-1.1c.1-1.7.2-3.4.2-5.1v-1.7l-.9-.1zm.8-16h-1c.1 2.6.2 5.3.2 8h1V307c0-.8-.1-1.7-.1-2.5l-.1-.1zm-1.3-16l-1 .1c.3 2.6.5 5.3.8 7.9l1-.1c-.2-2.3-.4-4.7-.7-7v-1l-.1.1zm-2.3-15.8l-1 .2c.5 2.6.9 5.3 1.3 7.9l1-.1c0-.4-.1-.7-.2-1v-.4c-.3-2.3-.7-4.4-1.1-6.6zm-3.4-15.7l-1 .3c.7 2.6 1.3 5.2 1.8 7.8l1-.2c-.1-.5-.2-1-.3-1.4v-.8c-.2-.8-.4-1.7-.6-2.5v-.7c-.2-.8-.4-1.5-.6-2.3l-.3-.2zm-4.5-15.3l-1 .3c.8 2.5 1.6 5.1 2.3 7.6l1-.3c0-.1 0-.2-.1-.3l-.1-.3v-.1l-.1-.2v-.4.1-1.1.1-2.2.2-.5l-.1-.2v-.1l-.1-.2c0-.1-.1-.2-.1-.3l-.3-.9-1.4-1.2zm-5.4-15l-.9.4c1 2.4 2 4.9 2.9 7.4l.9-.3c-.5-1.4-1.1-2.9-1.6-4.3l-.1-.3-.1-.2v-.1l-.1-.1v-1.2.1l-.4-1-.6-.4zm-6.5-14.6l-.9.4c1.2 2.4 2.3 4.8 3.4 7.2l.9-.4-.1-.2v-1.1.1-.5l-.1-.2v-1.5.2-1.6l-.1-.2c-.2-.5-.5-1-.7-1.5l-2.4-.7zm-7.5-14.2l-.9.5c1.3 2.3 2.6 4.6 3.8 7l.9-.5-.7-1.4-.1-.2-.1-.2-.1-.1v-1.2.3l-.1-.2v-.3l-.1-.2v-.1l-.1-.2-.1-.2-1.3-2.4-1.1-.6zm-8.4-13.6l-.8.6c1.5 2.2 2.9 4.5 4.3 6.7l.8-.5c-.6-1-1.2-1.9-1.8-2.9l-.1-.2v-.1l-.1-.1v-.7l-.1-.1v-.1l-.1-.2c-.5-.8-1-1.5-1.5-2.3l-.6-.1zm-9.3-13l-.8.6c1.6 2.1 3.2 4.3 4.8 6.4l.8-.6c-.9-1.3-1.9-2.6-2.8-3.9l-.1-.2v-.1l-.2-.2-.2-.2-.2-.3-.2-.2-1.1-1.3zm-10.2-12.3l-.8.7c1.8 2 3.5 4 5.2 6.1l.8-.6c-1.7-2.2-3.4-4.2-5.2-6.2zm-11-11.7l-.7.7c1.9 1.9 3.8 3.8 5.6 5.7l.7-.7-.2-.2c-1.6-1.7-3.2-3.4-4.9-5l-.1-.1-.1-.1-.1-.1-.1-.1-.1-.1zm-11.7-10.9l-.6.8c2 1.7 4 3.5 5.9 5.3l.7-.7c-.7-.6-1.3-1.2-2-1.8l-.2-.2-.2-.2v-.1l-.2-.1-.1-.1-.1-.1-.1-.1-.1-.1-.1-.1-.2-.1-.1-.1-2.4-2.1-.2-.2zm-12.5-10l-.6.8c2.1 1.6 4.2 3.3 6.3 4.9l.6-.8-5.7-4.5-.2-.2-.1-.1h-.1l-.2-.1zm-13-9.3l-.5.8c2.2 1.4 4.4 3 6.6 4.5l.6-.8-4.8-3.3h-.4l-.2-.1-1.3-.8v-.3zm-13.7-8.3l-.5.9c2.3 1.3 4.6 2.7 6.9 4l.5-.8h-.1l-.1-.1-.1-.1c-2.1-1.3-4.3-2.5-6.5-3.8l-.1-.1zm-14.2-7.3l-.4.9c2.4 1.1 4.8 2.3 7.1 3.6l.5-.9-2.2-1.1h-.1l-.1-.1h-.5l-.1-.1h-.2l-.1-.1-.2-.1-3.6-1.8-.1-.3zm-14.6-6.3l-.4.9c2.5 1 4.9 2 7.4 3.1l.4-.9c-2.4-1.1-4.9-2.2-7.4-3.1zm-15.1-5.4l-.3.9c2.5.8 5 1.7 7.5 2.6l.3-.9-2.7-.9h-.1l-.2-.1h-.2.1-1.7l-.1-.1h-.1l-.2-.1-1.7-.6-.6-.8zm-15.4-4.4l-.2 1c2.6.6 5.2 1.3 7.7 2l.3-1-2.9-.8h-3.5l-1.2-.3-.2-.9zM356.6 82l-.2 1 7.8 1.5.2-1h-1.5.1-.6c-1.9-.4-3.8-.7-5.7-1.1l-.1-.4zm-15.8-2.2l-.1 1c2.6.3 5.3.6 7.9 1l.1-1c-1.3-.2-2.6-.4-4-.5h-1.6l-2.5-.3.2-.2zm-16-1.1v1c2.6.1 5.3.3 8 .4l.1-1c-2.2-.2-4.5-.3-6.7-.4h-1.4zm-9.3-.2v1h1.3v-1h-1.3zm0 79H313c-1.6 0-3.3.1-4.9.1h-.6v1c2.6-.1 5.3-.2 8-.2v-.9zm-16 .8l-.9.1h-2.3l-4.8.6.1 1c2.6-.4 5.3-.7 7.9-1l-.1-1v.3zm-15.8 2.4c-2.6.5-5.2 1.1-7.8 1.8l.3 1c2.5-.7 5.2-1.3 7.7-1.8l-.2-1zm-15.5 4l-1 .3-1.4.5h-.2l-.2.1h-1.1l-2.6.9.3.9c2.5-.9 5-1.8 7.5-2.6l-.3-1-1 .9zm-15 5.6l-2.2.9-.1.1-.8.4h-.4l-.5.2h-.3l-.4.2h-.8l-.3.2h-2l.4.9c2.4-1.2 4.8-2.3 7.2-3.3l-.4-.9.6 1.3zm-14.4 7l-1.4.8h-.4c-1.4.8-2.7 1.6-4.1 2.4l.5.9c2.2-1.4 4.5-2.8 6.9-4l-.5-.9-1 .8zm-13.5 8.4c-.8.6-1.6 1.1-2.4 1.7l-.1.1-.7.5h-.3c-1 .7-2 1.5-3 2.3l.6.8c2.1-1.6 4.2-3.2 6.4-4.7l-.6-.8.1.1zm-12.7 9.8c-.8.7-1.6 1.3-2.3 2-1.1 1-2.1 1.9-3.1 2.9l.7.7c1.9-1.8 3.9-3.6 5.9-5.3l-.6-.8-.6.5zm-11.6 11c-.4.5-.9.9-1.3 1.4v.2l-.4.4v.1c-1 1.1-2.1 2.3-3.1 3.4l.8.7c1.7-2 3.5-4 5.3-5.9l-.7-.7-.6.4zm-10.4 12.1c-1.3 1.7-2.6 3.4-3.8 5.1l-.6.9.8.6c1.5-2.2 3.1-4.3 4.7-6.4l-.8-.6-.3.4zm-9.2 13.2c-.1.1-.2.3-.3.4-.8 1.3-1.5 2.5-2.3 3.8v.1c-.3.6-.6 1.1-.9 1.7l.9.5c1.3-2.3 2.6-4.6 4-6.8l-.9-.5-.5.8zm-7.8 14c-1.2 2.4-2.3 4.8-3.4 7.3l.9.4c1-2.4 2.2-4.9 3.3-7.2l-.8-.5zm-6.3 14.6c-.2.6-.5 1.3-.7 1.9v.6l-.1.2v1.6c0 .1-.1.2-.1.3v.5c-.2.6-.4 1.2-.6 1.9l1 .3c.8-2.5 1.7-5 2.6-7.5l-.9-.4-1.2.6zm-4.8 15.3c-.4 1.5-.8 3.1-1.1 4.6v2.5l-.1.6 1 .2c.5-2.6 1.1-5.2 1.8-7.7l-1-.3-.6.1zm-3.2 15.7c-.4 2.6-.7 5.3-1 7.9l1 .1c.3-2.6.6-5.3 1-7.9l-1-.1zm-1.6 15.9c-.1 1.1-.1 2.2-.1 3.4v.8c0 1.2-.1 2.5-.1 3.7h1c0-2.6.1-5.3.2-8l-1 .1zm1 15.9h-1c.1 2.7.3 5.3.6 8l1-.1c-.3-2.6-.5-5.3-.6-7.9zm1.5 15.8l-1 .1c.3 2.2.7 4.3 1.1 6.5v1c0 .1 0 .3.1.4l1-.2c-.5-2.6-1-5.2-1.4-7.8h.2zm3.2 15.6l-1 .2.2.7v.4c.6 2.1 1.2 4.2 1.8 6.2l1-.3c-.8-2.5-1.5-5.1-2.2-7.6l.2.4zm4.7 15.2l-.9.3c.9 2.5 1.9 5 3 7.4l.9-.4c-1-2.3-2-4.8-3-7.3zm6.3 14.6l-.9.4 1.5 3v.1l.2.4.1.1.7 1.3c.1.3.3.5.4.8l.9-.5c-1.3-2.3-2.5-4.7-3.7-7l.8 1.4zm7.7 13.9l-.9.5.3.4.1.2.1.2.3.4c.1.2.3.4.4.6l.1.1 1.2 1.8.8-.6c-1.5-2.2-3-4.4-4.4-6.6l2 3zm9 13.1l-.8.6c1.6 2.1 3.3 4.2 5 6.2l.8-.6c-1.7-2.1-3.4-4.2-5-6.2zm10.4 12l-.7.7c1.2 1.3 2.4 2.5 3.7 3.7l.3.3h.1l.1.1.5.5.7-.7c-1.9-1.8-3.8-3.7-5.6-5.6l.9 1zm11.5 11l-.6.8 1.1.9h.1l.1.1c1.3 1.1 2.6 2.1 3.9 3.1l.6-.8c-2.1-1.6-4.1-3.3-6.1-5l.9.9zm12.5 9.8l-.5.8c1.1.8 2.3 1.6 3.5 2.4l2.7 1.7.5-.9c-2.2-1.4-4.5-2.9-6.6-4.4l.4.4zm13.5 8.4l-.5.9c2.3 1.3 4.6 2.5 7 3.7h.1l.4-.9c-2.3-1.2-4.7-2.4-7-3.7zm14.3 7l-.4.9.7.3h.6l2.1.9h1.1c1 .4 2 .8 3.1 1.2l.4-.9c-2.5-.9-5-1.9-7.4-3l-.2.6zm14.8 5.6l-.3 1c2.1.7 4.2 1.3 6.3 1.9h.3l.9.2.3-1c-2.5-.7-5.1-1.4-7.6-2.2l.1.1zm15.4 4l-.2 1c2.6.5 5.2 1 7.9 1.4l.2-1c-2.7-.4-5.3-.9-7.9-1.4zm15.7 2.4l-.1 1 1.5.1h.6c2 .2 3.9.3 5.9.4l.1-1c-2.7-.1-5.4-.3-8-.5zm23.8.7c-2.5.1-5 .2-7.5.2h-.4v1h2c2 0 4-.1 6-.2l-.1-1zm15.9-1.6c-2.6.4-5.3.7-7.9 1l.1 1c2.7-.3 5.3-.6 7.9-1l-.1-1zm15.5-3.1c-2.6.6-5.2 1.3-7.8 1.8l.2 1c2.6-.5 5.2-1.1 7.8-1.8l-.2-1zm15.2-4.7c-2.5.9-5 1.8-7.5 2.5l.3 1 2.1-.7h1.1l.5-.1h.9l2.4-.9-.3-.9.5-.9zm14.6-6.3c-2.4 1.2-4.8 2.3-7.2 3.3l.4.9c2.1-.9 4.2-1.8 6.3-2.8h.3l-.4-.9.6-.5zm13.9-7.6c-2.2 1.4-4.5 2.8-6.9 4l.5.9 1.3-.7h.1l.8-.4.9-.5.4-.2.1-.1.1-.1-.5-.9 3.2-2zm13.1-9c-2.1 1.6-4.3 3.2-6.4 4.7l.6.8 1.4-1 .4-.3.1-.1 1.7-1.3 1-.8-.6-.8 1.8-1.2zm12.1-10.3c-1.9 1.8-3.9 3.6-5.9 5.3l.6.8c1.2-1 2.3-2 3.5-3l.1-.1.4-.3.1-.1.1-.1-.7-.7 1.8-1.8zm11-11.5c-1.7 2-3.5 4-5.4 5.9l.7.7c1.9-1.9 3.6-3.9 5.4-5.9l-.7-.7zm9.8-12.5c-1.5 2.2-3.1 4.3-4.7 6.4l.8.6c1.6-2.1 3.2-4.2 4.8-6.4l-.9-.6zm8.4-13.5c-1.3 2.3-2.7 4.6-4.1 6.8l.8.5c1-1.6 2-3.3 3-5 .3-.5.5-.9.8-1.4l-.9-.5.4-.4zm7.1-14.2c-1 2.4-2.2 4.8-3.4 7.2l.9.5c1.2-2.4 2.3-4.8 3.4-7.3l-.9-.4zm5.6-14.9c-.8 2.5-1.7 5-2.6 7.5l.9.4v-.3c.8-2.1 1.5-4.1 2.1-6.2l-1-.3.6-1.1zm4-15.4c-.5 2.6-1.1 5.2-1.8 7.7l1 .3c.3-1.3.7-2.6 1-3.9v-.8l.3-1.2v-.8l-1-.2.5-1.1zm2.4-15.7c-.3 2.6-.6 5.3-1 7.9l1 .2c.1-.4.1-.8.2-1.2v-1.1c.3-1.9.5-3.8.7-5.7l-1-.1h.1zm.9-15.8c0 2.6-.1 5.3-.2 8h1v-8.1l-.8.1zm.2-16l-1 .1c.3 2.6.4 5.3.6 7.9h1c0-.4 0-.8-.1-1.2v-4.4c-.1-.6-.1-1.3-.2-1.9l-.3-.5zm-2.3-15.9l-1 .2c.5 2.6 1 5.2 1.4 7.8l1-.1-.3-1.7v-1.7l-.4-2v-1l-.3-1.5h-.4zm-3.9-15.5l-1 .3c.8 2.5 1.5 5.1 2.1 7.6l1-.3c-.6-2.5-1.4-5-2.1-7.6zm-5.5-15l-.9.4c1 2.4 2 4.9 2.9 7.4l.9-.3c-.4-1-.7-1.9-1.1-2.9v-.5c-.5-1.2-1-2.5-1.5-3.7l-.3-.4zm-7-14.3l-.9.5c1.3 2.3 2.5 4.7 3.7 7.1l.9-.4-.6-1.3v-.3c-.7-1.4-1.4-2.8-2.2-4.2l-.4-.8-.5-.6zm-8.4-13.7l-.8.6c1.5 2.2 3 4.4 4.4 6.6l.9-.5c-.4-.6-.7-1.1-1.1-1.7v-.1c-1-1.6-2-3.1-3-4.6l-.4-.3zm-9.8-12.6l-.8.6c1.7 2 3.4 4.1 5 6.2l.8-.6c-.9-1.2-1.8-2.3-2.7-3.5l-.4-.4c-.5-.6-1-1.1-1.4-1.7l-.5-.6zm-11-11.7l-.7.7c1.9 1.8 3.8 3.7 5.6 5.6l.7-.7-.3-.3-.2-.2-.1-.1-.3-.3-2.6-2.6-2.1-2.1zm-12-10.5l-.6.8c2.1 1.6 4.1 3.3 6.1 5.1l.6-.8c-1-.8-2-1.7-3-2.5l-.3-.3-.5-.4-.1-.1-2.2-1.8zm-13-9.2l-.5.9c2.2 1.4 4.5 2.9 6.6 4.4l.6-.8c-1.2-.9-2.5-1.7-3.8-2.6l-.2-.1-1.6-1-1.1-.8zm-14-7.8l-.5.9c2.4 1.2 4.7 2.4 7 3.7l.5-.9c-2.3-1.3-4.6-2.5-7-3.7zm-14.7-6.4l-.4.9c2.5.9 4.9 1.9 7.4 3l.4-.9c-1.3-.6-2.6-1.1-3.9-1.6h-.2c-1-.4-2-.8-3-1.1l-.3-.3zm-15.2-4.8l-.3 1c2.5.7 5.1 1.4 7.6 2.2l.3-1c-1.8-.6-3.5-1.1-5.3-1.6H357l-1.1-.3v-.3zm-15.6-3.3l-.1 1c2.6.4 5.2.9 7.8 1.4l.2-1h-.2l-.4-.1H344c-1.3-.2-2.5-.4-3.8-.6l.1-.7zm-15.9-1.7l-.1 1c2.6.1 5.3.4 7.9.6l.1-1c-1-.1-1.9-.2-2.9-.3H327l-2.6-.2v-.1zm-8.9-.3v1h.9v-1h-.9z"/><path class="st0" d="M315.5 1c173.7.1 314.5 141 314.4 314.8-.1 126.3-75.7 240.3-192 289.5-160.3 66.9-344.6-8.9-411.5-169.2C-40 276.7 34.3 93.6 193.1 25.7 231.8 9.3 273.4.9 315.5 1m0-1C141.3 0 0 141.3 0 315.5S141.3 631 315.5 631 631 489.8 631 315.5 489.8 0 315.5 0z" opacity=".1"/></g><radialGradient id="SVGID_1_" cx="119.085" cy="444.685" r="31" gradientUnits="userSpaceOnUse"><stop offset="0"/><stop offset=".556" stop-color="#fff" stop-opacity=".1"/></radialGradient><circle cx="119.1" cy="444.7" r="31" fill="url(#SVGID_1_)"/><circle cx="119.1" cy="444.7" r="15" fill="#fff"/><circle class="st0" cx="119.1" cy="444.7" r="7"/></svg>