<svg xmlns="http://www.w3.org/2000/svg" viewBox="0 0 631 631"><title>Ресурс 1</title><g id="Слой_2" data-name="Слой 2"><g id="Слой_1-2" data-name="Слой 1"><path d="M315.5,78.5h-2.82c-1.69,0-3.37,0-5.05.11h-.13l0,1c2.64-.09,5.32-.13,8-.13v-1Zm-16,.53c-1.28.09-2.57.18-3.84.29h-.19l-.18,0h-2.92l-.84.09.1,1c2.63-.26,5.3-.49,7.93-.66l-.06-1Zm-15.92,1.6h-.26l-.1,0h-.08l-.11,0H283l-.11,0h-.07l-.12,0h-.07l-.36,0h0l-.18,0h0l-.18,0h0l-.18,0h0l-.18,0h0l-.18,0h0l-.17,0h0l-.18,0h0l-.18,0h0l-.18,0h0l-.18,0h0l-.17,0h0l-.17,0h0l-.17,0h-1.34l-.08,0h-.1l-.18,0h0l-2.44.4.17,1c2.6-.44,5.25-.85,7.87-1.2l-.13-1ZM267.82,83.3q-3.93.8-7.81,1.73l.23,1c2.57-.61,5.19-1.19,7.78-1.72l-.2-1ZM252.26,87l-1.68.47h0l-.24.07h0l-.1,0h0l-.23.06h0l-.09,0h0l-.1,0h0l-.09,0h0l-.07,0h0l-.1,0h0l-.07,0h0l-.08,0h0l-.1,0h0l-.07,0h0l-.09,0h0l-.08,0,0,0-.07,0h0l-.1,0h0l-.08,0h0l-.08,0h0l-.11,0h0l-.08,0h0l-.22.07h0l-.09,0h0l-.11,0h0l-.1,0h0l-.1,0h0l-.11,0h0l-.11,0h0l-.23.07h0l-.11,0h0l-.24.07h0l-1.67.51h0l-.12,0,.3.95c2.52-.79,5.09-1.54,7.64-2.25l-.27-1ZM237,91.81c-1.18.41-2.36.84-3.53,1.27h0l-.23.09h0l-.09,0h0l-.1,0h0l-.11,0,0,0-.07,0,0,0-.1,0,0,0-.07,0-.05,0-.05,0,0,0-.09,0-.05,0,0,0-.06,0,0,0-.09,0-.06,0-.05,0,0,0-.06,0,0,0-.1,0,0,0-.06,0,0,0-.08,0-.06,0-.06,0,0,0-.05,0-.06,0-.06,0L231,94H231l-.06,0h0l-.1,0h0l-.09,0h0l-.22.09h0l-.93.36.37.93c2.46-1,5-1.89,7.47-2.77l-.33-.94Zm-14.91,5.81q-3.68,1.57-7.29,3.28l.42.9c2.39-1.12,4.84-2.22,7.27-3.26l-.4-.92Zm-14.48,6.8q-3.56,1.83-7.05,3.77l.48.87c2.31-1.28,4.68-2.54,7-3.75l-.46-.89Zm-14,7.77-1.55.94h0l-.07,0h0l-.13.08h0l-.06,0h0l-.19.12,0,0-.06,0,0,0-.09,0,0,0-.05,0,0,0-.09,0,0,0-.05,0,0,0-.05,0,0,0-.09,0,0,0-.05,0,0,0-.18.12,0,0-.05,0h0l-.11.07,0,0-.05,0,0,0-.19.12,0,0-.07,0h0l-.13.08h0l-.07,0h0l-.2.13h0l-.29.18h0l-.22.14h0l-.53.33h0l-.3.19h0l-.22.14h0l-.29.19h0l-.21.13h0l-.06,0,0,0-.11.07,0,0-.06,0,0,0-.06,0-.07,0h0l.55.84c2.22-1.44,4.49-2.86,6.76-4.22l-.52-.86Zm-13.43,8.7q-2,1.39-4,2.82h0l-.2.14h0l-.09.06h0l-.1.07h0l-.07,0,0,0-.09.06,0,0-.07,0,0,0-.05,0,0,0-.08.06-.05,0,0,0-.05,0,0,0-.09.07,0,0-.06,0,0,0-.19.14h0l-1.05.78.6.8c2.11-1.58,4.29-3.15,6.45-4.66l-.57-.82Zm-12.81,9.58h0l-.06.05-.06,0,0,0-.05,0,0,0-.18.15h0c-1.43,1.16-2.85,2.32-4.25,3.51h0l-.07,0h0l-.1.09,0,0,0,0,0,0,0,0-.09.07h0l-.08.07h0l-1,.8.66.76c2-1.72,4.06-3.43,6.13-5.08l-.63-.78Zm-12.14,10.42c-2,1.8-3.9,3.64-5.8,5.5l.7.72c1.89-1.85,3.83-3.7,5.78-5.49l-.68-.73Zm-11.41,11.2c-1.05,1.1-2.08,2.21-3.11,3.33h0l-.16.18,0,0,0,.05v0l-.1.1,0,0,0,.05,0,0,0,0-.07.07,0,0,0,0,0,0-.07.08h0l-.07.07,0,0-.06.07h0l-.08.09h0l-.07.08h0l-.16.18h0L138.42,158l.75.66c1.75-2,3.57-3.94,5.39-5.86l-.72-.69ZM133.2,164q-2.55,3.08-5,6.24l.79.61c1.62-2.09,3.3-4.17,5-6.21l-.77-.64Zm-9.81,12.64h0l-.14.2h0l-.06.09h0l-.07.09h0l-.06.08v0l-.07.09h0l-.06.09,0,0-.05.07,0,0-.06.08,0,0,0,.06,0,0-.05.06,0,0,0,.06,0,0,0,.05,0,0-.05.08,0,0,0,.05,0,0,0,.05,0,.07,0,0,0,.05,0,0-.07.1,0,0,0,.06,0,0,0,0,0,0-.07.1,0,0,0,.06,0,0-.13.19,0,0,0,.06h0l-.08.12,0,0,0,.06,0,0-.13.18,0,0,0,.06v0l-.08.11,0,0,0,.06,0,0-.07.1,0,0,0,.05,0,0,0,.06,0,0-.06.07,0,.05,0,0,0,.05,0,0-.06.09,0,0,0,.06,0,0-.06.09v0l0,.07,0,0,0,.08h0l-.07.09v0l-.06.09h0l-.13.2h0l-1.19,1.76.83.56c1.48-2.2,3-4.39,4.56-6.53l-.81-.59ZM114.45,190c-.64,1-1.27,2.05-1.9,3.08h0l-.12.21h0l-.06.1h0l-.06.1h0l-.05.1v0l-.12.19,0,0,0,.07,0,0,0,.09,0,0,0,.08,0,0,0,.07,0,0,0,.07,0,0,0,.06,0,0,0,.08,0,0,0,0,0,0,0,.05,0,.08,0,0,0,.06,0,0,0,0h0l-.07.13,0,0,0,.06v0l-.08.13h0l0,.07h0l-.13.22h0l0,.07h0l-.13.22h0l-.14.22h0l-.34.58.87.5c1.32-2.29,2.71-4.58,4.11-6.82l-.85-.53Zm-8,13.84-.09.16h0c-.49.92-1,1.85-1.46,2.78h0c-.06.1-.11.21-.16.31h0c-.09.19-.18.36-.28.55h0a3,3,0,0,1-.16.31h0c-.5,1-1,2-1.49,3l.9.44c1.17-2.37,2.39-4.75,3.64-7.08l-.88-.47Zm-7.07,14.35-.33.73h0l-.11.23v0l0,.07v0l-.06.12v0l0,.06,0,0,0,.06,0,0,0,.1,0,.05,0,0,0,.05,0,.05,0,.09,0,0,0,.06,0,0,0,.09v0l0,.08v0l0,.08v0l0,.11v0l0,.08v0l-.09.21v0l0,.09v0l0,.1h0l0,.1v0l0,.1h0l0,.1v0l0,.09v0l-.09.21v0l0,.11h0l0,.11h0l0,.1h0l-.09.22v0l0,.09v0l0,.11h0l0,.09v0l0,.09h0l0,.1v0l0,.08v0l0,.1v0l0,.08v0l0,.07v0l0,.1,0,0,0,.06,0,0,0,.06,0,.08,0,.05,0,.06,0,0,0,.06h0l0,.13v0l0,.07v0l-.1.23h0c-.14.33-.27.66-.41,1l.93.38c1-2.44,2.06-4.9,3.15-7.31l-.91-.41Zm-6.08,14.79-.6,1.64h0l-.09.23v0l0,.1h0l0,.11h0l0,.11v0l0,.1h0l0,.11h0l0,.1v0l-.07.22v0l0,.09v0l0,.11h0l0,.1v0l0,.1h0l0,.11v0l0,.09v0l-.08.22v0l0,.11h0l-.08.23h0c-.4,1.14-.79,2.28-1.17,3.43h0l.95.31c.83-2.5,1.73-5,2.65-7.51l-.94-.35Zm-5.06,15.18-.09.31h0l0,.08v0l-.06.22v0l0,.06v.05l0,.09,0,.06v0l0,.06v0l0,.1v0l0,.08v0l0,.08v0l0,.11v0l0,.09v0l-.07.22h0l0,.11s0,0,0,0q-.81,2.82-1.55,5.67l1,.25c.66-2.56,1.38-5.14,2.13-7.68l-1-.28Zm-4,15.48q-.87,3.9-1.61,7.84l1,.18c.49-2.6,1-5.22,1.61-7.8l-1-.22Zm-3,15.72q-.61,3.94-1.08,7.93l1,.12c.31-2.63.67-5.28,1.07-7.89l-1-.16ZM79.36,295.2c-.13,1.5-.24,3-.34,4.51h0v.7h0c-.06.92-.11,1.83-.16,2.75l1,.05c.14-2.64.32-5.32.54-8l-1-.08Zm-.82,16,0,2.16h0v.19h0v1.29h0V315h0v1.51h0v.22h0V317h0c0,.11,0,.23,0,.34h0v.33h0v1h0c0,.17,0,.35,0,.52h1c0-1.22,0-2.45,0-3.67,0-1.43,0-2.88,0-4.31l-1,0Zm1.24,16-1,0c.07,1.36.15,2.72.23,4.07h0l0,.18h0v.18h0v.3h0v1.14h0l0,.18h0c0,.63.09,1.26.14,1.89l1-.08c-.22-2.64-.39-5.31-.52-7.95ZM81.09,343l-1,.12c.1.87.21,1.74.32,2.61h0l0,.16v.34h0v.08h0v.08h0c.2,1.54.42,3.08.65,4.62l1-.15c-.4-2.61-.75-5.27-1-7.9Zm2.37,15.76-1,.18c.09.49.19,1,.28,1.47h0v.32l0,.07v0l0,.17h0c.24,1.21.48,2.41.74,3.61h0l0,.09h0V365l0,.09v.07h0c.11.53.23,1.05.34,1.58l1-.22c-.57-2.58-1.1-5.2-1.58-7.8Zm3.43,15.55-1,.25c.1.38.19.76.29,1.14h0l.06.25v0l0,.07v0l.06.22v0l0,.06v.05l0,.1v.1l0,.06v.05l0,.08,0,.05,0,.07V377l0,.07v0l0,.11v0l0,.08v0l0,.09v0l0,.11v0l0,.09v0l.06.22v0l0,.1h0l0,.12h0l0,.11v0l0,.11h0l0,.12h0l0,.11v0l.07.23h0l0,.12h0l.07.24h0c.28,1,.56,2,.86,3l1-.28c-.75-2.53-1.46-5.12-2.11-7.68Zm4.48,15.29-1,.31c.17.53.35,1.07.53,1.6h0l.09.25h0l0,.08v0l.08.22v0l0,.06,0,.05,0,.09,0,.05,0,.05,0,.06v0l0,.1v0l0,.08v0l0,.08v0l0,.11v0l0,.09v0l.08.22h0l0,.12h0l.08.23h0c.44,1.26.89,2.51,1.35,3.76l.93-.34c-.91-2.48-1.79-5-2.62-7.52Zm5.51,14.94-.93.38c1,2.47,2.06,4.93,3.15,7.36l.91-.41c-1.08-2.42-2.14-4.88-3.13-7.33Zm6.51,14.54-.9.44.38.78h0l.05.11h0l0,.11h0l.05.09v0l.11.21v0l0,.09h0l.05.1v0l0,.07,0,0,0,.09v0l0,.08,0,0,0,.08v0l.05.09v0l0,.07,0,0,0,.09h0l0,.1v0l0,.08v0l0,.1v0l0,.09,0,0,.1.21h0l0,.1h0l.11.22h0c.65,1.26,1.3,2.52,2,3.77l.88-.47c-1.24-2.34-2.46-4.72-3.62-7.1Zm7.48,14.06-.87.5h0l.06.1v0l.05.1v0l.05.07,0,0,0,.05,0,.08,0,.05,0,.06v0c.63,1.08,1.26,2.16,1.91,3.22h0l.13.22h0l0,.06v0l.12.21,0,0,0,.06,0,0,.06.1,0,0,0,.05,0,0,0,.05,0,.08,0,0,0,.05,0,0,0,.07,0,0,0,.07,0,0,0,.06,0,0,.06.09,0,0,0,.07,0,0,0,.08,0,0,0,.09,0,0,0,.07,0,0,.06.09v0l0,.07,0,0,.06.09h0l.06.09,0,0,0,.07,0,0,0,.08,0,0,0,.06,0,0,0,.06,0,.05,0,.06,0,.05,0,0,0,0L115,440c-1.4-2.25-2.77-4.55-4.09-6.84Zm8.41,13.53-.83.56h0l.05.08h0l.07.1v0l.05.08,0,0,.06.09h0l.06.09,0,0,0,.08h0l.06.1,0,0,0,.07,0,0,.06.09h0l0,.08,0,0,0,.07v0l.06.08,0,0,0,.06,0,0,0,.08,0,0,0,.06,0,0,0,.06,0,0,0,.08,0,0,0,.05,0,0,.06.08,0,0,0,.06,0,0,0,.05,0,.05,0,.07,0,0,0,.05,0,0,0,.06,0,.07,0,0,0,0,0,0,0,.07,0,.05,0,.05,0,0,0,.05,0,0,.06.08,0,0,0,.05,0,0,.06.09,0,0,0,.06,0,0,0,0,0,0,.07.1,0,0,0,.06,0,0,.06.09,0,0,0,.05,0,0,0,.06h0l.08.11,0,0,0,.06,0,0,.07.1,0,0,0,0,0,0,0,.06h0l.09.13v0l0,.06v0l.08.12h0l0,.06v0l.14.19v0l0,.06v0l.09.12h0l0,.07v0l.14.19v0l0,.06h0l.15.21h0l.15.21h0l.32.45.82-.59c-1.55-2.14-3.08-4.34-4.55-6.54Zm9.31,12.93-.79.61.07.1h0l.15.19v0l.06.08h0l.07.1h0l.06.08,0,0,0,.07,0,0,.06.08,0,0,0,.05,0,0,.05.08,0,0,0,0,0,0,0,0,.06.08,0,0,0,0,0,0,.14.18,0,0,.05.06v0l.1.12h0l.05.06v0l.15.19h0l.22.28h0l1.89,2.36h0a2.88,2.88,0,0,1,.22.27h0l.16.19v0l.05.06h0l.09.12h0l0,.06,0,0,.14.17,0,0,0,0,0,0,.06.08,0,0,0,.05,0,0,0,0,.06.08,0,0,0,0,0,0,.06.06v0l.77-.64c-1.68-2-3.36-4.13-5-6.22Zm10.15,12.28-.75.66,0,0,.05.06,0,0,.06.06v0l.08.08v0l.06.07,0,0,.16.17h0c1,1.15,2.06,2.29,3.11,3.42h0l.25.28h0l.16.18h0l.16.18h0l.08.08h0l.09.09h0l.08.08h0l.16.17v0l.07.07h0l.08.09h0l.07.07,0,0,.15.17,0,0,.07.07h0l.08.08v0l.07.06,0,0,.07.08h0l.73-.69c-1.82-1.92-3.63-3.9-5.38-5.87Zm10.95,11.56-.7.71.06.06h0l.06.06h0l.12.12h0l0,.05,0,0,0,0,0,0,.08.07,0,0,0,0,0,0,0,.05.05,0,0,0,0,0,0,0,.08.07,0,0,.06.05,0,0,.07.07h0l.08.07,0,0,.07.07h0l.08.08h0l.07.07,0,0,.17.16h0l.17.17h0l.09.09h0l2.44,2.32h0l.18.16h0l.18.16h0l.08.07,0,0,.16.15,0,0,.07.06,0,0,.08.07,0,0,0,0,0,0,0,0,.07.07,0,0,.05.05,0,0,.32.3.68-.74c-2-1.79-3.88-3.64-5.77-5.5Zm11.71,10.81-.65.75,1,.9h0l.18.16h0l.08.07h0l.09.07h0l.07.06,0,0,.09.08h0l.09.07,0,0,.07.06h0l.09.07,0,0,.07.05,0,0,.08.07h0l.07.06,0,0,.06.05,0,0,.08.06,0,0,.06.05,0,0,.08.07h0l.07.06,0,0,.07.06h0l.09.08h0l.07.06,0,0,.08.07h0l.08.06,0,0,.18.15h0l.09.07h0l.19.16h0l2.52,2.06.63-.78c-2.06-1.66-4.12-3.38-6.12-5.1Zm12.4,10-.6.8c2.13,1.61,4.29,3.17,6.47,4.7l.58-.82c-2.17-1.51-4.33-3.09-6.45-4.68Zm13,9.14-.55.84h0l.2.12v0l.09,0h0l.1.06h0l.09.06h0l.19.12,0,0,.08,0h0l.09.06h0l.09,0,0,0,.19.12h0l.09.06h0l.1.06h0l.09.05h0l.09.06h0l.1.06h0l.08,0h0l.09.06,0,0,.08.05h0l.08.06h0l.09.06,0,0,.07,0,0,0,.09.06,0,0,.06,0,0,0,.06,0,.05,0,.07,0,0,0,.05,0,0,0,.08,0,0,0,0,0,0,0,.05,0,.08.05,0,0,0,0,0,0,0,0,0,0,.11.07h0l.06,0,0,0,.11.07h0l.06,0,0,0,.21.12h0a3,3,0,0,0,.3.18h0c.76.48,1.52.94,2.29,1.4l.52-.85c-2.27-1.37-4.54-2.79-6.75-4.24Zm13.63,8.24-.49.88,1.09.6h0l.2.11,0,0,.07,0,0,0,.08.05.05,0,0,0,.06,0h0l.13.08h0l.06,0h0c1.7.93,3.4,1.83,5.13,2.72l.46-.89c-2.35-1.21-4.71-2.48-7-3.77Zm14.16,7.3-.43.91q1.8.85,3.63,1.68h0l.21.1h0l.09,0h0l.1,0h0l.08,0h0l.06,0,0,0,.09,0,0,0,.05,0,.06,0,0,0,.12,0h0l.07,0h0l.24.1h0l2.22,1,.4-.92c-2.43-1.05-4.87-2.16-7.26-3.29Zm14.62,6.33-.37.93,1.56.6h0l.24.09,0,0,.06,0,.05,0,.08,0,.06,0,0,0,.08,0h0l.1,0h0l.1,0h0l.22.08h0l.11,0h0q2.34.88,4.7,1.72l.33-1c-2.49-.88-5-1.82-7.46-2.78Zm15,5.31-.31,1,1.14.35h0l.25.08h0l.08,0h0l.23.07h0l.07,0h0l.13,0h0l.06,0h.05l.06,0,0,0,.1,0,.05,0,0,0h.05l.06,0h.05l.09,0,.05,0h.06l.05,0,.07,0,.07,0,.06,0h.05l0,0,.05,0,.1,0h0l.07,0h0l.06,0h0l.11,0h0l.06,0h0l.22.07h0l.07,0h0l.23.07h0l.07,0h0l.16,0h0l.08,0h0l.24.07h0l.07,0h0l.24.07h0l.08,0h0l.26.07h0l.25.08h0l.08,0h0l.25.07h0l.08,0h0l.17,0h0l.07,0h0l.07,0h0l.14,0H251l.05,0h.06l.09,0h0l.05,0h.05l.07,0h0l.1,0h0l.07,0h0l.27-1c-2.54-.71-5.11-1.47-7.63-2.27Zm15.34,4.29-.24,1c2,.48,4,.94,6,1.37h0l.09,0h0l.06,0h0l.06,0h.16l1.39.29.2-1c-2.59-.53-5.2-1.12-7.77-1.74Zm15.6,3.23-.17,1h0l.18,0h0l.17,0h0l.16,0h0l.16,0h.08l.11,0h.88l.08,0h0l.17,0h0l.17,0h0l3.76.58h0l.18,0h0l.17,0H282l1,.13.14-1c-2.62-.36-5.27-.77-7.87-1.21ZM291,550.24l-.1,1,1.17.12h.6c2.06.2,4.12.37,6.2.52l.07-1c-2.64-.19-5.31-.42-7.94-.69Zm15.89,1.11,0,1c1.68.06,3.37.1,5.06.12h.19l2.75,0v-1c-2.65,0-5.33-.06-8-.15Zm23.9-.34c-2.64.17-5.32.3-8,.38l0,1,3-.11h.7c1.43-.07,2.87-.15,4.29-.24l-.06-1Zm15.85-1.55c-2.62.35-5.28.65-7.92.91l.1,1c1.3-.13,2.6-.27,3.89-.42h0l.19,0h0l.19,0h0c1.23-.14,2.45-.29,3.68-.45l-.13-1Zm15.71-2.61c-2.59.52-5.22,1-7.83,1.44l.16,1c1.4-.24,2.8-.48,4.19-.74h0l.17,0h.07l.07,0h.11l.16,0h0l3.09-.6-.2-1Zm15.5-3.67c-2.55.69-5.14,1.35-7.72,2l.23,1,2.8-.68h0l.11,0h0l0,0h0l.07,0h.15l.08,0h0l.06,0h0l.08,0h0l.08,0h0c1.13-.28,2.25-.58,3.37-.88h0l.17,0h0l.07,0h0l.07,0h.11l.06,0h.07l.23-.06-.26-1Zm15.22-4.72c-2.5.87-5.05,1.7-7.57,2.49l.3.95,1.78-.56h0l.23-.08h0l.11,0h0l.23-.07h0l.11,0h0l.23-.08h0l.24-.07h0l.11,0h0l.23-.08h0l.35-.12h0q2-.65,3.9-1.32l-.32-.94Zm14.85-5.74c-2.43,1-4.91,2-7.38,3l.36.94.06,0h0l.07,0h0l.1,0,.05,0,.06,0,0,0,0,0,.1,0h0l.08,0h0l.1,0h0l.11,0h0l.1,0h0l.23-.09h0l3.36-1.35h0l.22-.09h0l.09,0h0l.1,0,0,0,.07,0h0l.06,0,.09,0h0l.06,0h0l1.89-.79-.4-.92ZM422.36,526c-2.36,1.2-4.77,2.37-7.16,3.49l.42.91q3.63-1.7,7.19-3.51l-.45-.89Zm13.94-7.7c-2.27,1.36-4.59,2.69-6.9,4l.48.87q3.51-1.93,6.94-4l-.52-.86Zm13.4-8.62c-2.18,1.5-4.4,3-6.63,4.42l.54.84q3.38-2.16,6.66-4.44l-.57-.82Zm12.78-9.51c-2.07,1.65-4.19,3.29-6.31,4.86l.6.8,1.49-1.12h0l.19-.14,0,0,.07,0,0,0,.09-.06,0,0,.05,0,.05,0,0,0,.08-.07,0,0,.05,0,0,0,.19-.15h0c1.31-1,2.6-2,3.89-3l-.63-.78Zm12.12-10.34c-2,1.78-4,3.56-6,5.27l.65.76,1.89-1.63h0l.18-.16h0l.07-.07h0l.08-.07,0,0,.07-.06,0,0,.07-.06,0,0,.08-.06,0,0,0-.05,0,0,.08-.06,0,0,0,0,0,0,0,0,.08-.07,0,0,.05,0,0,0,.17-.15,0,0,.05-.05h0l.11-.1h0l.06-.05h0l.19-.17h0c.76-.68,1.51-1.35,2.26-2l-.67-.74ZM486,478.68c-1.82,1.91-3.71,3.81-5.6,5.66l.7.72.66-.65,0,0,.05-.05h0l.1-.1,0,0,0,0,.05,0,0,0,.07-.07,0,0,.05-.06,0,0,.07-.08h0l.08-.07v0l.17-.16h0c.88-.88,1.76-1.77,2.63-2.66h0l.17-.18h0l.08-.09h0l.17-.17h0l.16-.17,0,0,.07-.07h0l.08-.08,0,0,.06-.06,0,0,.07-.06,0,0,0-.05,0,0,0,0,.05-.05.06,0,0-.05,0,0,0-.05,0,0,.09-.1h0l0,0-.73-.69Zm10.63-11.87c-1.7,2-3.45,4.05-5.21,6l.74.67c1.78-2,3.52-4,5.24-6.05l-.77-.64Zm9.8-12.56c-1.55,2.14-3.17,4.28-4.79,6.36l.78.62,1.11-1.43,0,0,0-.06,0,0,.05-.07,0-.06,0,0,0-.06,0,0,.06-.09h0l.07-.08v0l.14-.19h0c.81-1.06,1.61-2.12,2.4-3.2h0l.07-.09h0l.07-.1h0l.07-.08v0l0-.06,0,0,.06-.08,0,0,0,0,0,0,0,0,.08-.1v0l.05-.07h0l.12-.16-.81-.59Zm8.94-13.18c-1.41,2.23-2.87,4.48-4.36,6.67l.83.56.59-.88h0l.13-.2,0,0,0-.06v0l.08-.11v0l0-.06,0,0,0-.05,0-.05,0-.08,0,0,0-.05,0,0,0-.08,0,0,0-.05,0,0,0-.05,0-.06,0-.07,0,0,0-.05,0,0,.06-.08,0,0,0-.05,0,0,0,0,0,0,.06-.1,0,0,0-.05,0,0,.08-.12h0l0-.06v0l.13-.2h0l0-.07h0l.14-.22h0c.69-1.06,1.38-2.13,2.06-3.21l-.85-.53Zm8-13.76c-1.26,2.32-2.57,4.66-3.9,6.94l.86.51c.86-1.47,1.71-3,2.53-4.45h0l.11-.21h0l0-.09v0l.06-.09v0l0-.07,0,0,0-.06,0-.06,0-.06,0-.05,0,0,.11-.21h0l.8-1.47-.88-.47ZM530.46,413c-1.09,2.4-2.24,4.82-3.41,7.19l.89.45c.18-.35.35-.7.52-1.05h0l.1-.23v0l0-.07h0l.06-.13v0l0-.06,0,0,0-.06,0-.08,0,0,0-.05,0-.05,0-.06,0-.05,0-.08,0,0,0-.07,0,0,0-.1h0l0-.09v0l.11-.21v0l0-.1h0l.11-.22h0c.5-1.05,1-2.1,1.48-3.16h0l.05-.1h0l0-.11h0l0-.09v0l0-.08,0,0,0-.07,0-.06,0,0,.18-.39-.92-.41Zm6.1-14.72c-.93,2.47-1.91,5-2.92,7.41l.92.38c.41-1,.82-2,1.22-3h0l.09-.22v0l0-.09v0l0-.1,0,0,0-.06,0-.05,0-.06,0-.07,0-.06,0-.06v0l0-.07h0l.06-.15h0l0-.08h0c.35-.9.7-1.79,1-2.69h0l.09-.23v0l0-.07v0l0-.06,0-.09h0l-.94-.35Zm5.08-15.1c-.76,2.54-1.57,5.09-2.41,7.6l.95.31c.21-.64.43-1.29.64-1.94v0l.07-.22v0l0-.06,0,0v-.06l0-.09,0-.05,0-.06v0l0-.08v0l0-.09v0l0-.07v0l0-.11h0l0-.1v0l0-.1h0l0-.11v0l0-.1h0l.08-.23h0l0-.11h0l.07-.23h0a3.58,3.58,0,0,0,.11-.35h0l.08-.24h0l0-.12h0l.07-.23h0l.07-.24h0l0-.11h0l.07-.23v0l0-.09v0l0-.11v0l0-.09v0l0-.08,0,0,0-.1v0l0-.07v-.05l0-.05,0-.1v0l0-.07v0l.08-.24h0l0-.09h0c.06-.18.11-.37.17-.55l-1-.29Zm4-15.41c-.58,2.58-1.22,5.19-1.89,7.74l1,.26c.51-2,1-3.95,1.47-5.94h0v-.05h0l0-.1v-.33l0-.07v0l0-.07h0l0-.08h0c.08-.36.17-.72.25-1.07l-1-.23Zm3-15.64c-.41,2.61-.87,5.25-1.36,7.85l1,.19c.27-1.4.52-2.81.76-4.22h0c0-.12.05-.24.07-.36h0l0-.17h0l0-.17v0l0-.16V355h0v-.18h0v-.17h0v-.1l0-.07v-.1h0l0-.08h0v-.08h0l0-.09h0V354h0l0-.09h0c.08-.52.17-1.05.25-1.57l-1-.15Zm1.92-15.81c-.23,2.63-.51,5.3-.83,7.92l1,.12h0v-.09h0v-.52l0-.17h0l0-.18h0c.28-2.31.51-4.64.72-7l-1-.08Zm.86-15.91c-.06,2.64-.15,5.32-.3,8l1,0,0-.62h0v-.42h0v-.09h0c.08-1.71.15-3.4.2-5.12h0v-.54l0-1.18-1,0Zm.8-16-1,0c.12,2.64.2,5.32.23,8h1c0-.2,0-.4,0-.6h0v-.18h0v-.09h0v-.09h0v-1.2h0v-.37h0v-.55h0v-.18h0v-.31h0v-.18h0v-1.25h0v-.18h0v-.09h0V307h0c0-.84-.06-1.69-.1-2.53Zm-1.27-16-1,.11c.29,2.63.55,5.3.76,7.93l1-.08c-.19-2.34-.41-4.66-.66-7h0v-.09h0v-.52c0-.12,0-.24,0-.36Zm-2.34-15.83-1,.18c.47,2.6.91,5.25,1.3,7.87l1-.15c-.05-.35-.11-.69-.16-1v-.33h0v-.09h0c-.33-2.15-.7-4.3-1.09-6.44Zm-3.4-15.63-1,.25c.65,2.56,1.27,5.17,1.83,7.75l1-.21c-.11-.48-.21-1-.32-1.43h0l0-.17v-.42l0-.17h0c-.19-.83-.39-1.66-.59-2.49h0l0-.1v-.32l0-.07v0l0-.05v0l0-.08h0l0-.08h0c-.19-.77-.38-1.55-.58-2.32Zm-4.46-15.36-.95.31c.83,2.51,1.62,5.07,2.35,7.61l1-.28c0-.1,0-.2-.08-.3h0l-.07-.26h0l0-.07v0l-.07-.22v0l0-.07v0l0-.1v-.05l0,0v-.06l0-.05,0-.06,0-.07,0-.07v0l0-.07,0,0,0-.1v0l0-.08v0l0-.07v0l0-.1v0l0-.08,0,0,0-.09v0l0-.1v0l0-.07v0l0-.1v0l0-.09v0l0-.09v0l0-.11v0l0-.09v0l0-.09v0l0-.1v0l0-.08v0l0-.11h0l0-.09v0l0-.08v0l0-.1v0l0-.08v0l0-.08v0l0-.11v0l0-.07v0l0-.09v0l0-.08v0l0-.06v-.05l0-.09,0-.05,0-.06v-.05l0,0,0-.07,0-.07,0-.06,0,0v-.05l0,0,0-.11v0l0-.07v0l-.08-.22v0l0-.07v0l-.08-.24v0c0-.11-.07-.22-.1-.33h0c-.09-.29-.19-.59-.29-.89Zm-5.49-15-.92.37c1,2.45,2,4.95,2.86,7.43l.94-.34c-.53-1.43-1.06-2.86-1.62-4.28h0l-.12-.33h0l-.09-.23v0l0-.07v0l-.06-.15h0l0-.07v0l0-.06v0l0-.1,0-.05,0,0,0-.05,0,0,0-.09v-.05l0-.06v0l0-.08v0l0-.1,0,0,0-.08v0l0-.1h0l0-.1v0l-.42-1Zm-6.5-14.62-.9.44c1.16,2.37,2.29,4.8,3.36,7.22l.92-.41-.08-.18v0l0-.06,0,0,0-.06,0-.08,0-.05,0,0,0-.05,0-.07v0l0-.08,0,0,0-.07,0,0,0-.1v0l0-.09v0l0-.1h0l0-.1v0l0-.09v0l0-.1h0l-.05-.1v0l0-.09v0l0-.1v0l0-.09v0l-.1-.21v0l0-.09v0l0-.1v0l0-.09v0l0-.09v0l0-.09v0l0-.07,0,0,0-.1,0,0,0-.07,0,0,0-.07v0l0-.09,0,0,0-.06,0,0,0-.09v0l0-.06,0-.05,0-.06,0,0,0-.09,0,0,0-.06,0,0,0-.07,0-.06,0-.06,0,0,0-.05v0l0-.08,0-.05,0-.06,0,0,0-.07,0-.05,0-.07,0,0,0-.06,0,0,0-.09v0l0-.08,0,0,0-.09h0l-.05-.1v0l0-.08v0l-.1-.22h0c-.24-.49-.47-1-.71-1.46Zm-7.47-14.15-.87.5c1.32,2.3,2.61,4.64,3.84,7l.89-.47-.73-1.36h0l-.12-.23v0l-.12-.21v0l0-.07,0,0-.06-.1v0l0-.05,0,0,0-.05,0-.06,0-.06,0-.06,0-.05,0-.05,0,0,0-.09,0,0,0-.06,0,0-.05-.08v0l0-.08,0,0,0-.07,0,0,0-.09v0l0-.07,0,0-.11-.2v0l0-.09h0l-.05-.1v0l0-.09v0l-.11-.2h0l-.05-.1h0l-.11-.21h0l-.12-.21h0l-1.35-2.4Zm-8.41-13.6-.83.55c1.46,2.2,2.91,4.46,4.3,6.71l.85-.53c-.6-1-1.21-1.94-1.82-2.9h0l-.13-.21,0,0,0-.06v0l-.07-.11,0,0,0-.06,0,0,0-.05,0-.08,0-.05,0,0,0,0,0-.06,0,0,0-.08,0,0,0-.07v0l-.07-.1h0l-.05-.08v0l-.13-.2h0c-.5-.77-1-1.53-1.51-2.29Zm-9.31-13-.8.61c1.61,2.09,3.21,4.25,4.75,6.4l.81-.58c-.93-1.31-1.88-2.6-2.83-3.89h0l-.15-.21h0l-.05-.07h0l-.16-.21h0l-.16-.2h0l-.21-.28h0l-.16-.21h0l-1-1.33Zm-10.17-12.36-.75.67c1.75,2,3.49,4,5.17,6.06l.77-.63q-2.53-3.09-5.19-6.1Zm-11-11.64-.71.71c1.88,1.86,3.75,3.78,5.56,5.71l.73-.69h0l-.17-.18h0c-1.61-1.7-3.23-3.37-4.88-5h0l-.09-.09h0l-.09-.08v0l-.06-.06,0,0-.06-.06,0,0-.05,0,0,0,0,0,0,0Zm-11.73-10.88-.65.75c2,1.73,4,3.52,5.92,5.32l.69-.73c-.66-.61-1.31-1.21-2-1.81h0l-.19-.18h0l-.18-.17h0l-.05-.05,0,0-.17-.15,0,0-.05,0,0,0-.08-.07,0,0,0,0,0,0,0,0-.07-.07,0,0-.06-.05,0,0-.07-.07,0,0-.07-.06,0,0-.17-.15h0l-.09-.08h0c-.78-.69-1.56-1.38-2.35-2.06Zm-12.43-10.08-.6.8c2.11,1.6,4.22,3.25,6.27,4.91l.63-.77c-1.89-1.54-3.8-3-5.74-4.52h0l-.2-.15,0,0-.05,0,0,0-.07-.06-.05,0,0,0-.06,0,0,0Zm-13.07-9.21-.55.84c2.21,1.45,4.42,3,6.59,4.48l.57-.82c-1.58-1.12-3.18-2.21-4.79-3.29l0,0-.06,0,0,0-.07,0-.07,0,0,0-.07,0,0,0-.2-.13h0l-1.25-.82Zm-13.67-8.31-.49.87c2.3,1.3,4.61,2.65,6.87,4l.52-.85,0,0-.05,0,0,0-.06,0h0l-.1-.06h0l-.1-.06h0q-3.19-1.93-6.47-3.78Zm-14.2-7.37-.43.9c2.38,1.14,4.78,2.33,7.13,3.55l.46-.89-2.17-1.11h0l-.07,0h0l-.13-.07,0,0-.06,0h0l-.05,0-.07,0-.06,0-.06,0,0,0-.07,0h0l-.09-.05,0,0-.08,0h0l-.11,0h0l-.1-.05h0l-.21-.11h0c-1.2-.59-2.4-1.18-3.6-1.75ZM402.7,95.06l-.36.93c2.45,1,4.93,2,7.35,3.06l.4-.92c-2.44-1.06-4.9-2.09-7.39-3.07Zm-15.06-5.38-.3.95c2.51.81,5.05,1.66,7.54,2.55l.34-.94-2.67-.93h0l-.08,0h0l-.23-.08h0l-.07,0h0l-.09,0h-.05l-.06,0-.05,0-.05,0-.07,0-.07,0-.06,0,0,0-.07,0,0,0-.1,0h0l-.07,0,0,0-.08,0h0l-.1,0h0l-.06,0,0,0-.1,0h0l-.07,0,0,0-.06,0h0l-.09,0-.05,0-.06,0,0,0-.07,0-.06,0-.07,0-.06,0h0l-.06,0h0l-.13-.05h0l-.08,0h0l-.24-.08h0l-1.72-.55Zm-15.4-4.34-.24,1c2.57.63,5.16,1.31,7.71,2l.27-1-2.86-.79h0l-.17,0h0l-.08,0h0l-.08,0h-.1l-.07,0h-.11l-.07,0h0l-.05,0h-.21l-.05,0h-.17l-.06,0h-.22l0,0h0l-.09,0h-.14l-.05,0h-.17l-.06,0h-.11l-.06,0h-.12l-.06,0h-.33l-.07,0h-.11l-.07,0h0l-.07,0h0l-.08,0h0l-.07,0h0l-.17,0h0l-.17,0h0l-1.24-.3Zm-15.65-3.29-.18,1c2.61.46,5.24,1,7.83,1.51l.2-1h0l-.06,0h0l-.06,0h-.88l-.16,0h0l-.16,0h0l-.17,0h0l-.17,0h0l-.17,0h0l-.17,0h0c-1.89-.38-3.8-.74-5.71-1.07Zm-15.84-2.22-.11,1c2.63.28,5.29.61,7.91,1l.14-1c-1.32-.19-2.64-.36-4-.53h0l-.18,0h0l-.18,0h0l-.12,0h-.07l-.11,0h-.45l-.36,0h0l-2.48-.28Zm-16-1.15,0,1c2.64.1,5.32.25,7.95.44l.08-1q-3.36-.24-6.73-.39h-1.26Zm-9.29-.18v1h1.29v-1H315.5Z" fill="#00adee"/><path d="M315.5,157.5H313c-1.65,0-3.29.08-4.93.15l-.56,0,.05,1c2.63-.13,5.31-.2,7.95-.2v-1Zm-16,.8-.87.09h-2.17l-.12,0h0c-1.6.19-3.2.41-4.78.65l.15,1c2.6-.4,5.26-.73,7.89-1l-.1-1Zm-15.82,2.4c-2.62.53-5.22,1.14-7.79,1.8l.25,1c2.55-.66,5.16-1.26,7.74-1.79l-.2-1Zm-15.48,4-1,.31h0l-1.43.46h0l-.12,0h0l-.05,0h0l-.05,0h0l-.05,0h0l-.05,0h0l-.05,0h0l-.05,0h0l-.05,0h0l0,0h0l0,0h0l-.05,0h0l-.05,0h0l-.05,0h0l-.05,0h0l-.05,0h0l-.05,0h0l-.05,0h0l0,0h0l-.06,0h0l-.18.06h-1.09l-.05,0h0l-.05,0h0l-2.62.95.34.94c2.48-.92,5-1.78,7.52-2.57l-.29-1Zm-15,5.56-2.18.95h0l-.11.05h0l-.8.36h0l0,0h0l-.05,0h0l-.05,0h0l-.05,0h0l0,0h0l0,0h0l0,0h0l0,0h0l-.05,0h0l0,0h0l0,0h0l0,0h0l0,0h0l-.05,0h0l-.05,0h0l-.5.24h0l-.05,0h0l0,0h0l0,0h0l0,0h0l0,0h0l-.05,0h0l0,0h0l0,0h0l0,0h0l0,0h0l0,0h0l-.05,0h0l0,0h0l0,0h0l-.45.21h0l-.05,0h0l-.05,0h0l0,0h0l-.05,0h0l0,0h0l0,0h0l-.05,0h0l0,0h0l-.05,0h0l0,0h0l-.05,0h0l0,0h0l0,0h0l-.05,0h0l0,0h0l-.05,0h0l-.33.16h0l0,0h0l0,0h0l0,0h0l0,0h0l0,0H246l.44.89c2.37-1.16,4.8-2.28,7.22-3.32l-.39-.91Zm-14.36,7-1.39.79h0l0,0h0l0,0h0l-.05,0h0l0,0h0l0,0h0l0,0h0l0,0h0l-.05,0h0l0,0h0l0,0h0l0,0h0l0,0-.06,0h0l0,0h0l0,0,0,0,0,0h0l0,0h0l0,0h0l0,0h0l0,0h0l0,0h0l0,0h0l0,0h0l0,0h0l0,0h0l-.05,0h0l0,0h0c-1.36.8-2.72,1.62-4.06,2.45l.53.85c2.24-1.39,4.54-2.75,6.85-4l-.49-.88Zm-13.57,8.47c-.82.57-1.63,1.15-2.44,1.74h0l-.11.07h0l-.7.52h0l-.05,0h0l-.05,0h0l0,0h0l-.05,0h0c-1,.74-2,1.49-3,2.25l.61.8c2.08-1.62,4.24-3.2,6.4-4.71l-.57-.82Zm-12.64,9.79c-.78.66-1.55,1.34-2.31,2h0l0,0h0l0,0h0l0,0h0l0,0h0l0,0h0l0,0h0l0,0h0l0,0h0l0,0,0,0h0l0,0h0c-1.07,1-2.11,1.92-3.15,2.91l.69.73c1.91-1.82,3.9-3.61,5.9-5.33l-.65-.76Zm-11.6,11c-.44.46-.88.93-1.31,1.4h0l0,0h0l0,0h0l0,.05h0l0,0h0l0,0h0l0,.05h0l0,0h0l-.36.39h0l0,0h0l0,0h0l0,0h0l0,0h0l0,0h0l0,0h0l0,0h0l0,0h0l0,.05h0q-1.55,1.69-3.05,3.44l.76.66c1.72-2,3.51-4,5.33-5.9l-.72-.69Zm-10.43,12.13q-1.95,2.51-3.8,5.09h0l0,0v0l0,0,0,0h0l0,0h0l0,0h0l0,0h0l0,0h0l0,0h0l0,0h0c-.22.3-.43.61-.65.92l.82.57c1.51-2.16,3.1-4.32,4.72-6.4l-.79-.61Zm-9.16,13.11c-.09.14-.18.28-.26.42h0l0,0h0l0,0h0l0,0v0l0,0v0l0,0,0,0v0l0,0v0l0,0h0c-.78,1.27-1.54,2.54-2.29,3.83h0l0,.05h0l0,0h0l0,0h0l0,0v0l0,0v0l0,0,0,0v0l0,0v0l0,0h0l0,0v0l0,0h0c-.32.56-.64,1.12-.95,1.68l.87.49c1.28-2.3,2.65-4.6,4-6.84l-.85-.53Zm-7.79,14c-1.18,2.39-2.29,4.8-3.35,7.26l.92.4c1-2.43,2.16-4.85,3.33-7.22l-.9-.44Zm-6.33,14.68c-.23.63-.46,1.25-.68,1.88h0l0,.06h0l0,.05h0l0,.05h0v.05h0v.05h0v.3l0,0v0l0,0v.17l0,0v0l0,0h0l0,0h0l0,0h0l0,.05h0l-.08.22h0l0,.11h0v0h0v.22h0v.05h0v.05h0v.47l0,0v0l0,0v.14l0,0V265l0,0v0l0,0v.09l0,0h0c0,.1-.07.2-.1.3h0l0,.06h0l0,.06h0l0,.06h0l0,.06h0l0,.06h0l0,.05h0l0,.05h0l0,.05h0l0,.05h0l0,.05h0l0,.05h0c-.2.62-.4,1.23-.59,1.85l1,.3c.79-2.51,1.66-5,2.58-7.52l-.94-.35Zm-4.8,15.26c-.39,1.53-.77,3.06-1.12,4.61h0v.06h0l0,.06h0v.06h0v.06h0l0,.05h0v.05h0l0,.05h0v.05h0v.06h0l0,.06h0V281h0v.06h0l0,.06h0v.06h0v.05h0l0,.05h0v.05h0v.05h0v.05h0v0h0v0h0v0h0l0,.12h0v0h0v0h0V282s0,0,0,0l0,0h0v.05h0v.06h0l0,.12v.11h0v.07l0,.11h0l0,.06h0v.06h0v.05h0v.06h0l0,.12h0l-.12.56,1,.2c.53-2.58,1.14-5.19,1.8-7.74l-1-.25Zm-3.22,15.67c-.4,2.62-.74,5.27-1,7.93l1,.1c.27-2.62.61-5.28,1-7.88l-1-.15Zm-1.62,15.91c-.06,1.11-.1,2.23-.14,3.35h0v.05h0v.52h0v.05h0v.06h0v.06h0v.05h0v.06h0c0,1.24-.05,2.48-.05,3.73h1c0-2.65.07-5.32.21-8l-1,0Zm1,15.94-1,0c.13,2.68.32,5.34.59,8l1-.1c-.26-2.62-.45-5.29-.58-7.93Zm1.56,15.82-1,.15c.32,2.17.69,4.31,1.1,6.45h0v.06h0v.06h0v.62h0v0h0v0h0v.05h0v.06h0v.06h0c0,.12,0,.25.08.37l1-.2c-.53-2.59-1-5.22-1.39-7.83Zm3.16,15.58-1,.24.18.71h0v.05h0l0,.05h0v.05h0v.05h0v.32h0v.05h0l0,.05h0l0,.06h0q.84,3.15,1.8,6.24l1-.3c-.78-2.52-1.51-5.09-2.17-7.64Zm4.73,15.17-.94.34c.93,2.51,1.91,5,3,7.43l.92-.39c-1-2.42-2-4.91-2.94-7.38Zm6.25,14.61-.9.44c.49,1,1,2,1.49,3h0l0,.05h0l0,.05h0l0,0v0l0,0v0l0,0v0l0,0v0l0,0v.05l0,0v0l0,0v.06l0,0v.05l0,0v0l0,0v0l0,0v0l0,0h0l0,0h0l.22.41h0l0,.05h0l0,.05h0l.06.11h0l0,.05h0l0,.05h0l0,.05h0l0,.05h0l.68,1.26h0c.14.27.29.53.43.79h0l0,0h0l0,.05h0l0,.05h0l0,0h0l0,0v0l0,0h0v0l.87-.48c-1.27-2.31-2.51-4.68-3.67-7Zm7.7,13.9-.85.53.26.41h0l0,.05h0l0,0v0l0,0v0l0,0v0l0,0h0l0,0h0l0,0h0l0,0v0l0,0v0l0,0v0l0,0v0l0,0v0l0,0v0l0,0h0l0,0h0l.11.18v0l0,0,0,0,0,0v0l0,0v0l0,0,0,0v0l0,0,0,0v0l0,0v0l0,0,0,0v0l0,0,0,0v0l0,0,0,0v0l0,0,0,0v0l0,0v0l0,0h0l0,0h0l0,0h0l.11.18h0l0,0h0l0,0h0l0,0h0l0,0v0l0,0v0l0,0v0l0,0v0l0,0v0l0,0v0l0,0v0l0,0v0l0,0v0l0,0h0l0,0h0l.25.39h0l0,0h0l0,0h0l0,0h0l0,0h0l0,0h0l0,0h0l0,0h0l0,0h0l0,0h0l0,0h0l0,0h0l0,.05h0c.14.22.28.43.43.64h0l0,.05h0l.07.1h0c.4.6.81,1.19,1.22,1.78l.82-.57c-1.51-2.17-3-4.4-4.37-6.64Zm9.07,13.05-.8.61c1.63,2.12,3.32,4.19,5,6.21l.76-.65c-1.72-2-3.4-4.08-5-6.17Zm10.33,12.08-.73.69h0l0,0,0,0,0,0,0,0,0,0,0,0h0l0,0h0l0,0v0l0,0h0l0,0h0l0,0h0l0,0h0l0,0h0q1.8,1.89,3.66,3.7h0l0,0h0l0,0h0l0,0h0l0,0,0,0,0,0,0,0,0,0,0,0,0,0,0,0,0,0,0,0,0,0,0,0,0,0,0,0,0,0,0,0h0l0,0h0l.27.26h0l0,0h0l.05,0h0l.09.08h0l.54.52.69-.72c-1.91-1.82-3.8-3.72-5.61-5.63Zm11.49,11-.65.76,1.09.93h0l.05,0h0l0,0h0l0,0h0l0,0h0l0,0h0l0,0h0l0,0h0l0,0h0l0,0,0,0,0,0,0,0,0,0,0,0h0l.07.06h0l0,0h0l0,0h0l0,0h0l0,0h0l0,0h0l0,0,0,0,0,0v0l0,0h0l0,0h0l0,0h0l0,0h0l0,0h0l0,0h0q1.92,1.59,3.89,3.12l.61-.79c-2.08-1.62-4.15-3.31-6.15-5Zm12.54,9.77L225,445c1.14.79,2.29,1.58,3.46,2.35h0l0,0h0l0,0h0l0,0h0l0,0,0,0h0l0,0,0,0,0,0h0l0,0h0l0,0h0l0,0h0l0,0h0l2.68,1.72.53-.85c-2.24-1.4-4.46-2.88-6.63-4.39ZM239,452.63l-.48.87c2.28,1.28,4.61,2.5,7,3.67h0l.06,0h0l0,0h0l.45-.89c-2.37-1.17-4.73-2.42-7-3.7Zm14.25,7-.4.91.67.29h0l.05,0h0l0,0h0l0,0h.11l0,0h.08l0,0h0l0,0h0l0,0h0l.05,0h0l.05,0h0l.06,0h0l2.08.86h0l0,0h0l0,0h0l0,0h.13l0,0h.16l0,0H257l0,0h0l.05,0h0l0,0h.07c1,.4,2,.8,3.07,1.18l.35-.93c-2.47-.93-5-1.93-7.37-3Zm14.89,5.55-.3,1c2.08.66,4.19,1.27,6.3,1.85h0l.11,0h.13l.05,0h.07l.05,0h0l.91.24.25-1c-2.55-.67-5.12-1.41-7.63-2.21Zm15.37,4-.2,1c2.6.54,5.23,1,7.87,1.43l.16-1c-2.61-.4-5.24-.88-7.83-1.41Zm15.71,2.42-.1,1,1.48.15h.58q2.94.25,5.91.42l.06-1c-2.64-.14-5.31-.35-7.93-.62Zm23.82.66c-2.49.12-5,.18-7.52.18h-.43v1h2c2,0,4-.07,6-.17l-.05-1Zm15.82-1.54c-2.61.39-5.26.71-7.89,1l.1,1q4-.39,7.94-1l-.15-1Zm15.58-3.14c-2.56.65-5.16,1.25-7.75,1.77l.2,1c2.62-.53,5.22-1.13,7.8-1.78l-.25-1Zm15.18-4.71c-2.48.91-5,1.77-7.53,2.55l.29.95,2.15-.68h0l.05,0h0l.05,0h0l0,0h0l0,0h.82l0,0h0l0,0h0l0,0h.3l.45-.15h0l.06,0h0l.05,0h0l.05,0h0l.05,0h.81l.05,0h0c.8-.27,1.6-.56,2.39-.85l-.34-.94Zm14.62-6.23c-2.38,1.16-4.81,2.27-7.23,3.3l.39.92q3.18-1.35,6.29-2.84h0l.05,0h0l0,0h0l0,0h0l.05,0h0l0,0h0l0,0h.07l0,0h0l0,0h0l0,0h0l0,0h0l0,0h.06l0,0h0l.05,0h.08l0,0h0l0,0h0l-.43-.9ZM398.13,449c-2.24,1.39-4.55,2.75-6.86,4l.48.88,1.26-.71h0l0,0,0,0,0,0h.06l0,0,0,0h0l0,0h0l0,0h0l0,0h0l0,0h0l0,0h0l0,0h0l0,0h0l0,0h0l.05,0h0l.77-.44h0l.05,0h0l.05,0h0l.05,0h0l.88-.51h0l0,0h0l.05,0h0l.05,0h0l0,0h0l0,0h0l0,0h0l0,0h0l0,0h0l0,0h0l0,0h0l.35-.2h0l0,0h0l0,0h0l0,0h0l0,0,0,0h0l0,0h0l0,0,0,0h0l0,0h0l0,0h0l0,0h0l0,0,0,0h0l0,0h0l0,0,0,0h0l0,0,0,0h0l0,0h0l.05,0h0l.05,0h0l.1-.06h0l0,0h0l0,0h0l0,0h0l0,0,0,0,0,0h0l0,0h0l0,0h0l0,0,0,0h0l0,0,0,0h0l0,0h0l0,0h0l0,0,0,0h0l0,0,0,0h0l0,0h0l0,0h0l0,0,.13-.08h0l0,0h0l0,0h0l-.53-.85Zm13.06-9c-2.09,1.61-4.25,3.18-6.41,4.68l.57.83,1.43-1h0l.05,0h0l0,0h0l0,0h0l0,0h0l0,0v0l0,0h0l0,0,0,0,0,0,0,0h0l0,0,0,0,0,0h0l0,0,0,0,0,0h0l0,0h0l.43-.31h0l.05,0h0l.1-.07h0l0,0h0l.05,0h0l1.72-1.26h0l0,0h0l0,0h0l0,0h0l0,0h0l0,0h0l0,0h0l0,0h0l0,0h0l0,0h0l0,0h0l0,0h0l0,0,0,0h0l0,0h0l0,0h0l0,0h0l0,0h0l0,0h0l0,0h0l.05,0h0l1-.75-.61-.79Zm12.09-10.32c-1.92,1.81-3.91,3.6-5.91,5.31l.65.76q1.75-1.5,3.47-3.05h0l.05-.05h0l0,0h0l0,0h0l.05,0h0l.09-.09h0l.37-.33h0l0,0h0l0,0v0l0,0h0l0,0h0l0,0h0l0,0h0l0,0,0,0,0,0v0l0,0,0,0,0,0v0l0,0h0l0,0h0l0,0h0l.09-.09h0l0,0,0,0,0,0v0l0,0,0,0,0,0,0,0,0,0,0,0,0,0h0l0,0,0,0,0,0,0,0,0,0,0,0,0,0,0,0,0,0,0,0,0,0,0,0,0,0,0,0,0,0,0,0,0,0,0,0,0,0,0,0,0,0,.07-.06h0l0,0v0l0,0,0,0,0,0,0,0,0,0,0,0,0,0,0,0,0,0h0l0,0,0,0h0l-.69-.72Zm11-11.48c-1.72,2-3.52,4-5.35,5.88l.72.69c1.85-1.93,3.64-3.9,5.39-5.92l-.76-.65Zm9.78-12.53c-1.51,2.16-3.1,4.31-4.73,6.39l.79.61q2.46-3.15,4.76-6.42l-.82-.58Zm8.47-13.45c-1.29,2.3-2.66,4.6-4.06,6.83l.84.54q1.54-2.46,3-5h0l0,0v0l0,0h0l0,0h0l0,0v0l0,0,0,0v0l0,0v0l0,0v0l0,0h0l0-.05h0c.27-.46.54-.94.8-1.41l-.87-.49ZM459.58,378c-1.05,2.41-2.17,4.84-3.35,7.2l.9.45c1.18-2.38,2.31-4.81,3.37-7.26l-.92-.39Zm5.58-14.88c-.8,2.51-1.67,5-2.6,7.51l.94.35v0h0l0,0h0v-.1h0l0-.05h0l0,0v0l0,0h0l0-.05h0l0-.05h0l0,0h0v-.05h0v-.1h0l0-.05h0l0-.05h0l0,0h0l0-.05h0l0-.05h0l0-.06h0l0-.05h0q1.14-3.09,2.14-6.24h0l0-.05h0l0,0h0v-.05h0v0l-.95-.3Zm4-15.38c-.54,2.59-1.15,5.19-1.82,7.74l1,.26c.34-1.29.66-2.58,1-3.88h0v-.05h0v-.05h0l0-.05V351h0v-.05h0v-.05h0v-.05h0v-.05h0v-.05h0v-.05h0v-.05h0v0h0v0h0v0h0v0h0v0h0v-.05h0v-.05h0l.27-1.24v-.51h0v0h0v0h0v-.05h0v-.06h0l0-.18-1-.21Zm2.45-15.7c-.27,2.63-.62,5.28-1,7.88l1,.16c.07-.41.13-.81.19-1.22h0v-.06h0v-.56h0v-.05h0v-.05h0V338h0V338h0v-.06h0v-.06h0c.27-1.89.51-3.8.71-5.71l-1-.11Zm.86-15.87c0,2.64-.09,5.32-.23,7.95l1,.05,0-.68h0v-.06h0v-.05h0v-.77h0v-.05h0v-.06h0v-.06h0v-.05h0v-.06h0v-.06h0v-.06h0v-.06h0V322h0v-.13h0v-.25h0c0-.42,0-.85.05-1.27h0v-.54h0v0h0v-.12h0v0h0v-.06h0v-.06h0v0h0v-.06h0v-.06h0v-.06h0v-.06h0c0-.91,0-1.83,0-2.75h0v-.18Zm.27-16-1,.09c.25,2.62.44,5.29.56,7.93l1,0c0-.39,0-.78-.06-1.16h0v-.06h0v-.06h0v-.06h0v-.06h0v-.05h0v-2.94h0v-.49h0v-.12h0v0h0v0h0v-.06h0v0h0v0h0v0h0v-.06h0v0h0v0h0v0h0v-.38h0c-.06-.64-.11-1.28-.17-1.91Zm-2.34-15.82-1,.19c.52,2.59,1,5.22,1.36,7.83l1-.14-.27-1.74h0v-.06h0v-.06h0v-.05h0v-.05h0v-.88h0v-.05h0v-.05h0v-.05h0v-.05h0v-.05h0V289h0v-.06h0v-.06h0l-.36-2h0v-.05h0v-.05h0v-.05h0v-.56h0v-.05h0V286h0v-.05h0v-.06h0v-.06h0c-.1-.49-.19-1-.29-1.46Zm-3.93-15.51-1,.3c.78,2.52,1.5,5.09,2.15,7.65l1-.25c-.66-2.59-1.38-5.15-2.16-7.7Zm-5.49-15-.92.39c1,2.43,2,4.92,2.92,7.39l.93-.34c-.35-1-.72-1.94-1.09-2.91h0l0-.05h0l0,0v-.06h0l0,0v0l0,0v-.19l0,0v-.17l0,0v0l0-.05h0l0-.05h0c-.49-1.24-1-2.48-1.51-3.7Zm-7-14.38-.88.48c1.27,2.31,2.5,4.68,3.66,7.06l.9-.44-.64-1.29h0l0-.05h0l0-.05h0l0,0h0l0,0v0l0,0v-.05l0,0v0q-1.06-2.13-2.19-4.23h0l0,0h0l0,0h0l0,0v0l0,0v0l0,0v0l0,0v0l0,0,0,0v0l0,0h0l-.42-.76Zm-8.41-13.61-.82.57c1.49,2.17,3,4.41,4.35,6.65l.85-.52c-.35-.57-.7-1.12-1.06-1.69h0l0,0h0v0l0,0,0,0v0l0,0,0,0v0l0,0h0l0,0h0l0,0h0l0-.05h0c-1-1.55-2-3.07-3-4.58Zm-9.74-12.68-.76.64c1.71,2,3.39,4.09,5,6.18l.79-.6c-.9-1.17-1.8-2.32-2.73-3.46h0l-.37-.45h0l0,0h0l0,0v0l0,0,0,0,0,0,0,0,0,0,0,0,0,0,0,0,0,0,0,0v0l0,0h0l0,0h0l0,0h0l0,0h0l0,0h0c-.47-.58-1-1.15-1.44-1.72Zm-11-11.65-.69.73c1.9,1.82,3.79,3.72,5.59,5.64l.73-.68h0l-.3-.32h0l0,0h0l0,0h0l0,0h0l0,0h0l0,0v0l0,0h0l0,0h0l0,0h0l0,0h0l0,0h0l0,0h0l0,0h0l0,0h0l-.17-.18h0l0,0h0l0,0h0l0,0v0l0,0,0,0,0,0h0l0,0,0,0,0,0h0l0,0,0,0,0,0,0,0,0,0,0,0,0,0v0l0,0h0l0,0v0l0,0h0l0,0h0l-.13-.14h0l0,0h0l0,0h0l0,0h0l0,0,0,0,0,0h0l0,0,0,0,0,0,0,0,0,0h0l0,0v0l0,0h0l0,0h0l0,0h0l0,0h0l0,0h0l-.26-.26h0l0,0h0l0,0h0l0,0h0l0,0h0l0,0h0l0,0h0l-.05,0h0c-.86-.87-1.74-1.74-2.63-2.59ZM412.82,191l-.61.79c2.07,1.63,4.14,3.33,6.13,5.06l.65-.76c-1-.84-2-1.68-2.95-2.5h0l0,0h0l0,0h0l0,0h0l0,0v0l0,0v0l0,0,0,0,0,0,0,0,0,0h0l0,0h0l0,0h0l0,0,0,0,0,0,0,0,0,0,0,0,0,0,0,0,0,0h0l0,0,0,0,0,0,0,0,0,0,0,0,0,0,0,0,0,0,0,0h0l0,0h0l0,0h0l0,0,0,0,0,0v0l0,0h0l0,0h0l0,0h0l0,0h0l0,0h0l-.32-.25h0l0,0h0l0,0h0l0,0h0l0,0h0l0,0h0l0,0h0l0,0h0l0,0h0l0,0h0l0,0h0l0,0h0l-.46-.36h0l-.05,0h0l0,0h0l0,0h0l-.05,0h0l0,0h0l0,0h0l0,0h0l0,0h0l-.13-.1Zm-13.07-9.21-.54.85c2.23,1.4,4.46,2.89,6.62,4.41l.57-.82q-1.87-1.32-3.8-2.59h0l0,0h0l0,0h0l0,0h0l0,0h0l0,0h0l0,0h0l0,0h0l0,0h0l0,0h0l0,0h0l-.18-.12h0l0,0h0l0,0,0,0h0l0,0h0l0,0h0l0,0h0l0,0h0l0,0h0l0,0h0l0,0h0l-.05,0h0l-.05,0h0l-1.58-1ZM385.81,174l-.45.89c2.37,1.18,4.73,2.43,7,3.72l.49-.87q-3.48-2-7.07-3.74Zm-14.66-6.39-.35.93c2.46.93,4.94,1.94,7.36,3l.4-.91c-1.28-.56-2.56-1.1-3.85-1.62h0l-.05,0h0l-.05,0h0l0,0h-.11l0,0h-.14l0,0h0l0,0h0l-.05,0h0c-1-.39-2-.77-3-1.14Zm-15.24-4.86-.25,1c2.55.68,5.12,1.42,7.63,2.23l.3-1c-1.76-.56-3.52-1.09-5.3-1.59h-.12l-.05,0h-.94l-.05,0H357l-1.09-.29Zm-15.65-3.29-.15,1c2.6.41,5.23.89,7.81,1.43l.21-1H348l-.37-.08H344c-1.25-.23-2.51-.44-3.77-.64Zm-15.9-1.69-.06,1c2.64.15,5.3.36,7.92.64l.11-1c-.95-.1-1.9-.2-2.85-.28H327l-2.61-.17Zm-8.86-.24v1h.86v-1h-.86Z" fill="#00adee"/><g opacity="0.1"><path d="M315.5,1A314.58,314.58,0,0,1,437.92,605.29,314.59,314.59,0,0,1,193.08,25.71,312.73,312.73,0,0,1,315.5,1m0-1C141.25,0,0,141.25,0,315.5S141.25,631,315.5,631,631,489.75,631,315.5,489.75,0,315.5,0Z" fill="#00adee"/></g></g></g></svg>