<?xml version="1.0" encoding="utf-8"?>
<!-- Generator: Adobe Illustrator 23.0.3, SVG Export Plug-In . SVG Version: 6.00 Build 0)  -->
<svg version="1.1" id="Слой_1" xmlns="http://www.w3.org/2000/svg" xmlns:xlink="http://www.w3.org/1999/xlink" x="0px" y="0px"
	 viewBox="0 0 631 631" style="enable-background:new 0 0 631 631;" xml:space="preserve">
<style type="text/css">
	.st0{fill:#00ADEE;}
	.st1{opacity:0.1;}
	.st2{fill:url(#SVGID_1_);}
	.st3{fill:#FFFFFF;}
</style>
<title>Ресурс 1</title>
<g>
	<g id="Слой_1-2">
		<path class="st0" d="M315.5,78.5h-2.8c-1.7,0-3.4,0-5,0.1h-0.1v1c2.6-0.1,5.3-0.1,8-0.1V78.5L315.5,78.5z M299.5,79
			c-1.3,0.1-2.6,0.2-3.8,0.3h-0.2h-0.2h-2.9l-0.8,0.1l0.1,1c2.6-0.3,5.3-0.5,7.9-0.7l-0.1-1V79z M283.6,80.6h-0.3h-0.1h-0.1H283h0
			h-0.1h-0.1h-0.1h-0.1h-0.4l0,0h-0.2l0,0h-0.2l0,0h-0.2l0,0h-0.2l0,0h-0.2l0,0h-0.2l0,0H281l0,0h-0.2l0,0h-0.2l0,0h-0.2l0,0h-0.2
			l0,0h-0.2l0,0H280h-1.3h-0.1h-0.1h-0.2l0,0l-2.4,0.4l0.2,1c2.6-0.4,5.3-0.8,7.9-1.2l-0.1-1L283.6,80.6z M267.8,83.3
			c-2.6,0.5-5.2,1.1-7.8,1.7l0.2,1c2.6-0.6,5.2-1.2,7.8-1.7L267.8,83.3L267.8,83.3z M252.3,87l-1.7,0.5l0,0l-0.2,0.1l0,0h-0.1l0,0
			l-0.2,0.1l0,0h-0.1l0,0h-0.1l0,0h-0.1l0,0h-0.1l0,0h-0.1l0,0h-0.1l0,0h-0.1l0,0h-0.1l0,0h-0.1l0,0h-0.1l0,0h-0.1l0,0H249l0,0h-0.1
			l0,0h-0.1l0,0h-0.1l0,0h-0.1l0,0h-0.1l0,0l-0.2,0.1l0,0h-0.1l0,0h-0.1l0,0H248l0,0h-0.1l0,0h-0.1l0,0h-0.1l0,0l-0.2,0.1l0,0h-0.1
			l0,0l-0.2,0.1l0,0l-1.7,0.5l0,0h-0.1l0.3,0.9c2.5-0.8,5.1-1.5,7.6-2.3l-0.3-1L252.3,87z M237,91.8c-1.2,0.4-2.4,0.8-3.5,1.3l0,0
			l-0.2,0.1l0,0h-0.1l0,0h-0.1l0,0h-0.1l0,0h-0.1l0,0h-0.1l0,0h-0.1h-0.1h-0.1l0,0h-0.1h-0.1l0,0h-0.1l0,0h-0.1h-0.1h-0.1l0,0h-0.1
			l0,0H232l0,0H232l0,0h-0.1h-0.1h-0.1l0,0h-0.1h-0.1h-0.1L231,94l0,0h-0.1l0,0h-0.1l0,0h-0.1l0,0l-0.2,0.1l0,0l-0.9,0.4l0.4,0.9
			c2.5-1,5-1.9,7.5-2.8l-0.3-0.9L237,91.8z M222.1,97.6c-2.5,1-4.9,2.1-7.3,3.3l0.4,0.9c2.4-1.1,4.8-2.2,7.3-3.3L222.1,97.6
			L222.1,97.6z M207.6,104.4c-2.4,1.2-4.7,2.5-7.1,3.8l0.5,0.9c2.3-1.3,4.7-2.5,7-3.8L207.6,104.4L207.6,104.4z M193.6,112.2
			l-1.6,0.9l0,0H192l0,0l-0.1,0.1l0,0h-0.1l0,0l-0.2,0.1l0,0h-0.1l0,0h-0.1l0,0h-0.1l0,0h-0.1l0,0h-0.1l0,0h-0.1l0,0h-0.1l0,0h-0.1
			l0,0l-0.2,0.1l0,0h-0.1l0,0l-0.1,0.1l0,0h-0.1l0,0l-0.2,0.1l0,0h-0.1l0,0l-0.1,0.1l0,0h-0.1l0,0l-0.2,0.1l0,0l-0.3,0.2l0,0
			l-0.2,0.1l0,0l-0.5,0.3l0,0l-0.3,0.2l0,0l-0.2,0.1l0,0l-0.3,0.2l0,0l-0.2,0.1l0,0h-0.1l0,0l-0.1,0.1l0,0h-0.1l0,0h-0.1h-0.1l0,0
			l0.6,0.8c2.2-1.4,4.5-2.9,6.8-4.2l-0.5-0.9L193.6,112.2z M180.2,120.9c-1.3,0.9-2.7,1.9-4,2.8l0,0l-0.2,0.1l0,0l-0.1,0.1l0,0
			l-0.1,0.1l0,0h-0.1l0,0l-0.1,0.1l0,0h-0.1l0,0h-0.1l0,0l-0.1,0.1h-0.1l0,0h-0.1l0,0l-0.1,0.1l0,0h-0.1l0,0l-0.2,0.1l0,0l-1.1,0.8
			l0.6,0.8c2.1-1.6,4.3-3.2,6.4-4.7l-0.6-0.8L180.2,120.9z M167.4,130.5L167.4,130.5L167.4,130.5l-0.1,0.1l0,0h-0.1l0,0l-0.2,0.1
			l0,0c-1.4,1.2-2.9,2.3-4.3,3.5l0,0h-0.1l0,0l-0.1,0.1l0,0l0,0l0,0l0,0l-0.1,0.1l0,0l-0.1,0.1l0,0l-1,0.8l0.7,0.8
			c2-1.7,4.1-3.4,6.1-5.1l-0.6-0.8L167.4,130.5z M155.2,140.9c-2,1.8-3.9,3.6-5.8,5.5l0.7,0.7c1.9-1.9,3.8-3.7,5.8-5.5L155.2,140.9z
			 M143.8,152.1c-1.1,1.1-2.1,2.2-3.1,3.3l0,0l-0.2,0.2l0,0v0.1l0,0l-0.1,0.1l0,0v0.1l0,0l0,0l-0.1,0.1l0,0l0,0l0,0l-0.1,0.1l0,0
			l-0.1,0.1l0,0l-0.1,0.1l0,0l-0.1,0.1l0,0l-0.1,0.1l0,0l-0.2,0.2l0,0l-1.4,1.6l0.8,0.7c1.8-2,3.6-3.9,5.4-5.9L143.8,152.1
			L143.8,152.1z M133.2,164c-1.7,2.1-3.4,4.1-5,6.2l0.8,0.6c1.6-2.1,3.3-4.2,5-6.2L133.2,164L133.2,164z M123.4,176.6L123.4,176.6
			l-0.1,0.2l0,0l-0.1,0.1l0,0l-0.1,0.1l0,0l-0.1,0.1l0,0l-0.1,0.1l0,0l-0.1,0.1l0,0l-0.1,0.1l0,0l-0.1,0.1l0,0v0.1l0,0l-0.1,0.1l0,0
			v0.1l0,0v0.1l0,0l-0.1,0.1l0,0v0.1l0,0v0.1v0.1l0,0v0.1l0,0l-0.1,0.1l0,0v0.1l0,0l0,0l0,0l-0.1,0.1l0,0v0.1l0,0l-0.1,0.2l0,0v0.1
			l0,0l-0.1,0.1l0,0v0.1l0,0l-0.1,0.2l0,0v0.1l0,0l-0.1,0.1l0,0v0.1l0,0l-0.1,0.1l0,0v0.1l0,0v0.1l0,0l-0.1,0.1v0.1l0,0v0.1l0,0
			l-0.1,0.1l0,0v0.1l0,0l-0.1,0.1l0,0v0.1l0,0v0.1l0,0l-0.1,0.1l0,0l-0.1,0.1l0,0l-0.1,0.2l0,0l-1.2,1.8l0.8,0.6
			c1.5-2.2,3-4.4,4.6-6.5l-0.8-0.6L123.4,176.6z M114.4,190c-0.6,1-1.3,2.1-1.9,3.1l0,0l-0.1,0.2l0,0l-0.1,0.1l0,0l-0.1,0.1l0,0
			l-0.1,0.1l0,0l-0.1,0.2l0,0v0.1l0,0v0.1l0,0v0.1l0,0v0.1l0,0v0.1l0,0v0.1l0,0v0.1l0,0l0,0l0,0v0.1v0.1l0,0v0.1l0,0l0,0l0,0
			l-0.1,0.1l0,0v0.1l0,0l-0.1,0.1l0,0v0.1l0,0l-0.1,0.2l0,0v0.1l0,0l-0.1,0.2l0,0l-0.1,0.2l0,0l-0.3,0.6l0.9,0.5
			c1.3-2.3,2.7-4.6,4.1-6.8l-0.8-0.5L114.4,190z M106.4,203.8l-0.1,0.2l0,0c-0.5,0.9-1,1.9-1.5,2.8l0,0c-0.1,0.1-0.1,0.2-0.2,0.3
			l0,0c-0.1,0.2-0.2,0.4-0.3,0.6l0,0c0,0.1-0.1,0.2-0.2,0.3l0,0c-0.5,1-1,2-1.5,3l0.9,0.4c1.2-2.4,2.4-4.8,3.6-7.1L106.4,203.8
			L106.4,203.8z M99.4,218.2l-0.3,0.7l0,0l-0.1,0.2l0,0v0.1l0,0l-0.1,0.1l0,0v0.1l0,0v0.1l0,0v0.1v0.1l0,0v0.1v0.1v0.1l0,0v0.1l0,0
			v0.1l0,0v0.1l0,0v0.1l0,0v0.1l0,0v0.1l0,0l-0.1,0.2l0,0v0.1l0,0v0.1l0,0v0.1l0,0v0.1l0,0v0.1l0,0v0.1l0,0l-0.1,0.2l0,0v0.1l0,0
			v0.1l0,0v0.1l0,0l-0.1,0.2l0,0v0.1l0,0v0.1l0,0v0.1l0,0v0.1l0,0v0.1l0,0v0.1l0,0v0.1l0,0v0.1l0,0v0.1l0,0v0.1l0,0v0.1l0,0v0.1v0.1
			v0.1v0.1l0,0v0.1l0,0v0.1l0,0v0.1l0,0l-0.1,0.2l0,0c-0.1,0.3-0.3,0.7-0.4,1l0.9,0.4c1-2.4,2.1-4.9,3.2-7.3l-0.9-0.4L99.4,218.2z
			 M93.3,233l-0.6,1.6l0,0l-0.1,0.2l0,0v0.1l0,0v0.1l0,0v0.1l0,0v0.1l0,0v0.1l0,0v0.1l0,0l-0.1,0.2l0,0v0.1l0,0v0.1l0,0v0.1l0,0v0.1
			l0,0v0.1l0,0v0.1l0,0l-0.1,0.2l0,0v0.1l0,0l-0.1,0.2l0,0c-0.4,1.1-0.8,2.3-1.2,3.4l0,0l0.9,0.3c0.8-2.5,1.7-5,2.7-7.5l-0.9-0.4
			L93.3,233z M88.2,248.2l-0.1,0.3l0,0v0.1l0,0l-0.1,0.2l0,0v0.1v0.1v0.1v0.1l0,0v0.1l0,0v0.1l0,0v0.1l0,0v0.1l0,0v0.1l0,0v0.1l0,0
			l-0.1,0.2l0,0v0.1l0,0c-0.5,1.9-1.1,3.8-1.6,5.7l1,0.3c0.7-2.6,1.4-5.1,2.1-7.7l-1-0.3L88.2,248.2z M84.2,263.6
			c-0.6,2.6-1.1,5.2-1.6,7.8l1,0.2c0.5-2.6,1-5.2,1.6-7.8L84.2,263.6z M81.2,279.4c-0.4,2.6-0.8,5.3-1.1,7.9l1,0.1
			c0.3-2.6,0.7-5.3,1.1-7.9L81.2,279.4L81.2,279.4z M79.4,295.2c-0.1,1.5-0.2,3-0.3,4.5l0,0v0.7l0,0c-0.1,0.9-0.1,1.8-0.2,2.8l1,0
			c0.1-2.6,0.3-5.3,0.5-8L79.4,295.2L79.4,295.2z M78.5,311.2v2.2l0,0v0.2l0,0v1.3l0,0v0.2l0,0v1.5l0,0v0.2l0,0v0.3l0,0
			c0,0.1,0,0.2,0,0.3l0,0v0.3l0,0v1l0,0c0,0.2,0,0.4,0,0.5h1c0-1.2,0-2.5,0-3.7c0-1.4,0-2.9,0-4.3L78.5,311.2L78.5,311.2z
			 M79.8,327.2h-1c0.1,1.4,0.2,2.7,0.2,4.1l0,0v0.2l0,0v0.2l0,0v0.3l0,0v1.1l0,0v0.2l0,0c0,0.6,0.1,1.3,0.1,1.9l1-0.1
			c-0.2-2.6-0.4-5.3-0.5-8L79.8,327.2z M81.1,343l-1,0.1c0.1,0.9,0.2,1.7,0.3,2.6l0,0v0.2v0.3l0,0v0.1l0,0v0.1l0,0
			c0.2,1.5,0.4,3.1,0.7,4.6l1-0.1C81.7,348.2,81.3,345.6,81.1,343L81.1,343z M83.5,358.8l-1,0.2c0.1,0.5,0.2,1,0.3,1.5l0,0v0.3v0.1
			l0,0v0.2l0,0c0.2,1.2,0.5,2.4,0.7,3.6l0,0v0.1l0,0v0.3v0.1v0.1l0,0c0.1,0.5,0.2,1,0.3,1.6l1-0.2c-0.6-2.6-1.1-5.2-1.6-7.8
			L83.5,358.8z M86.9,374.3l-1,0.3c0.1,0.4,0.2,0.8,0.3,1.1l0,0l0.1,0.3l0,0v0.1l0,0l0.1,0.2l0,0v0.1v0v0.1v0.1v0.1v0v0.1v0v0.1v0.1
			v0.1l0,0v0.1l0,0v0.1l0,0v0.1l0,0v0.1l0,0v0.1l0,0l0.1,0.2l0,0v0.1l0,0v0.1l0,0v0.1l0,0v0.1l0,0v0.1l0,0v0.1l0,0l0.1,0.2l0,0v0.1
			l0,0l0.1,0.2l0,0c0.3,1,0.6,2,0.9,3l1-0.3c-0.8-2.5-1.5-5.1-2.1-7.7L86.9,374.3z M91.4,389.6l-1,0.3c0.2,0.5,0.3,1.1,0.5,1.6l0,0
			l0.1,0.3l0,0v0.1l0,0l0.1,0.2l0,0v0.1v0v0.1v0v0v0.1l0,0v0.1l0,0v0.1l0,0v0.1l0,0v0.1l0,0v0.1l0,0l0.1,0.2l0,0v0.1l0,0l0.1,0.2
			l0,0c0.4,1.3,0.9,2.5,1.3,3.8l0.9-0.3c-0.9-2.5-1.8-5-2.6-7.5L91.4,389.6z M96.9,404.5l-0.9,0.4c1,2.5,2.1,4.9,3.2,7.4l0.9-0.4
			C98.9,409.4,97.9,407,96.9,404.5z M103.4,419.1l-0.9,0.4l0.4,0.8l0,0l0.1,0.1l0,0v0.1l0,0l0.1,0.1l0,0l0.1,0.2l0,0v0.1l0,0
			l0.1,0.1l0,0v0.1l0,0v0.1l0,0v0.1l0,0v0.1l0,0l0.1,0.1l0,0v0.1l0,0v0.1l0,0v0.1l0,0v0.1l0,0v0.1l0,0v0.1l0,0l0.1,0.2l0,0v0.1l0,0
			l0.1,0.2l0,0c0.7,1.3,1.3,2.5,2,3.8l0.9-0.5c-1.2-2.3-2.5-4.7-3.6-7.1L103.4,419.1z M110.9,433.1l-0.9,0.5l0,0l0.1,0.1l0,0
			l0.1,0.1l0,0l0.1,0.1l0,0v0v0.1v0v0.1l0,0c0.6,1.1,1.3,2.2,1.9,3.2l0,0l0.1,0.2l0,0v0.1l0,0l0.1,0.2l0,0v0.1l0,0l0.1,0.1l0,0v0
			l0,0v0v0.1l0,0v0l0,0v0.1l0,0v0.1l0,0v0.1l0,0l0.1,0.1l0,0v0.1l0,0v0.1l0,0v0.1l0,0v0.1l0,0l0.1,0.1l0,0v0.1l0,0l0.1,0.1l0,0
			l0.1,0.1l0,0v0.1l0,0v0.1l0,0v0.1l0,0v0.1v0v0.1v0l0,0l0,0l2.4,0.4C113.6,437.8,112.2,435.5,110.9,433.1L110.9,433.1z
			 M119.3,446.7l-0.8,0.6l0,0l0.1,0.1l0,0l0.1,0.1l0,0l0.1,0.1l0,0l0.1,0.1l0,0l0.1,0.1l0,0v0.1l0,0l0.1,0.1l0,0v0.1l0,0l0.1,0.1
			l0,0v0.1l0,0v0.1l0,0l0.1,0.1l0,0v0.1l0,0v0.1l0,0v0.1l0,0v0.1l0,0v0.1l0,0v0l0,0l0.1,0.1l0,0v0.1l0,0v0v0v0.1l0,0v0l0,0v0.1v0.1
			l0,0l0,0l0,0v0.1v0v0l0,0v0l0,0l0.1,0.1l0,0v0l0,0l0.1,0.1l0,0v0.1l0,0l0,0l0,0l0.1,0.1l0,0v0.1l0,0l0.1,0.1l0,0v0l0,0v0.1l0,0
			l0.1,0.1l0,0v0.1l0,0l0.1,0.1l0,0l0,0l0,0v0.1l0,0l0.1,0.1l0,0v0.1l0,0l0.1,0.1l0,0v0.1l0,0l0.1,0.2l0,0v0.1l0,0l0.1,0.1l0,0v0.1
			l0,0l0.1,0.2l0,0v0.1l0,0l0.2,0.2l0,0l0.2,0.2l0,0l0.3,0.5l0.8-0.6c-1.6-2.1-3.1-4.3-4.6-6.5L119.3,446.7z M128.6,459.6l-0.8,0.6
			l0.1,0.1l0,0l0.1,0.2l0,0l0.1,0.1l0,0l0.1,0.1l0,0l0.1,0.1l0,0v0.1l0,0l0.1,0.1l0,0v0l0,0l0.1,0.1l0,0l0,0l0,0l0,0l0.1,0.1l0,0
			l0,0l0,0l0.1,0.2l0,0l0.1,0.1l0,0l0.1,0.1l0,0l0.1,0.1l0,0l0.1,0.2l0,0l0.2,0.3l0,0l1.9,2.4l0,0c0.1,0.1,0.2,0.2,0.2,0.3l0,0
			l0.2,0.2l0,0l0.1,0.1l0,0l0.1,0.1l0,0v0.1l0,0l0.1,0.2l0,0l0,0l0,0l0.1,0.1l0,0v0l0,0l0,0l0.1,0.1l0,0l0,0l0,0l0.1,0.1l0,0
			l0.8-0.6c-1.7-2-3.4-4.1-5-6.2L128.6,459.6z M138.7,471.9l-0.8,0.7l0,0l0.1,0.1l0,0l0.1,0.1l0,0l0.1,0.1l0,0l0.1,0.1l0,0l0.2,0.2
			l0,0c1,1.1,2.1,2.3,3.1,3.4l0,0l0.3,0.3l0,0l0.2,0.2l0,0l0.2,0.2l0,0l0.1,0.1l0,0l0.1,0.1l0,0l0.1,0.1l0,0l0.2,0.2l0,0l0.1,0.1
			l0,0l0.1,0.1l0,0l0.1,0.1l0,0l0.1,0.2l0,0l0.1,0.1l0,0l0.1,0.1l0,0l0.1,0.1l0,0l0.1,0.1l0,0l0.7-0.7c-1.8-1.9-3.6-3.9-5.4-5.9
			L138.7,471.9z M149.7,483.4l-0.7,0.7l0.1,0.1l0,0l0.1,0.1l0,0l0.1,0.1l0,0v0l0,0l0,0l0,0l0.1,0.1l0,0l0,0l0,0v0h0.1l0,0l0,0l0,0
			l0.1,0.1l0,0l0.1,0l0,0l0.1,0.1l0,0l0.1,0.1l0,0l0.1,0.1l0,0l0.1,0.1l0,0l0.1,0.1l0,0l0.2,0.2l0,0l0.2,0.2l0,0l0.1,0.1l0,0
			l2.4,2.3l0,0l0.2,0.2l0,0l0.2,0.2l0,0l0.1,0.1l0,0l0.2,0.1l0,0l0.1,0.1l0,0l0.1,0.1l0,0l0,0l0,0l0,0l0.1,0.1l0,0l0.1,0l0,0
			l0.3,0.3l0.7-0.7c-2-1.8-3.9-3.6-5.8-5.5L149.7,483.4z M161.4,494.3l-0.6,0.8l1,0.9l0,0l0.2,0.2l0,0l0.1,0.1l0,0l0.1,0.1l0,0
			l0.1,0.1l0,0l0.1,0.1l0,0l0.1,0.1l0,0l0.1,0.1l0,0l0.1,0.1l0,0l0.1,0l0,0l0.1,0.1l0,0l0.1,0.1l0,0l0.1,0l0,0l0.1,0.1l0,0l0.1,0
			l0,0l0.1,0.1l0,0l0.1,0.1l0,0l0.1,0.1l0,0l0.1,0.1l0,0l0.1,0.1l0,0l0.1,0.1l0,0l0.1,0.1l0,0l0.2,0.1l0,0l0.1,0.1l0,0l0.2,0.2l0,0
			l2.5,2.1l0.6-0.8c-2.1-1.7-4.1-3.4-6.1-5.1L161.4,494.3z M173.8,504.3l-0.6,0.8c2.1,1.6,4.3,3.2,6.5,4.7l0.6-0.8
			C178.1,507.4,175.9,505.8,173.8,504.3z M186.8,513.4l-0.6,0.8l0,0l0.2,0.1l0,0h0.1l0,0l0.1,0.1l0,0l0.1,0.1l0,0l0.2,0.1l0,0h0.1
			l0,0l0.1,0.1l0,0h0.1l0,0l0.2,0.1l0,0l0.1,0.1l0,0l0.1,0.1l0,0l0.1,0l0,0l0.1,0.1l0,0l0.1,0.1l0,0h0.1l0,0l0.1,0.1l0,0l0.1,0l0,0
			l0.1,0.1l0,0l0.1,0.1l0,0h0.1l0,0l0.1,0.1l0,0h0.1l0,0h0.1h0.1h0.1l0,0h0.1l0,0h0.1l0,0l0,0l0,0h0.1l0.1,0l0,0l0,0l0,0l0,0l0,0
			l0.1,0.1l0,0h0.1l0,0l0.1,0.1l0,0h0.1l0,0l0.2,0.1l0,0c0.1,0.1,0.2,0.1,0.3,0.2l0,0c0.8,0.5,1.5,0.9,2.3,1.4l0.5-0.8
			c-2.3-1.4-4.5-2.8-6.8-4.2L186.8,513.4z M200.4,521.6l-0.5,0.9l1.1,0.6l0,0l0.2,0.1l0,0h0.1l0,0l0.1,0h0.1l0,0h0.1l0,0l0.1,0.1
			l0,0h0.1l0,0c1.7,0.9,3.4,1.8,5.1,2.7l0.5-0.9c-2.4-1.2-4.7-2.5-7-3.8L200.4,521.6z M214.6,528.9l-0.4,0.9
			c1.2,0.6,2.4,1.1,3.6,1.7l0,0l0.2,0.1l0,0h0.1l0,0h0.1l0,0h0.1l0,0h0.1l0,0h0.1l0,0h0.1h0.1l0,0h0.1l0,0h0.1l0,0l0.2,0.1l0,0
			l2.2,1l0.4-0.9c-2.4-1-4.9-2.2-7.3-3.3L214.6,528.9z M229.2,535.3l-0.4,0.9l1.6,0.6l0,0l0.2,0.1l0,0h0.1h0.1h0.1h0.1l0,0h0.1l0,0
			h0.1l0,0h0.1l0,0l0.2,0.1l0,0h0.1l0,0c1.6,0.6,3.1,1.2,4.7,1.7l0.3-1c-2.5-0.9-5-1.8-7.5-2.8L229.2,535.3z M244.2,540.6l-0.3,1
			l1.1,0.3l0,0l0.3,0.1l0,0h0.1l0,0l0.2,0.1l0,0h0.1l0,0h0.1l0,0h0.1h0.1h0.1l0,0h0.1h0.1l0,0h0.1h0.1h0.1h0.1h0.1h0.1h0.1h0.1h0.1
			h0.1h0.1l0,0h0.1h0.1l0,0h0.1l0,0h0.1l0,0h0.1l0,0h0.1l0,0l0.2,0.1l0,0h0.1l0,0l0.2,0.1l0,0h0.1l0,0h0.2l0,0h0.1l0,0l0.2,0.1l0,0
			h0.1l0,0l0.2,0.1l0,0h0.1l0,0l0.3,0.1l0,0l0.3,0.1l0,0h0.1l0,0l0.3,0.1l0,0h0.1l0,0h0.2l0,0h0.1l0,0h0.1l0,0h0.1h0.9h0.1h0.1h0.1
			l0,0h0.1h0.1h0.1l0,0h0.1l0,0h0.1l0,0l0.3-1c-2.5-0.7-5.1-1.5-7.6-2.3L244.2,540.6z M259.6,544.9l-0.2,1c2,0.5,4,0.9,6,1.4l0,0
			h0.1l0,0h0.1l0,0h0.1h0.2l1.4,0.3l0.2-1C264.7,546,262.1,545.4,259.6,544.9L259.6,544.9z M275.2,548.1l-0.2,1l0,0h0.2l0,0h0.2l0,0
			h0.2l0,0h0.2h0.1h0.1h0.9h0.1l0,0h0.2l0,0h0.2l0,0l3.8,0.6l0,0h0.2l0,0h0.2h0.7l1,0.1l0.1-1c-2.6-0.4-5.3-0.8-7.9-1.2L275.2,548.1
			z M291,550.2l-0.1,1l1.2,0.1h0.6c2.1,0.2,4.1,0.4,6.2,0.5l0.1-1C296.3,550.7,293.6,550.5,291,550.2L291,550.2z M306.9,551.3v1
			c1.7,0.1,3.4,0.1,5.1,0.1h0.2h2.8v-1C312.2,551.5,309.6,551.4,306.9,551.3L306.9,551.3z M330.8,551c-2.6,0.2-5.3,0.3-8,0.4v1
			l3-0.1h0.7c1.4-0.1,2.9-0.2,4.3-0.2L330.8,551L330.8,551z M346.6,549.5c-2.6,0.3-5.3,0.7-7.9,0.9l0.1,1c1.3-0.1,2.6-0.3,3.9-0.4
			l0,0h0.2l0,0h0.2l0,0c1.2-0.1,2.5-0.3,3.7-0.5L346.6,549.5L346.6,549.5z M362.4,546.8c-2.6,0.5-5.2,1-7.8,1.4l0.2,1
			c1.4-0.2,2.8-0.5,4.2-0.7l0,0h0.2h0.1h0.1h0.1h0.2l0,0l3.1-0.6l-0.2-1L362.4,546.8z M377.9,543.2c-2.5,0.7-5.1,1.3-7.7,2l0.2,1
			l2.8-0.7l0,0h0.1l0,0l0,0l0,0h0.1h0.1h0.1l0,0h0.1l0,0h0.1l0,0h0.1l0,0c1.1-0.3,2.3-0.6,3.4-0.9l0,0h0.2l0,0h0.1l0,0h0.1h0.1h0.1
			h0.1l0.2-0.1l-0.3-1L377.9,543.2z M393.1,538.5c-2.5,0.9-5,1.7-7.6,2.5l0.3,1l1.8-0.6l0,0l0.2-0.1l0,0h0.1l0,0l0.2-0.1l0,0h0.1
			l0,0l0.2-0.1l0,0l0.2-0.1l0,0h0.1l0,0l0.2-0.1l0,0l0.4-0.1l0,0c1.3-0.4,2.6-0.9,3.9-1.3l-0.3-0.9L393.1,538.5z M407.9,532.7
			c-2.4,1-4.9,2-7.4,3l0.4,0.9h0.1l0,0h0.1l0,0h0.1h0h0.1l0,0l0,0h0.1l0,0h0.1l0,0h0.1l0,0h0.1l0,0h0.1l0,0l0.2-0.1l0,0l3.4-1.3l0,0
			l0.2-0.1l0,0h0.1l0,0h0.1l0,0h0.1l0,0h0.1h0.1l0,0h0.1l0,0l1.9-0.8l-0.4-0.9L407.9,532.7z M422.4,526c-2.4,1.2-4.8,2.4-7.2,3.5
			l0.4,0.9c2.4-1.1,4.8-2.3,7.2-3.5L422.4,526L422.4,526z M436.3,518.3c-2.3,1.4-4.6,2.7-6.9,4l0.5,0.9c2.3-1.3,4.7-2.6,6.9-4
			L436.3,518.3L436.3,518.3z M449.7,509.7c-2.2,1.5-4.4,3-6.6,4.4l0.5,0.8c2.3-1.4,4.5-2.9,6.7-4.4L449.7,509.7z M462.5,500.2
			c-2.1,1.6-4.2,3.3-6.3,4.9l0.6,0.8l1.5-1.1l0,0l0.2-0.1l0,0h0.1l0,0l0.1-0.1l0,0h0h0l0,0l0.1-0.1l0,0h0l0,0l0.2-0.1l0,0
			c1.3-1,2.6-2,3.9-3l-0.6-0.8L462.5,500.2z M474.6,489.8c-2,1.8-4,3.6-6,5.3l0.6,0.8l1.9-1.6l0,0l0.2-0.2l0,0l0.1-0.1l0,0l0.1-0.1
			l0,0l0.1-0.1l0,0l0.1-0.1l0,0l0.1-0.1l0,0v0l0,0l0.1-0.1l0,0l0,0l0,0l0,0l0.1-0.1l0,0h0l0,0l0.2-0.1l0,0l0,0l0,0l0.1-0.1l0,0
			l0.1,0l0,0l0.2-0.2l0,0c0.8-0.7,1.5-1.4,2.3-2l-0.7-0.7L474.6,489.8z M486,478.7c-1.8,1.9-3.7,3.8-5.6,5.7l0.7,0.7l0.7-0.6l0,0
			l0,0l0,0l0.1-0.1l0,0l0,0h0l0,0l0.1-0.1l0,0l0-0.1l0,0l0.1-0.1l0,0l0.1-0.1l0,0l0.2-0.2l0,0c0.9-0.9,1.8-1.8,2.6-2.7l0,0l0.2-0.2
			l0,0l0.1-0.1l0,0l0.2-0.2l0,0l0.2-0.2l0,0l0.1-0.1l0,0l0.1-0.1l0,0l0.1-0.1l0,0l0.1-0.1l0,0v0l0,0l0,0l0,0h0.1v0l0,0v0l0,0
			l0.1-0.1l0,0l0,0l-0.7-0.7L486,478.7z M496.6,466.8c-1.7,2-3.5,4-5.2,6l0.7,0.7c1.8-2,3.5-4,5.2-6L496.6,466.8L496.6,466.8z
			 M506.4,454.3c-1.5,2.1-3.2,4.3-4.8,6.4l0.8,0.6l1.1-1.4l0,0v-0.1l0,0l0-0.1v-0.1l0,0v-0.1l0,0l0.1-0.1l0,0l0.1-0.1l0,0l0.1-0.2
			l0,0c0.8-1.1,1.6-2.1,2.4-3.2l0,0l0.1-0.1l0,0l0.1-0.1l0,0l0.1-0.1l0,0v-0.1l0,0l0.1-0.1l0,0l0,0l0,0l0,0l0.1-0.1l0,0l0-0.1l0,0
			l0.1-0.2l-0.8-0.6L506.4,454.3z M515.4,441.1c-1.4,2.2-2.9,4.5-4.4,6.7l0.8,0.6l0.6-0.9l0,0l0.1-0.2l0,0v-0.1l0,0l0.1-0.1l0,0V447
			l0,0v0v0v-0.1l0,0v0l0,0v-0.1l0,0v0l0,0v0v-0.1v-0.1l0,0v0l0,0l0.1-0.1l0,0v0l0,0l0,0l0,0l0.1-0.1l0,0v0l0,0l0.1-0.1l0,0v-0.1l0,0
			l0.1-0.2l0,0v-0.1l0,0l0.1-0.2l0,0c0.7-1.1,1.4-2.1,2.1-3.2l-0.8-0.5L515.4,441.1z M523.4,427.3c-1.3,2.3-2.6,4.7-3.9,6.9l0.9,0.5
			c0.9-1.5,1.7-3,2.5-4.5l0,0l0.1-0.2l0,0V430l0,0l0.1-0.1l0,0v-0.1l0,0v-0.1v-0.1v-0.1v0l0,0l0.1-0.2l0,0l0.8-1.5l-0.9-0.5
			L523.4,427.3z M530.5,413c-1.1,2.4-2.2,4.8-3.4,7.2l0.9,0.5c0.2-0.4,0.3-0.7,0.5-1l0,0l0.1-0.2l0,0v-0.1l0,0l0.1-0.1l0,0v-0.1l0,0
			V419V419l0,0v0v0v-0.1v0v-0.1l0,0v-0.1l0,0v-0.1l0,0v-0.1l0,0l0.1-0.2l0,0v-0.1l0,0l0.1-0.2l0,0c0.5-1,1-2.1,1.5-3.2l0,0l0-0.1
			l0,0v-0.1l0,0v-0.1l0,0v-0.1l0,0v-0.1v-0.1l0,0l0.2-0.4l-0.9-0.4L530.5,413z M536.6,398.3c-0.9,2.5-1.9,5-2.9,7.4l0.9,0.4
			c0.4-1,0.8-2,1.2-3l0,0l0.1-0.2l0,0v-0.1l0,0v-0.1l0,0v-0.1v0v-0.1v-0.1v-0.1v-0.1l0,0v-0.1l0,0l0.1-0.1l0,0V402l0,0
			c0.3-0.9,0.7-1.8,1-2.7l0,0l0.1-0.2l0,0V399l0,0V399v-0.1l0,0l-0.9-0.4L536.6,398.3z M541.6,383.2c-0.8,2.5-1.6,5.1-2.4,7.6l1,0.3
			c0.2-0.6,0.4-1.3,0.6-1.9l0,0l0.1-0.2l0,0v-0.1l0,0v-0.1v-0.1v0v-0.1l0,0v-0.1l0,0v-0.1l0,0v-0.1l0,0v-0.1l0,0v-0.1l0,0v-0.1l0,0
			V388l0,0v-0.1l0,0l0.1-0.2l0,0v-0.1l0,0l0.1-0.2l0,0c0-0.1,0.1-0.2,0.1-0.4l0,0l0.1-0.2l0,0v-0.1l0,0l0.1-0.2l0,0l0.1-0.2l0,0V386
			l0,0l0.1-0.2l0,0v-0.1l0,0v-0.1l0,0v-0.1l0,0v-0.1l0,0v-0.1l0,0v-0.1v0v0V385l0,0V385l0,0l0.1-0.2l0,0v-0.1l0,0
			c0.1-0.2,0.1-0.4,0.2-0.5l-1-0.3L541.6,383.2z M545.6,367.8c-0.6,2.6-1.2,5.2-1.9,7.7l1,0.3c0.5-2,1-4,1.5-5.9l0,0v0l0,0v-0.1
			v-0.3v-0.1l0,0v-0.1l0,0v-0.1l0,0c0.1-0.4,0.2-0.7,0.3-1.1l-1-0.2L545.6,367.8z M548.6,352.1c-0.4,2.6-0.9,5.3-1.4,7.9l1,0.2
			c0.3-1.4,0.5-2.8,0.8-4.2l0,0c0-0.1,0-0.2,0.1-0.4l0,0v-0.2l0,0v-0.2l0,0v-0.2V355l0,0v-0.2l0,0v-0.2l0,0v-0.1v-0.1v-0.1l0,0v-0.1
			l0,0v-0.1l0,0v-0.1l0,0V354l0,0v-0.1l0,0c0.1-0.5,0.2-1,0.3-1.6l-1-0.1L548.6,352.1z M550.6,336.3c-0.2,2.6-0.5,5.3-0.8,7.9l1,0.1
			l0,0v-0.1l0,0v-0.5v-0.2l0,0v-0.2l0,0c0.3-2.3,0.5-4.6,0.7-7l-1-0.1L550.6,336.3z M551.4,320.4c-0.1,2.6-0.2,5.3-0.3,8h1v-0.6l0,0
			v-0.4l0,0v-0.1l0,0c0.1-1.7,0.2-3.4,0.2-5.1l0,0v-0.5v-1.2L551.4,320.4L551.4,320.4z M552.2,304.4h-1c0.1,2.6,0.2,5.3,0.2,8h1
			c0-0.2,0-0.4,0-0.6l0,0v-0.2l0,0v-0.1l0,0v-0.1l0,0v-1.2l0,0v-0.4l0,0v-0.5l0,0v-0.2l0,0v-0.3l0,0v-0.2l0,0v-1.3l0,0v-0.2l0,0
			v-0.1l0,0V307l0,0c0-0.8-0.1-1.7-0.1-2.5L552.2,304.4z M550.9,288.4l-1,0.1c0.3,2.6,0.5,5.3,0.8,7.9l1-0.1c-0.2-2.3-0.4-4.7-0.7-7
			l0,0v-0.1l0,0v-0.5c0-0.1,0-0.2,0-0.4L550.9,288.4z M548.6,272.6l-1,0.2c0.5,2.6,0.9,5.3,1.3,7.9l1-0.1c0-0.4-0.1-0.7-0.2-1v-0.3
			l0,0v-0.1l0,0C549.4,276.9,549,274.8,548.6,272.6L548.6,272.6z M545.2,256.9l-1,0.3c0.7,2.6,1.3,5.2,1.8,7.8l1-0.2
			c-0.1-0.5-0.2-1-0.3-1.4l0,0v-0.2v-0.4v-0.2l0,0c-0.2-0.8-0.4-1.7-0.6-2.5l0,0V260v-0.3v-0.1l0,0v0l0,0v-0.1l0,0v-0.1l0,0
			c-0.2-0.8-0.4-1.5-0.6-2.3L545.2,256.9z M540.7,241.6l-1,0.3c0.8,2.5,1.6,5.1,2.3,7.6l1-0.3c0-0.1,0-0.2-0.1-0.3l0,0l-0.1-0.3l0,0
			v-0.1l0,0l-0.1-0.2l0,0v-0.1l0,0v-0.1v-0.1l0,0v-0.1V248V248v-0.1v-0.1l0,0v-0.1l0,0v-0.1l0,0v-0.1l0,0v-0.1l0,0v-0.1l0,0v-0.1
			l0,0v-0.1l0,0v-0.1l0,0v-0.1l0,0V247l0,0v-0.1l0,0v-0.1l0,0v-0.1l0,0v-0.1l0,0v-0.1l0,0v-0.1l0,0v-0.1l0,0v-0.1l0,0v-0.1l0,0v-0.1
			l0,0V246l0,0v-0.1l0,0v-0.1l0,0v-0.1l0,0v-0.1l0,0v-0.1l0,0v-0.1l0,0v-0.1v-0.1v-0.1v-0.1v-0.1v-0.1l0,0V245v-0.1v-0.1l0,0v-0.1
			l0,0v-0.1l0,0v-0.1l0,0l-0.1-0.2l0,0v-0.1l0,0l-0.1-0.2l0,0c0-0.1-0.1-0.2-0.1-0.3l0,0c-0.1-0.3-0.2-0.6-0.3-0.9L540.7,241.6z
			 M535.3,226.6l-0.9,0.4c1,2.4,2,4.9,2.9,7.4l0.9-0.3c-0.5-1.4-1.1-2.9-1.6-4.3l0,0l-0.1-0.3l0,0l-0.1-0.2l0,0v-0.1l0,0l-0.1-0.1
			l0,0v-0.1l0,0v-0.1l0,0v-0.1v-0.1l0,0v-0.1l0,0v-0.1v-0.1v-0.1l0,0v-0.1l0,0v-0.1l0,0v-0.1l0,0v-0.1l0,0V228l0,0l-0.4-1
			L535.3,226.6z M528.8,212l-0.9,0.4c1.2,2.4,2.3,4.8,3.4,7.2l0.9-0.4l-0.1-0.2l0,0V219l0,0v-0.1v-0.1v-0.1l0,0v-0.1v-0.1l0,0v-0.1
			l0,0v-0.1l0,0v-0.1l0,0v-0.1l0,0v-0.1l0,0v-0.1l0,0V218l0,0v-0.1l0,0l0-0.1l0,0v-0.1l0,0v-0.1l0,0v-0.1l0,0l-0.1-0.2l0,0v-0.1l0,0
			v-0.1l0,0v-0.1l0,0V217l0,0v-0.1l0,0v-0.1l0,0v-0.1l0,0v-0.1l0,0v-0.1l0,0v-0.1l0,0v-0.1l0,0v-0.1l0,0v-0.1v-0.1v-0.1l0,0v-0.1
			l0,0V216l0,0v-0.1v-0.1v-0.1l0,0v-0.1l0,0v-0.1v-0.1v-0.1l0,0v-0.1v-0.1v-0.1l0,0v-0.1l0,0v-0.1l0,0v-0.1l0,0v-0.1l0,0l0-0.1l0,0
			v-0.1l0,0l-0.1-0.2l0,0c-0.2-0.5-0.5-1-0.7-1.5L528.8,212z M521.3,197.8l-0.9,0.5c1.3,2.3,2.6,4.6,3.8,7l0.9-0.5l-0.7-1.4l0,0
			l-0.1-0.2l0,0l-0.1-0.2l0,0V203l0,0l-0.1-0.1l0,0v-0.1l0,0v-0.1v-0.1v-0.1v-0.1v-0.1v-0.1l0,0v-0.1l0,0v-0.1l0,0l0-0.1l0,0v-0.1
			l0,0v-0.1l0,0V202l0,0V202l0,0l-0.1-0.2l0,0v-0.1l0,0l0-0.1l0,0v-0.1l0,0l-0.1-0.2l0,0l0-0.1l0,0l-0.1-0.2l0,0l-0.1-0.2l0,0
			l-1.3-2.4L521.3,197.8z M512.9,184.2l-0.8,0.6c1.5,2.2,2.9,4.5,4.3,6.7l0.8-0.5c-0.6-1-1.2-1.9-1.8-2.9l0,0l-0.1-0.2l0,0v-0.1l0,0
			l-0.1-0.1l0,0v-0.1l0,0v-0.1v-0.1v-0.1l0,0l0,0v-0.1l0,0v-0.1l0,0v-0.1l0,0l-0.1-0.1l0,0l0-0.1l0,0l-0.1-0.2l0,0
			c-0.5-0.8-1-1.5-1.5-2.3L512.9,184.2z M503.6,171.2l-0.8,0.6c1.6,2.1,3.2,4.3,4.8,6.4l0.8-0.6c-0.9-1.3-1.9-2.6-2.8-3.9l0,0
			l-0.1-0.2l0,0l0-0.1l0,0l-0.2-0.2l0,0l-0.2-0.2l0,0l-0.2-0.3l0,0l-0.2-0.2l0,0L503.6,171.2L503.6,171.2z M493.4,158.9l-0.8,0.7
			c1.8,2,3.5,4,5.2,6.1l0.8-0.6C496.9,162.9,495.2,160.9,493.4,158.9L493.4,158.9z M482.4,147.2l-0.7,0.7c1.9,1.9,3.8,3.8,5.6,5.7
			l0.7-0.7l0,0l-0.2-0.2l0,0c-1.6-1.7-3.2-3.4-4.9-5l0,0l-0.1-0.1l0,0l-0.1-0.1l0,0l-0.1-0.1l0,0l-0.1-0.1l0,0h0l0,0l0,0l0,0
			L482.4,147.2z M470.7,136.3l-0.6,0.8c2,1.7,4,3.5,5.9,5.3l0.7-0.7c-0.7-0.6-1.3-1.2-2-1.8l0,0l-0.2-0.2l0,0l-0.2-0.2l0,0l0-0.1
			l0,0l-0.2-0.1l0,0h0l0,0l-0.1-0.1l0,0l0,0l0,0l0,0l-0.1-0.1l0,0l-0.1-0.1l0,0l-0.1-0.1l0,0l-0.1-0.1l0,0l-0.2-0.1l0,0l-0.1-0.1
			l0,0c-0.8-0.7-1.6-1.4-2.4-2.1L470.7,136.3z M458.2,126.3l-0.6,0.8c2.1,1.6,4.2,3.3,6.3,4.9l0.6-0.8c-1.9-1.5-3.8-3-5.7-4.5l0,0
			l-0.2-0.2l0,0h0l0,0l-0.1-0.1h0l0,0h-0.1l0,0L458.2,126.3z M445.2,117l-0.5,0.8c2.2,1.4,4.4,3,6.6,4.5l0.6-0.8
			c-1.6-1.1-3.2-2.2-4.8-3.3l0,0h-0.1l0,0h-0.1h-0.1l0,0h-0.1l0,0l-0.2-0.1l0,0l-1.3-0.8L445.2,117z M431.5,108.7l-0.5,0.9
			c2.3,1.3,4.6,2.7,6.9,4l0.5-0.8l0,0h0l0,0h-0.1l0,0l-0.1-0.1l0,0l-0.1-0.1l0,0c-2.1-1.3-4.3-2.5-6.5-3.8L431.5,108.7z
			 M417.3,101.4l-0.4,0.9c2.4,1.1,4.8,2.3,7.1,3.6l0.5-0.9l-2.2-1.1l0,0h-0.1l0,0l-0.1-0.1l0,0H422l0,0h0h-0.1h-0.1h-0.1l0,0h-0.1
			l0,0l-0.1-0.1l0,0h-0.1l0,0h-0.1l0,0l-0.1-0.1l0,0l-0.2-0.1l0,0c-1.2-0.6-2.4-1.2-3.6-1.8L417.3,101.4z M402.7,95.1l-0.4,0.9
			c2.5,1,4.9,2,7.4,3.1l0.4-0.9C407.7,97.1,405.2,96,402.7,95.1z M387.6,89.7l-0.3,0.9c2.5,0.8,5,1.7,7.5,2.6l0.3-0.9l-2.7-0.9l0,0
			h-0.1l0,0l-0.2-0.1l0,0h-0.1l0,0h-0.1h0H392h0h0h-0.1h-0.1h-0.1l0,0h-0.1l0,0h-0.1l0,0h-0.1l0,0h-0.1l0,0h-0.1l0,0h-0.1l0,0h-0.1
			l0,0H391l0,0H391l0,0h-0.1h0h-0.1l0,0h-0.1h-0.1h-0.1h-0.1l0,0h-0.1l0,0l-0.1-0.1l0,0h-0.1l0,0l-0.2-0.1l0,0l-1.7-0.6L387.6,89.7z
			 M372.2,85.3l-0.2,1c2.6,0.6,5.2,1.3,7.7,2l0.3-1l-2.9-0.8l0,0H377l0,0h-0.1l0,0h-0.1h-0.1h-0.1h-0.1h-0.1l0,0h0h-0.2h0H376h-0.1
			h-0.2l0,0l0,0h-0.1h-0.1h0h-0.2h-0.1h-0.1H375h-0.1h-0.1h-0.3h-0.1h-0.1h-0.1l0,0h-0.1l0,0h-0.1l0,0H374l0,0h-0.2l0,0h-0.2l0,0
			l-1.2-0.3L372.2,85.3z M356.6,82l-0.2,1c2.6,0.5,5.2,1,7.8,1.5l0.2-1l0,0h-0.1l0,0h-0.1h-0.9h-0.2l0,0h-0.2l0,0H363l0,0h-0.2l0,0
			h-0.2l0,0h-0.2l0,0c-1.9-0.4-3.8-0.7-5.7-1.1L356.6,82z M340.8,79.8l-0.1,1c2.6,0.3,5.3,0.6,7.9,1l0.1-1c-1.3-0.2-2.6-0.4-4-0.5
			l0,0h-0.2l0,0h-0.2l0,0h-0.1h-0.1H344h-0.5h-0.4l0,0l-2.5-0.3L340.8,79.8z M324.8,78.7v1c2.6,0.1,5.3,0.3,8,0.4l0.1-1
			c-2.2-0.2-4.5-0.3-6.7-0.4L324.8,78.7L324.8,78.7z M315.5,78.5v1h1.3v-1H315.5L315.5,78.5z"/>
		<path class="st0" d="M315.5,157.5H313c-1.6,0-3.3,0.1-4.9,0.1h-0.6l0,1c2.6-0.1,5.3-0.2,8-0.2L315.5,157.5L315.5,157.5z
			 M299.5,158.3l-0.9,0.1h-2.2h-0.1l0,0c-1.6,0.2-3.2,0.4-4.8,0.6l0.1,1c2.6-0.4,5.3-0.7,7.9-1l-0.1-1V158.3z M283.7,160.7
			c-2.6,0.5-5.2,1.1-7.8,1.8l0.3,1c2.5-0.7,5.2-1.3,7.7-1.8L283.7,160.7L283.7,160.7z M268.2,164.7l-1,0.3l0,0l-1.4,0.5l0,0h-0.1
			l0,0h0l0,0h0l0,0h0l0,0h0l0,0h0l0,0h0l0,0h0l0,0l0,0l0,0l0,0l0,0h0l0,0h0l0,0h0l0,0h0l0,0h0l0,0h0l0,0h0l0,0l0,0l0,0h-0.1l0,0
			l-0.2,0.1h-1.1h0l0,0h0l0,0l-2.6,0.9l0.3,0.9c2.5-0.9,5-1.8,7.5-2.6l-0.3-1L268.2,164.7z M253.2,170.3l-2.2,0.9l0,0l-0.1,0.1l0,0
			l-0.8,0.4l0,0l0,0l0,0h-0.1l0,0H250l0,0H250l0,0l0,0l0,0l0,0l0,0l0,0l0,0l0,0l0,0h-0.1l0,0l0,0l0,0l0,0l0,0l0,0l0,0l0,0l0,0h-0.1
			l0,0h-0.1l0,0l-0.5,0.2l0,0h-0.1l0,0l0,0l0,0l0,0l0,0l0,0l0,0l0,0l0,0h-0.1l0,0l0,0l0,0l0,0l0,0l0,0l0,0l0,0l0,0l0,0l0,0h-0.1l0,0
			l0,0l0,0l0,0l0,0l-0.4,0.2l0,0h-0.1l0,0h-0.1l0,0l0,0l0,0h-0.1l0,0l0,0l0,0l0,0l0,0h-0.1l0,0l0,0l0,0h-0.1l0,0l0,0l0,0h-0.1l0,0
			l0,0l0,0l0,0l0,0h-0.1l0,0l0,0l0,0h-0.1l0,0l-0.3,0.2l0,0l0,0l0,0l0,0l0,0l0,0l0,0l0,0l0,0l0,0h-2l0.4,0.9
			c2.4-1.2,4.8-2.3,7.2-3.3l-0.4-0.9L253.2,170.3z M238.8,177.3l-1.4,0.8l0,0l0,0l0,0l0,0l0,0h-0.1l0,0l0,0l0,0l0,0l0,0l0,0l0,0l0,0
			l0,0h-0.1l0,0l0,0l0,0l0,0l0,0l0,0l0,0l0,0h-0.1l0,0l0,0l0,0l0,0l0,0l0,0l0,0l0,0l0,0l0,0l0,0l0,0l0,0l0,0l0,0l0,0l0,0l0,0l0,0
			l0,0l0,0l0,0l0,0l0,0l0,0h-0.1l0,0l0,0l0,0c-1.4,0.8-2.7,1.6-4.1,2.4l0.5,0.9c2.2-1.4,4.5-2.8,6.9-4l-0.5-0.9L238.8,177.3z
			 M225.3,185.7c-0.8,0.6-1.6,1.1-2.4,1.7l0,0l-0.1,0.1l0,0l-0.7,0.5l0,0H222l0,0h-0.1l0,0l0,0l0,0h-0.1l0,0c-1,0.7-2,1.5-3,2.3
			l0.6,0.8c2.1-1.6,4.2-3.2,6.4-4.7l-0.6-0.8L225.3,185.7z M212.6,195.5c-0.8,0.7-1.6,1.3-2.3,2l0,0l0,0l0,0l0,0l0,0l0,0l0,0l0,0
			l0,0l0,0l0,0l0,0l0,0l0,0l0,0l0,0l0,0l0,0l0,0l0,0l0,0l0,0c-1.1,1-2.1,1.9-3.1,2.9l0.7,0.7c1.9-1.8,3.9-3.6,5.9-5.3l-0.6-0.8
			L212.6,195.5z M201,206.5c-0.4,0.5-0.9,0.9-1.3,1.4l0,0l0,0l0,0l0,0l0,0v0.1l0,0l0,0l0,0l0,0l0,0v0.1l0,0l0,0l0,0l-0.4,0.4l0,0
			l0,0l0,0l0,0l0,0l0,0l0,0l0,0l0,0l0,0l0,0l0,0l0,0l0,0l0,0l0,0l0,0v0.1l0,0c-1,1.1-2.1,2.3-3.1,3.4l0.8,0.7c1.7-2,3.5-4,5.3-5.9
			l-0.7-0.7L201,206.5z M190.6,218.6c-1.3,1.7-2.6,3.4-3.8,5.1l0,0l0,0l0,0l0,0l0,0l0,0l0,0l0,0l0,0l0,0l0,0l0,0l0,0l0,0l0,0l0,0
			l0,0l0,0c-0.2,0.3-0.4,0.6-0.6,0.9l0.8,0.6c1.5-2.2,3.1-4.3,4.7-6.4l-0.8-0.6L190.6,218.6z M181.4,231.8c-0.1,0.1-0.2,0.3-0.3,0.4
			l0,0l0,0l0,0l0,0l0,0l0,0l0,0l0,0l0,0l0,0l0,0l0,0l0,0l0,0l0,0l0,0c-0.8,1.3-1.5,2.5-2.3,3.8l0,0v0.1l0,0l0,0l0,0l0,0l0,0l0,0l0,0
			l0,0l0,0l0,0l0,0l0,0l0,0l0,0l0,0l0,0l0,0l0,0l0,0l0,0c-0.3,0.6-0.6,1.1-0.9,1.7l0.9,0.5c1.3-2.3,2.6-4.6,4-6.8l-0.9-0.5
			L181.4,231.8z M173.6,245.8c-1.2,2.4-2.3,4.8-3.4,7.3l0.9,0.4c1-2.4,2.2-4.9,3.3-7.2L173.6,245.8L173.6,245.8z M167.3,260.4
			c-0.2,0.6-0.5,1.3-0.7,1.9l0,0v0.1l0,0v0l0,0v0l0,0v0l0,0v0l0,0v0.3l0,0l0,0l0,0v0.2l0,0l0,0l0,0l0,0l0,0l0,0l0,0l0,0v0l0,0
			l-0.1,0.2l0,0v0.1l0,0l0,0l0,0v0.2l0,0v0l0,0v0l0,0v0.5l0,0l0,0l0,0v0.1l0,0v0.6l0,0l0,0l0,0v0.1l0,0l0,0c0,0.1-0.1,0.2-0.1,0.3
			l0,0v0.1l0,0v0.1l0,0v0.1l0,0v0.1l0,0v0.1l0,0v0l0,0v0l0,0v0l0,0v0l0,0v0l0,0v0l0,0c-0.2,0.6-0.4,1.2-0.6,1.9l1,0.3
			c0.8-2.5,1.7-5,2.6-7.5l-0.9-0.4L167.3,260.4z M162.5,275.7c-0.4,1.5-0.8,3.1-1.1,4.6l0,0v0.1l0,0v0.1l0,0v0.1l0,0v0.1l0,0v0l0,0
			v0l0,0v0l0,0v0l0,0v0.1l0,0v0.1l0,0v0.1l0,0v0.1l0,0v0.1l0,0v0.1l0,0v0l0,0v0l0,0v0l0,0v0l0,0v0l0,0l0,0l0,0l0,0l0,0l0,0l0,0v0.1
			l0,0l0,0l0,0l0,0l0,0v0.5l0,0l0,0l0,0v0l0,0v0.1l0,0v0.1v0.1l0,0v0.1v0.1l0,0v0.1l0,0v0.1l0,0v0l0,0v0.1l0,0v0.1l0,0l-0.1,0.6
			l1,0.2c0.5-2.6,1.1-5.2,1.8-7.7l-1-0.3L162.5,275.7z M159.3,291.4c-0.4,2.6-0.7,5.3-1,7.9l1,0.1c0.3-2.6,0.6-5.3,1-7.9
			L159.3,291.4z M157.7,307.3c-0.1,1.1-0.1,2.2-0.1,3.4l0,0v0l0,0v0.5l0,0v0l0,0v0.1l0,0v0.1l0,0v0l0,0v0.1l0,0
			c0,1.2-0.1,2.5-0.1,3.7h1c0-2.6,0.1-5.3,0.2-8L157.7,307.3L157.7,307.3z M158.7,323.2h-1c0.1,2.7,0.3,5.3,0.6,8l1-0.1
			C159,328.5,158.8,325.8,158.7,323.2L158.7,323.2z M160.2,339l-1,0.1c0.3,2.2,0.7,4.3,1.1,6.5l0,0v0.1l0,0v0.1l0,0v0.6l0,0l0,0l0,0
			l0,0l0,0v0l0,0v0.1l0,0v0.1l0,0c0,0.1,0,0.3,0.1,0.4l1-0.2c-0.5-2.6-1-5.2-1.4-7.8L160.2,339z M163.4,354.6l-1,0.2l0.2,0.7l0,0v0
			l0,0v0l0,0v0l0,0v0l0,0v0.3l0,0v0l0,0v0l0,0v0.1l0,0c0.6,2.1,1.2,4.2,1.8,6.2l1-0.3c-0.8-2.5-1.5-5.1-2.2-7.6L163.4,354.6z
			 M168.1,369.8l-0.9,0.3c0.9,2.5,1.9,5,3,7.4l0.9-0.4C170.1,374.8,169.1,372.3,168.1,369.8L168.1,369.8z M174.4,384.4l-0.9,0.4
			c0.5,1,1,2,1.5,3l0,0v0l0,0v0l0,0l0,0l0,0l0,0l0,0l0,0l0,0l0,0l0,0l0,0v0l0,0l0,0l0,0v0.1l0,0v0l0,0l0,0l0,0l0,0l0,0l0,0l0,0l0,0
			l0,0l0,0l0.2,0.4l0,0v0l0,0v0l0,0l0.1,0.1l0,0v0l0,0v0l0,0v0l0,0v0l0,0l0.7,1.3l0,0c0.1,0.3,0.3,0.5,0.4,0.8l0,0l0,0l0,0v0l0,0v0
			l0,0l0,0l0,0l0,0l0,0l0,0l0,0l0,0l0.9-0.5c-1.3-2.3-2.5-4.7-3.7-7L174.4,384.4z M182.1,398.3l-0.9,0.5l0.3,0.4l0,0v0l0,0l0,0l0,0
			l0,0l0,0l0,0l0,0l0,0l0,0l0,0l0,0l0,0l0,0l0,0l0,0l0,0l0,0l0,0l0,0l0,0l0,0l0,0l0,0l0,0l0,0l0,0l0,0l0,0l0,0l0.1,0.2l0,0l0,0l0,0
			l0,0l0,0l0,0l0,0l0,0l0,0l0,0l0,0l0,0l0,0l0,0l0,0l0,0l0,0l0,0l0,0l0,0l0,0l0,0l0,0l0,0l0,0l0,0l0,0l0,0l0,0l0,0l0,0l0,0l0,0l0,0
			l0,0l0.1,0.2l0,0l0,0l0,0l0,0l0,0l0,0l0,0l0,0l0,0l0,0l0,0l0,0l0,0l0,0l0,0l0,0l0,0l0,0l0,0l0,0l0,0l0,0l0,0l0,0l0,0l0,0l0,0l0,0
			l0,0l0.3,0.4l0,0l0,0l0,0l0,0l0,0l0,0l0,0l0,0l0,0l0,0l0,0l0,0l0,0l0,0l0,0l0,0l0,0l0,0l0,0l0,0l0,0l0,0l0,0v0l0,0
			c0.1,0.2,0.3,0.4,0.4,0.6l0,0v0l0,0l0.1,0.1l0,0c0.4,0.6,0.8,1.2,1.2,1.8l0.8-0.6c-1.5-2.2-3-4.4-4.4-6.6L182.1,398.3z
			 M191.1,411.4l-0.8,0.6c1.6,2.1,3.3,4.2,5,6.2l0.8-0.6C194.4,415.5,192.7,413.4,191.1,411.4L191.1,411.4z M201.5,423.4l-0.7,0.7
			l0,0l0,0l0,0l0,0l0,0l0,0l0,0l0,0l0,0l0,0l0,0l0,0l0,0l0,0l0,0l0,0l0,0l0,0l0,0l0,0l0,0l0,0c1.2,1.3,2.4,2.5,3.7,3.7l0,0l0,0l0,0
			l0,0l0,0l0,0l0,0l0,0l0,0l0,0l0,0l0,0l0,0l0,0l0,0l0,0l0,0l0,0l0,0l0,0l0,0l0,0l0,0l0,0l0,0l0,0l0.3,0.3l0,0l0,0l0,0h0.1l0,0
			l0.1,0.1l0,0l0.5,0.5l0.7-0.7c-1.9-1.8-3.8-3.7-5.6-5.6L201.5,423.4z M213,434.4l-0.6,0.8l1.1,0.9l0,0h0.1l0,0l0,0l0,0l0,0l0,0
			l0,0l0,0l0,0l0,0l0,0l0,0l0,0l0,0l0,0l0,0l0,0l0,0l0,0l0,0l0,0l0,0l0,0l0.1,0.1l0,0l0,0l0,0l0,0l0,0l0,0l0,0l0,0l0,0l0,0l0,0l0,0
			l0,0l0,0l0,0l0,0l0,0l0,0l0,0l0,0l0,0l0,0l0,0l0,0l0,0l0,0l0,0c1.3,1.1,2.6,2.1,3.9,3.1l0.6-0.8c-2.1-1.6-4.1-3.3-6.1-5L213,434.4
			z M225.5,444.2L225,445c1.1,0.8,2.3,1.6,3.5,2.4l0,0l0,0l0,0l0,0l0,0l0,0l0,0l0,0l0,0l0,0l0,0l0,0l0,0l0,0l0,0l0,0l0,0l0,0l0,0
			l0,0l0,0l0,0l2.7,1.7l0.5-0.9c-2.2-1.4-4.5-2.9-6.6-4.4L225.5,444.2z M239,452.6l-0.5,0.9c2.3,1.3,4.6,2.5,7,3.7l0,0h0.1l0,0l0,0
			l0,0l0.4-0.9C243.7,455.1,241.3,453.9,239,452.6L239,452.6z M253.3,459.6l-0.4,0.9l0.7,0.3l0,0h0.1l0,0l0,0l0,0l0,0h0.1l0,0h0.1
			l0,0l0,0l0,0l0,0l0,0l0,0h0.1l0,0h0.1l0,0h0.1l0,0l2.1,0.9l0,0l0,0l0,0l0,0l0,0l0,0h0.1l0,0h0.2l0,0h0.7l0,0l0,0h0l0,0l0,0h0.1
			c1,0.4,2,0.8,3.1,1.2l0.4-0.9c-2.5-0.9-5-1.9-7.4-3L253.3,459.6z M268.1,465.2l-0.3,1c2.1,0.7,4.2,1.3,6.3,1.9l0,0h0.1h0.1h0h0.1
			h0l0,0l0.9,0.2l0.3-1c-2.5-0.7-5.1-1.4-7.6-2.2L268.1,465.2z M283.5,469.2l-0.2,1c2.6,0.5,5.2,1,7.9,1.4l0.2-1
			C288.7,470.2,286.1,469.7,283.5,469.2L283.5,469.2z M299.2,471.6l-0.1,1l1.5,0.1h0.6c2,0.2,3.9,0.3,5.9,0.4l0.1-1
			C304.5,472,301.8,471.8,299.2,471.6L299.2,471.6z M323,472.3c-2.5,0.1-5,0.2-7.5,0.2h-0.4v1h2c2,0,4-0.1,6-0.2L323,472.3
			L323,472.3z M338.9,470.7c-2.6,0.4-5.3,0.7-7.9,1l0.1,1c2.7-0.3,5.3-0.6,7.9-1L338.9,470.7z M354.4,467.6
			c-2.6,0.6-5.2,1.3-7.8,1.8l0.2,1c2.6-0.5,5.2-1.1,7.8-1.8L354.4,467.6L354.4,467.6z M369.6,462.9c-2.5,0.9-5,1.8-7.5,2.5l0.3,1
			l2.1-0.7l0,0h0l0,0h0l0,0l0,0l0,0l0,0h0.8l0,0l0,0l0,0l0,0l0,0h0.3l0.5-0.1l0,0h0.1l0,0h0l0,0h0l0,0h0h0.8h0l0,0
			c0.8-0.3,1.6-0.6,2.4-0.9l-0.3-0.9L369.6,462.9z M384.2,456.6c-2.4,1.2-4.8,2.3-7.2,3.3l0.4,0.9c2.1-0.9,4.2-1.8,6.3-2.8l0,0h0
			l0,0l0,0l0,0l0,0l0,0h0l0,0l0,0l0,0l0,0h0.1l0,0l0,0l0,0l0,0l0,0l0,0l0,0l0,0l0,0h0.1l0,0l0,0h0h0.1l0,0l0,0l0,0l0,0l-0.4-0.9
			L384.2,456.6z M398.1,449c-2.2,1.4-4.5,2.8-6.9,4l0.5,0.9l1.3-0.7l0,0l0,0l0,0l0,0h0.1l0,0l0,0l0,0l0,0l0,0l0,0l0,0l0,0l0,0l0,0
			l0,0l0,0l0,0l0,0l0,0l0,0l0,0l0,0l0,0h0l0,0l0.8-0.4l0,0h0l0,0h0l0,0h0l0,0l0.9-0.5l0,0l0,0l0,0h0l0,0h0l0,0l0,0l0,0l0,0l0,0l0,0
			l0,0l0,0l0,0l0,0l0,0l0,0l0,0l0,0l0,0l0.4-0.2l0,0l0,0l0,0l0,0l0,0l0,0l0,0l0,0l0,0l0,0l0,0l0,0l0,0l0,0l0,0l0,0l0,0l0,0l0,0l0,0
			l0,0l0,0l0,0l0,0l0,0l0,0l0,0l0,0l0,0l0,0l0,0l0,0l0,0l0,0h0l0,0h0l0,0l0.1-0.1l0,0l0,0l0,0l0,0l0,0l0,0l0,0l0,0l0,0l0,0l0,0l0,0
			l0,0l0,0l0,0l0,0l0,0l0,0l0,0l0,0l0,0l0,0l0,0l0,0l0,0l0,0l0,0l0,0l0,0l0,0l0,0l0,0l0,0l0,0l0,0l0,0l0.1-0.1l0,0l0,0l0,0l0,0l0,0
			l-0.5-0.9L398.1,449z M411.2,440c-2.1,1.6-4.3,3.2-6.4,4.7l0.6,0.8l1.4-1l0,0h0l0,0l0,0l0,0l0,0l0,0l0,0l0,0l0,0l0,0l0,0l0,0l0,0
			l0,0l0,0l0,0l0,0l0,0l0,0l0,0l0,0l0,0l0,0l0,0l0,0l0,0l0,0l0.4-0.3l0,0h0l0,0l0.1-0.1l0,0l0,0l0,0h0l0,0l1.7-1.3l0,0l0,0l0,0l0,0
			l0,0l0,0l0,0l0,0l0,0l0,0l0,0l0,0l0,0l0,0l0,0l0,0l0,0l0,0l0,0l0,0l0,0l0,0l0,0l0,0l0,0l0,0l0,0l0,0l0,0l0,0l0,0l0,0l0,0l0,0l0,0
			l0,0l0,0l0,0h0l0,0l1-0.8l-0.6-0.8L411.2,440z M423.3,429.7c-1.9,1.8-3.9,3.6-5.9,5.3l0.6,0.8c1.2-1,2.3-2,3.5-3l0,0l0,0l0,0l0,0
			l0,0l0,0l0,0h0l0,0l0.1-0.1l0,0l0.4-0.3l0,0l0,0l0,0l0,0l0,0l0,0l0,0l0,0l0,0l0,0l0,0l0,0l0,0l0,0l0,0l0,0l0,0l0,0l0,0l0,0l0,0
			l0,0l0,0l0,0l0,0l0,0l0,0l0.1-0.1l0,0l0,0l0,0l0,0l0,0l0,0l0,0l0,0l0,0l0,0l0,0l0,0l0,0l0,0l0,0l0,0l0,0l0,0l0,0l0,0l0,0l0,0l0,0
			l0,0l0,0l0,0l0,0l0,0l0,0l0,0l0,0l0,0l0,0l0,0l0.1-0.1l0,0l0,0l0,0l0,0l0,0l0,0l0,0l0,0l0,0l0,0l0,0l0,0l0,0l0,0l0,0l0,0l-0.7-0.7
			L423.3,429.7z M434.3,418.2c-1.7,2-3.5,4-5.4,5.9l0.7,0.7c1.9-1.9,3.6-3.9,5.4-5.9L434.3,418.2z M444.1,405.7
			c-1.5,2.2-3.1,4.3-4.7,6.4l0.8,0.6c1.6-2.1,3.2-4.2,4.8-6.4L444.1,405.7z M452.5,392.2c-1.3,2.3-2.7,4.6-4.1,6.8l0.8,0.5
			c1-1.6,2-3.3,3-5l0,0l0,0l0,0l0,0l0,0l0,0l0,0l0,0l0,0l0,0l0,0l0,0l0,0l0,0l0,0l0,0l0,0l0,0v0l0,0c0.3-0.5,0.5-0.9,0.8-1.4
			l-0.9-0.5L452.5,392.2z M459.6,378c-1,2.4-2.2,4.8-3.4,7.2l0.9,0.5c1.2-2.4,2.3-4.8,3.4-7.3L459.6,378L459.6,378z M465.2,363.1
			c-0.8,2.5-1.7,5-2.6,7.5l0.9,0.4l0,0l0,0l0,0l0,0v-0.1l0,0v0l0,0l0,0l0,0l0,0l0,0v0l0,0v0l0,0l0,0l0,0v0l0,0v-0.1l0,0v0l0,0v0l0,0
			l0,0l0,0v0l0,0v0l0,0v-0.1l0,0v0l0,0c0.8-2.1,1.5-4.1,2.1-6.2l0,0v0l0,0l0,0l0,0v0l0,0l0,0l-1-0.3L465.2,363.1z M469.2,347.7
			c-0.5,2.6-1.1,5.2-1.8,7.7l1,0.3c0.3-1.3,0.7-2.6,1-3.9l0,0v0l0,0v0l0,0v0V351l0,0v0l0,0v0l0,0v0l0,0v0l0,0v0l0,0v0l0,0v0l0,0l0,0
			l0,0l0,0l0,0l0,0l0,0l0,0l0,0l0,0l0,0v0l0,0v0l0,0l0.3-1.2v-0.5l0,0l0,0l0,0l0,0l0,0v0l0,0v-0.1l0,0v-0.2l-1-0.2L469.2,347.7z
			 M471.6,332c-0.3,2.6-0.6,5.3-1,7.9l1,0.2c0.1-0.4,0.1-0.8,0.2-1.2l0,0v-0.1l0,0v-0.6l0,0v0l0,0v0l0,0V338l0,0l0,0l0,0v-0.1l0,0
			v-0.1l0,0c0.3-1.9,0.5-3.8,0.7-5.7l-1-0.1L471.6,332z M472.5,316.2c0,2.6-0.1,5.3-0.2,8l1,0v-0.7l0,0v-0.1l0,0v0l0,0v-0.8l0,0v0
			l0,0v-0.1l0,0v-0.1l0,0v0l0,0v-0.1l0,0v-0.1l0,0v-0.1l0,0v-0.1l0,0V322l0,0v-0.1l0,0v-0.3l0,0c0-0.4,0-0.9,0-1.3l0,0v-0.5l0,0l0,0
			l0,0v-0.1l0,0l0,0l0,0v-0.1l0,0v-0.1l0,0l0,0l0,0v-0.1l0,0v-0.1l0,0v-0.1l0,0v-0.1l0,0c0-0.9,0-1.8,0-2.8l0,0v-0.2L472.5,316.2z
			 M472.7,300.2l-1,0.1c0.3,2.6,0.4,5.3,0.6,7.9h1c0-0.4,0-0.8-0.1-1.2l0,0V307l0,0v-0.1l0,0v-0.1l0,0v-0.1l0,0v0l0,0v-2.9l0,0v-0.5
			l0,0v-0.1l0,0l0,0l0,0l0,0l0,0v-0.1l0,0l0,0l0,0l0,0l0,0l0,0l0,0v-0.1l0,0l0,0l0,0l0,0l0,0l0,0l0,0v-0.4l0,0
			c-0.1-0.6-0.1-1.3-0.2-1.9L472.7,300.2z M470.4,284.3l-1,0.2c0.5,2.6,1,5.2,1.4,7.8l1-0.1l-0.3-1.7l0,0v-0.1l0,0v-0.1l0,0v0l0,0v0
			l0,0v-0.9l0,0v0l0,0v0l0,0v0l0,0v0l0,0v0l0,0V289l0,0v-0.1l0,0v-0.1l0,0l-0.4-2l0,0v0l0,0v0l0,0v0l0,0v-0.6l0,0v0l0,0V286l0,0v0
			l0,0v-0.1l0,0v-0.1l0,0c-0.1-0.5-0.2-1-0.3-1.5L470.4,284.3z M466.5,268.8l-1,0.3c0.8,2.5,1.5,5.1,2.1,7.6l1-0.3
			C468,273.9,467.2,271.4,466.5,268.8L466.5,268.8z M461,253.8l-0.9,0.4c1,2.4,2,4.9,2.9,7.4l0.9-0.3c-0.4-1-0.7-1.9-1.1-2.9l0,0v0
			l0,0l0,0v-0.1l0,0l0,0l0,0l0,0v-0.2l0,0v-0.2l0,0l0,0v0l0,0v0l0,0c-0.5-1.2-1-2.5-1.5-3.7L461,253.8z M454,239.5l-0.9,0.5
			c1.3,2.3,2.5,4.7,3.7,7.1l0.9-0.4l-0.6-1.3l0,0v-0.1l0,0v-0.1l0,0l0,0l0,0l0,0l0,0l0,0v-0.1l0,0l0,0c-0.7-1.4-1.4-2.8-2.2-4.2l0,0
			l0,0l0,0l0,0l0,0l0,0l0,0l0,0l0,0l0,0l0,0l0,0l0,0l0,0l0,0l0,0l0,0l0,0l-0.4-0.8L454,239.5z M445.6,225.8l-0.8,0.6
			c1.5,2.2,3,4.4,4.4,6.6l0.9-0.5c-0.4-0.6-0.7-1.1-1.1-1.7l0,0l0,0l0,0l0,0l0,0l0,0l0,0l0,0l0,0l0,0l0,0l0,0l0,0l0,0l0,0l0,0v-0.1
			l0,0c-1-1.6-2-3.1-3-4.6L445.6,225.8z M435.8,213.2l-0.8,0.6c1.7,2,3.4,4.1,5,6.2l0.8-0.6c-0.9-1.2-1.8-2.3-2.7-3.5l0,0l-0.4-0.4
			l0,0l0,0l0,0l0,0l0,0l0,0l0,0l0,0l0,0l0,0l0,0l0,0l0,0l0,0l0,0l0,0l0,0l0,0l0,0l0,0l0,0l0,0l0,0l0,0l0,0l0,0
			c-0.5-0.6-1-1.1-1.4-1.7L435.8,213.2z M424.8,201.5l-0.7,0.7c1.9,1.8,3.8,3.7,5.6,5.6l0.7-0.7l0,0l-0.3-0.3l0,0l0,0l0,0l0,0l0,0
			l0,0l0,0l0,0l0,0l0,0l0,0l0,0l0,0l0,0l0,0l0,0l0,0l0,0l0,0l0,0l0,0l0,0l0,0l0,0l0,0l0,0l0,0l-0.2-0.2l0,0l0,0l0,0l0,0l0,0l0,0l0,0
			l0,0l0,0l0,0l0,0l0,0l0,0l0,0l0,0l0,0l0,0l0,0l0,0l0,0l0,0l0,0l0,0l0,0l0,0l0,0l0,0l0,0l0,0l0,0l0,0l-0.1-0.1l0,0l0,0l0,0l0,0l0,0
			l0,0l0,0l0,0l0,0l0,0l0,0l0,0l0,0l0,0l0,0l0,0l0,0l0,0l0,0l0,0l0,0l0,0l0,0l0,0l0,0l0,0l0,0l0,0l0,0l-0.3-0.3l0,0l0,0l0,0l0,0l0,0
			l0,0l0,0l0,0l0,0l0,0l0,0l0,0l0,0h0l0,0c-0.9-0.9-1.7-1.7-2.6-2.6L424.8,201.5z M412.8,191l-0.6,0.8c2.1,1.6,4.1,3.3,6.1,5.1
			l0.6-0.8c-1-0.8-2-1.7-3-2.5l0,0l0,0l0,0l0,0l0,0l0,0l0,0l0,0l0,0l0,0l0,0l0,0l0,0l0,0l0,0l0,0l0,0l0,0l0,0l0,0l0,0l0,0l0,0l0,0
			l0,0l0,0l0,0l0,0l0,0l0,0l0,0l0,0l0,0l0,0l0,0l0,0l0,0l0,0l0,0l0,0l0,0l0,0l0,0l0,0l0,0l0,0l0,0l0,0l0,0l0,0l0,0l0,0l0,0l0,0l0,0
			l0,0l0,0l0,0l0,0l0,0l-0.3-0.3l0,0l0,0l0,0l0,0l0,0l0,0l0,0l0,0l0,0l0,0l0,0l0,0l0,0l0,0l0,0l0,0l0,0l0,0l0,0l0,0l0,0l0,0l0,0
			l-0.5-0.4l0,0h0l0,0l0,0l0,0l0,0l0,0h0l0,0l0,0l0,0l0,0l0,0l0,0l0,0l0,0l0,0l-0.1-0.1L412.8,191z M399.8,181.8l-0.5,0.9
			c2.2,1.4,4.5,2.9,6.6,4.4l0.6-0.8c-1.2-0.9-2.5-1.7-3.8-2.6l0,0l0,0l0,0l0,0l0,0l0,0l0,0l0,0l0,0l0,0l0,0l0,0l0,0l0,0l0,0l0,0l0,0
			l0,0l0,0l0,0l0,0l-0.2-0.1l0,0l0,0l0,0l0,0l0,0l0,0l0,0l0,0l0,0l0,0l0,0l0,0l0,0l0,0l0,0l0,0l0,0l0,0l0,0l0,0h0l0,0h0l0,0l-1.6-1
			L399.8,181.8z M385.8,174l-0.5,0.9c2.4,1.2,4.7,2.4,7,3.7l0.5-0.9C390.5,176.4,388.2,175.2,385.8,174L385.8,174z M371.1,167.6
			l-0.4,0.9c2.5,0.9,4.9,1.9,7.4,3l0.4-0.9c-1.3-0.6-2.6-1.1-3.9-1.6l0,0h0l0,0h0l0,0l0,0h-0.1l0,0h-0.1l0,0l0,0l0,0l0,0h0l0,0
			c-1-0.4-2-0.8-3-1.1L371.1,167.6z M355.9,162.8l-0.3,1c2.5,0.7,5.1,1.4,7.6,2.2l0.3-1c-1.8-0.6-3.5-1.1-5.3-1.6h-0.1h0h-0.9h0H357
			l-1.1-0.3V162.8z M340.3,159.5l-0.1,1c2.6,0.4,5.2,0.9,7.8,1.4l0.2-1H348l-0.4-0.1H344c-1.3-0.2-2.5-0.4-3.8-0.6L340.3,159.5z
			 M324.4,157.8l-0.1,1c2.6,0.1,5.3,0.4,7.9,0.6l0.1-1c-1-0.1-1.9-0.2-2.9-0.3H327l-2.6-0.2L324.4,157.8z M315.5,157.5v1h0.9v-1
			H315.5z"/>
		<g class="st1">
			<path class="st0" d="M315.5,1C489.2,1.1,630,142,629.9,315.8c-0.1,126.3-75.7,240.3-192,289.5c-160.3,66.9-344.6-8.9-411.5-169.2
				C-40,276.7,34.3,93.6,193.1,25.7C231.8,9.3,273.4,0.9,315.5,1 M315.5,0C141.3,0,0,141.3,0,315.5S141.3,631,315.5,631
				S631,489.8,631,315.5S489.8,0,315.5,0z"/>
		</g>
	</g>
</g>
<radialGradient id="SVGID_1_" cx="119.085" cy="444.685" r="31" gradientUnits="userSpaceOnUse">
	<stop  offset="0" style="stop-color:#000000"/>
	<stop  offset="0.5559" style="stop-color:#FFFFFF;stop-opacity:0.1"/>
</radialGradient>
<circle class="st2" cx="119.1" cy="444.7" r="31"/>
<g>
	<circle class="st3" cx="119.1" cy="444.7" r="15"/>
</g>
<circle class="st0" cx="119.1" cy="444.7" r="7"/>
</svg>
