<svg width="763" height="735" viewBox="0 0 763 735" fill="none" xmlns="http://www.w3.org/2000/svg">
<g opacity="0.5">
<path opacity="0.4" d="M88.4482 94.999L232.097 11.9695L649.286 733.341L458.099 734.17L88.4482 94.999Z" fill="#084482"/>
<path opacity="0.6" d="M0 35.5362L40.7725 11.9695L458.441 734.17L266.774 734.17L0.0753336 273.015L0 35.5362Z" fill="#00ADEE"/>
<path opacity="0.6" d="M0 272.599L0.000152868 0L34.0157 0.000255909L425.482 676.894L324.954 735L267.419 735L0 272.599Z" fill="#084482"/>
<path opacity="0.6" d="M33.8613 0.13623L225.528 0.136625L360.77 233.985L217.121 317.015L33.8613 0.13623Z" fill="#084482"/>
<path opacity="0.6" d="M762.997 1.79492L763 1.79494L0 442.19L0.000308431 250.644L431.141 1.79497L762.997 1.79492Z" fill="white" fill-opacity="0.2"/>
</g>
</svg>
