<svg width="38" height="40" fill="none" xmlns="http://www.w3.org/2000/svg"><path d="M10.313 30.874c-1.515 0-2.74 1.242-2.74 2.76 0 1.517 1.225 2.758 2.74 2.758a2.764 2.764 0 0 0 2.752-2.759 2.764 2.764 0 0 0-2.752-2.759zM2.053 8.801v2.759h2.754l4.955 10.47-1.858 3.38c-.22.387-.344.842-.344 1.325a2.764 2.764 0 0 0 2.753 2.76H26.83v-2.76H10.89a.341.341 0 0 1-.343-.345l.04-.165 1.24-2.249H22.08a2.743 2.743 0 0 0 2.41-1.42l4.927-8.954a1.35 1.35 0 0 0 .165-.662c0-.76-.62-1.38-1.376-1.38H7.849L6.555 8.8H2.054zm22.024 22.073c-1.514 0-2.739 1.242-2.739 2.76 0 1.517 1.225 2.758 2.74 2.758a2.764 2.764 0 0 0 2.752-2.759 2.764 2.764 0 0 0-2.753-2.759z" fill="#333"/><path d="M37.346 9.49c0 4.68-3.785 8.472-8.452 8.472-4.666 0-8.451-3.791-8.451-8.471s3.785-8.472 8.451-8.472c4.667 0 8.452 3.792 8.452 8.472z" fill="#40B756" stroke="#3DB657" stroke-width=".991"/><path d="M31.864 5.34v.808L28.5 13.662h-1.26l3.293-7.288h-3.805V7.86h-1.141V5.34h6.277z" fill="#fff"/></svg>