<svg width="85" height="84" fill="none" xmlns="http://www.w3.org/2000/svg"><ellipse cx="42.323" cy="42.061" rx="41.983" ry="41.934" fill="#fff"/><path d="M37.88.318C43.842-.22 49.93.36 55.6 2.338c7.61 2.57 14.407 7.438 19.37 13.762 4.908 6.21 7.983 13.849 8.762 21.736.354 4.265.224 8.596-.666 12.792a41.852 41.852 0 0 1-7.522 16.665c-3.812 5.075-8.777 9.277-14.421 12.161-5.853 2.997-12.42 4.606-18.995 4.538-6.902.07-13.793-1.711-19.86-4.996-7.04-3.81-12.945-9.697-16.799-16.73A42.058 42.058 0 0 1 .541 46.474C.02 40.679.48 34.748 2.323 29.21 4.836 21.264 9.827 14.15 16.37 9.02 22.526 4.15 30.084 1.113 37.88.318zm-1.54 1.266C26.666 2.96 17.558 7.963 11.218 15.42 6.655 20.77 3.45 27.295 2.136 34.222c-.827 3.79-.657 7.697-.566 11.548.555 6.963 3.055 13.735 7 19.48 6.664 9.832 17.828 16.473 29.648 17.497 1.954.107 3.912.078 5.866.067 2.822.005 5.622-.475 8.346-1.183 5.631-1.456 10.925-4.171 15.429-7.858 8.473-6.872 14.054-17.298 14.848-28.22.041-3.582.248-7.212-.477-10.744a40.071 40.071 0 0 0-7.543-17.324c-4.067-5.508-9.61-9.878-15.819-12.711-4.976-2.216-10.407-3.559-15.87-3.467-2.221.007-4.456-.052-6.658.277zM15.576 66.746c.587-1.046 1.547-1.801 2.402-2.615.842.68 1.558 1.497 2.34 2.244a32.21 32.21 0 0 1-.71.812c-.535-.297-1.02-.873-1.689-.751.299.489.63.954.96 1.423-.292.218-.59.428-.903.613-.337-.257-.61-.694-1.042-.772-.544.39-.942.982-1.589 1.222l.118-.135c.47-.53.983-1.02 1.488-1.517.416.353.83.707 1.251 1.054l.379-.64c-.329-.349-.655-.7-.982-1.052l.708-.714c.383.356.768.708 1.157 1.055.168-.168.337-.336.507-.502a11.8 11.8 0 0 0-1.99-1.993c-.823.73-1.583 1.534-2.405 2.268zm50.218-2.598c.4.03.8.02 1.203.024.664.183.834.97 1.365 1.336.354.286.822.489 1.014.93.171.537.165 1.198-.253 1.624-.598.7-1.28 1.33-1.971 1.936-.894-.814-1.717-1.702-2.59-2.54-.356-.378-.71-.758-1.07-1.133.78-.712 1.469-1.522 2.302-2.177zm-.022.33c-.696.548-1.272 1.229-1.895 1.857 1.023 1.19 2.183 2.255 3.301 3.351.799-.853 2.232-1.596 2.026-2.953-.055-.63-.764-.782-1.182-1.114-.313-.345-.49-.796-.842-1.104-.398-.3-1.016-.389-1.408-.037zM20.143 67.49c.657-.04 1.316-.037 1.976 0a8.216 8.216 0 0 1-1.976 0zm.966 1.297a.976.976 0 0 1 1.13.447c.348 1.166-.764 2.594-1.983 2.41-1.12-.764-.156-2.46.853-2.857zm.194.212c-.705.144-1.103.868-1.362 1.482-.211.5.31 1.102.846.917.629-.232 1.101-.806 1.332-1.426.226-.497-.283-1.12-.816-.973zm35.762 2.383c-.398-.764.69-.98 1.149-1.31.711.979 1.162 2.12 1.886 3.085.557.199 1.057-.33 1.564-.504.175.353.605.762.388 1.179-.825.628-1.767 1.082-2.68 1.567-.728-1.364-1.594-2.648-2.307-4.017zm.089-.469c.644 1.452 1.5 2.81 2.356 4.143.832-.419 1.628-.901 2.422-1.384-.12-.244-.242-.489-.366-.729-.454.245-.892.528-1.375.72-.254-.067-.313-.382-.46-.565-.506-.895-1.004-1.794-1.546-2.67-.343.158-.687.321-1.031.485zm-32.279-.375c1.21-.24 2.76.041 3.24 1.333a3.73 3.73 0 0 1-.015 2.21c-.074.312-.359.506-.557.74.503-.976.905-2.255.168-3.225-.583-.893-1.72-.956-2.674-1.045l-.162-.013zM29.07 72.1l.366-.01c.805.302 1.6.636 2.428.87.218.07.433.142.65.214-.017.401-.073.8-.273 1.157-.318-.05-.636-.112-.956-.099-.346.297-.424.784-.587 1.192-.222.753-.472 1.498-.818 2.205-.453-.124-1.118-.078-1.382-.504.007-.773.324-1.533.677-2.21.12-.178.24-.355.361-.53a109.03 109.03 0 0 0-.9 2.635l1.096.439c.49-1.183.883-2.404 1.334-3.6.359.074.718.144 1.077.216.045-.238.093-.474.139-.71a32.225 32.225 0 0 0-2.994-1.05l-.34.535c.312.212.627.422.93.649-.024.065-.068.196-.092.262-.344-.223-.69-.439-1.038-.653.11-.336.216-.672.322-1.008zm-8.918.836c.561-.04 1.127-.057 1.686.008-.553.131-1.13.048-1.686-.008zm36.63 1.482c.392.044.781.092 1.17.148-.13 1.002-.622 2.092-1.655 2.419-.801.216-1.815.242-2.42-.421.846.297 1.847.578 2.672.063.69-.375 1.012-1.129 1.162-1.864a35.568 35.568 0 0 0-.681-.061c-.172.262-.344.521-.52.781.083-.358.174-.712.272-1.065z" fill="#BB8A1A"/><path d="M36.34 1.584c2.202-.33 4.437-.27 6.658-.277 5.464-.092 10.895 1.25 15.87 3.466 6.208 2.834 11.752 7.204 15.82 12.712a40.073 40.073 0 0 1 7.543 17.324c.724 3.532.518 7.162.476 10.744-.794 10.922-6.375 21.347-14.848 28.22-4.504 3.686-9.797 6.402-15.428 7.858-2.725.707-5.525 1.188-8.347 1.183-1.954.011-3.912.04-5.866-.067-11.82-1.024-22.983-7.665-29.648-17.497-3.945-5.745-6.445-12.517-7-19.48-.091-3.851-.26-7.759.566-11.549 1.314-6.926 4.52-13.45 9.082-18.801C17.558 7.963 26.666 2.96 36.34 1.584zm3.908 1.48c0 2.864-.007 5.726.002 8.59 1.92.111 3.85.146 5.768.007.157-.764.144-1.55.005-2.317a28.01 28.01 0 0 0-2.494-.128c-.183-2.048.076-4.109-.144-6.154a60.117 60.117 0 0 0-3.137.002zm-8.103 1.153c-.054.554.015 1.109.14 1.648.472 2.248.826 4.523 1.385 6.754 1.8-.24 3.6-.579 5.349-1.067a14.015 14.015 0 0 0-.375-1.871 6.25 6.25 0 0 0-.779.109c-.602-.018-1.203-.03-1.806-.068.038-.216.072-.432.11-.646.321-.122.665-.231.907-.491.374-.072.748-.131 1.124-.19a4.747 4.747 0 0 0-.389-2.046c-.355.073-.71.149-1.064.225-.513-.028-1.04-.059-1.506-.297.39-.25.825-.43 1.182-.73a7.667 7.667 0 0 0 1.262-.33c-.2-.599-.094-1.435-.577-1.863-1.664.214-3.287.697-4.963.863zm17.207.332c-1.195.534-1.558 2.076-1.13 3.23.381.85 1.204 1.347 1.848 1.974-.144.425-.42.779-.773 1.052-.235-.448-.463-.9-.68-1.358a6.043 6.043 0 0 0-1.759.541c.153.544.314 1.105.679 1.548.875 1.15 2.552 1.458 3.864.985 1.101-.393 1.808-1.607 1.656-2.76a3.159 3.159 0 0 0-.996-1.713c.578-.153 1.15-.345 1.681-.627.449-2.298-2.49-3.949-4.39-2.872zM26.247 6.524c.22.755.609 1.44.963 2.137-.148.253-.165.631-.444.78-.26.03-.524.008-.785-.003-.37-.746-.677-1.523-1.068-2.259-.864.334-1.756.648-2.49 1.236.688 1.53 1.417 3.04 2.142 4.553.48.998.87 2.043 1.473 2.978.87-.256 1.684-.67 2.45-1.149-.275-.753-.657-1.453-1.014-2.165.035-.28.072-.557.11-.836.3-.135.603-.275.9-.42.447.913.824 1.863 1.303 2.762.902-.203 1.71-.674 2.506-1.126-1.083-2.576-2.382-5.054-3.54-7.597-.912.173-1.706.668-2.506 1.11zm30.468.832c-1.01 2.13-2.17 4.189-3.136 6.34 1.55.96 3.203 1.75 4.865 2.486.357-.56.655-1.155.832-1.795-.592-.312-1.197-.6-1.791-.904.013-.345.035-.687.06-1.03.475.1.952.2 1.428.293.266.14.531.277.8.412.41-.552.73-1.17.884-1.845a38.28 38.28 0 0 0-1.645-.877 35.11 35.11 0 0 1-.065-.692c.43.055.862.107 1.295.162.326.17.655.331.99.486.374-.574.72-1.174.888-1.846-1.521-.767-3.016-1.59-4.563-2.295-.464.14-.599.73-.842 1.105zM18 11.549c-2.084.714-3.44 3.194-2.735 5.327.43 1.233 1.282 2.342 2.41 3.008 2.336 1.277 5.826-.037 6.322-2.781l.241.046c.05-.738.425-1.843-.244-2.347-.04-.1-.123-.306-.167-.406a9.019 9.019 0 0 0-1.876.395c.137 1.052.153 2.37-.974 2.89-.253-.25-.762-.229-1.006.024-.811-.32-1.518-.901-1.927-1.68-.412-.688-.368-1.673.267-2.216.712.002 1.425-.061 2.113-.251.065.008.198.028.263.037.135-.714.279-1.434.235-2.164-.968-.098-1.978-.192-2.922.118zm47.35 1.858c-1.955 1.072-3.99 2-5.913 3.13.41.463.792 1.048 1.407 1.245.379-.094.716-.297 1.067-.461.367.072.809.028 1.098.31.37.325.231.869.264 1.303-.066.297-.396.655-.124.937a7.463 7.463 0 0 0 1.934 1.668c.644-1.946 1.295-3.886 1.91-5.84.37-1.207.886-2.375 1.11-3.626-.98.306-1.85.858-2.752 1.334zm-24.03-.552c-4.769.076-9.499 1.436-13.64 3.805-6.035 3.447-10.774 9.124-13.059 15.71-1.5 4.205-1.924 8.754-1.434 13.181.725 6.191 3.49 12.135 7.798 16.632 4.502 4.846 10.734 8.007 17.272 8.865 5.041.642 10.261.037 14.965-1.923 5.96-2.447 11.04-6.955 14.237-12.559 3.973-6.89 4.88-15.438 2.56-23.034-1.966-6.623-6.424-12.43-12.223-16.139-4.867-3.135-10.694-4.744-16.475-4.538zM7.603 29.25c-1.81.517-3.081 2.427-2.874 4.302.134 1.52 1.194 2.902 2.617 3.434 1.53.6 3.397.138 4.478-1.1 1.28-1.373 1.364-3.652.246-5.147-.975-1.38-2.866-1.978-4.467-1.49zm66.798-.004c-1.75.49-3.068 2.255-2.905 4.095-.017 2.31 2.29 4.228 4.545 3.875 2.091-.19 3.789-2.218 3.562-4.325-.043-2.534-2.822-4.434-5.202-3.645zM6.808 47.657c-.516-.021-1.206-.05-1.434.531a32.78 32.78 0 0 1-.875 2.216c-.252.552.222 1.015.59 1.36-.068.386-.207.777-.129 1.174.137.415.555.616.87.878.475.327.854.775 1.33 1.1.477.26.984-.037 1.445-.181.415.266.938.629 1.432.314.663-.43 1.322-.867 2.008-1.264.54-.33.385-1.028.344-1.554.407-.264.913-.635.783-1.199-.213-.803-.444-1.6-.622-2.41-.153-.556-.808-.617-1.273-.735-.187-.472-.392-1.102-.999-1.127-.846-.013-1.686-.115-2.53-.146-.56.005-.74.629-.94 1.044zm67.309-.783c-.392.179-.429.655-.561 1.013-.499.12-1.212.146-1.356.757-.178.81-.413 1.607-.614 2.413-.095.565.399.934.782 1.248-.03.452-.188 1.009.195 1.362.405.337.901.53 1.325.839.455.292.906.76 1.5.657.29-.107.513-.33.757-.513.455.284 1.062.596 1.556.203a48.63 48.63 0 0 1 1.795-1.485c.509-.4.26-1.087.145-1.61.416-.313.864-.813.603-1.372-.328-.73-.592-1.488-.89-2.233-.254-.554-.91-.513-1.418-.508-.166-.391-.316-.924-.799-1.009-.579-.066-1.153.098-1.73.094-.43.026-.894-.068-1.29.144zm-8.323 17.274c-.833.655-1.523 1.465-2.302 2.176-.198.183-.393.369-.587.559-.257.26-.52.513-.783.766.454 1.236 1.932 1.984 1.908 3.384a42.24 42.24 0 0 0-.553-.066c-.787-.812-1.362-1.805-2.069-2.685-.533.19-.966.561-1.395.92.644.973 1.282 1.984 2.165 2.759l.161.292c.962.699 2.677.406 3.02-.86.466-.087.47-1.17.011-1.27-.07-.339-.265-.63-.468-.898-.172-.574-.452-1.152-.34-1.768.873.838 1.696 1.727 2.59 2.541.692-.607 1.373-1.236 1.972-1.936.417-.426.424-1.087.252-1.624-.192-.441-.66-.644-1.014-.93-.531-.367-.7-1.153-1.364-1.336-.053-.48-1.123-.478-1.204-.024zm-50.218 2.598c-.365.34-.705.707-1.042 1.076.307.323.618.644.93.965l-.118.135c.646-.24 1.044-.832 1.588-1.223.433.079.705.516 1.042.773l-.115.068.594.367c-.198.785-.49 1.645-.041 2.405l.098-.231c.56 1.414 2.397 2.14 3.72 1.355l.62.096c.037.86.144 1.84.97 2.317.969 1.006 2.788 1.045 3.721-.029.198-.233.483-.428.557-.74.283-.388.673-.698 1.14-.4-.037.411-.06.824-.065 1.236-.352.677-.67 1.437-.677 2.21.264.425.93.38 1.382.504.346-.708.596-1.452.818-2.205a3.071 3.071 0 0 1 1.673-1.072l-.13-.022c.2-.356.257-.755.274-1.157-.218-.072-.433-.144-.65-.214-.542-.744-1.574-.88-2.429-.868l-.365.008a9.326 9.326 0 0 1-.956-.229c-.48-1.292-2.03-1.574-3.24-1.334-.328 0-.63.164-.935.267-.013-.616-.028-1.251-.322-1.808-.035.094-.104.284-.137.38-.322-.686-.79-1.371-1.567-1.565-.68-.149-1.49-.214-2.097.205l-.812-.177c.2-.218.4-.436.603-.653.242-.266.479-.537.71-.812-.782-.746-1.498-1.563-2.34-2.244-.855.815-1.814 1.57-2.402 2.616zm4.567.744c.655.08 1.319.079 1.976 0-.66-.037-1.319-.04-1.976 0zm36.922 3.892c.714 1.369 1.58 2.652 2.306 4.017.914-.485 1.856-.939 2.681-1.568.218-.417-.213-.825-.387-1.178-.507.174-1.008.702-1.565.504-.724-.965-1.175-2.107-1.886-3.085-.46.33-1.547.546-1.149 1.31zm-4.57 2.77c-.025.758.277 1.568.93 1.993.141.149.291.288.452.42.605.663 1.62.637 2.42.42 1.033-.327 1.525-1.416 1.656-2.418a35.2 35.2 0 0 0-1.17-.148c-.099.353-.19.707-.273 1.065l-.209.308c-.38-.116-.772-.199-1.14-.347-.444-.367-.566-.967-.766-1.478.21-.282.403-.581.668-.81.479.006.942.144 1.404.26.291-.352.522-.75.561-1.212-.58-.281-1.186-.594-1.847-.543-1.317.095-2.492 1.18-2.685 2.49zm-32.343-1.216c.557.057 1.134.14 1.686.01-.559-.066-1.125-.049-1.686-.01zm13.005.446l.17.043c-.135.443-.26.89-.346 1.345-.368.474-.536 1.048-.383 1.642-.2.68-.407 1.37-.398 2.09-.037.374.611.468.77.167.28.109.574.194.872.249.418.508 1.321.445 1.789.035.713-.596.833-1.533.687-2.404l.085-.277.333-.14c.344-.82-.03-1.901-.907-2.19-.768-.57-1.75-.656-2.672-.56zm6.208.526c-.636 1.157-1.167 2.366-1.78 3.534-.314.622-.7 1.231-.784 1.938.055.428 1.032.424 1.03-.028.272-.334.54-.672.811-1.006.672.07.814.81 1.06 1.316.513.05 1.027.083 1.545.105-.22-1.083-.623-2.115-.93-3.174-.284-.906-.474-1.853-.952-2.685zm6.325.342c-.294.55-.015 1.173.06 1.745.257 1.067.1 2.242.684 3.22l.015.213.124.164c.855.173 1.747-.157 2.537-.48.229-.046.455-.1.681-.162a43.131 43.131 0 0 0-.194-1.292c-.489-.11-.99-.107-1.486-.1-.126-.636-.184-1.282-.245-1.924-.074-.281.01-.775-.383-.825a85.466 85.466 0 0 1-.094-.744c-.548-.28-1.197-.114-1.7.185zm-3.73.149c-.017.738-.104 1.508.19 2.209.006.447.021.897.052 1.345-.32.574-.126 1.262-.059 1.875 1.169.116 2.34-.041 3.497-.207.028-.45.035-.898.021-1.345a75.531 75.531 0 0 0-1.72-.066c-.02-1.274.086-2.556-.096-3.822a4.974 4.974 0 0 0-1.885.01zm3.669-54.945c.452.543.642 1.281 1.216 1.73 1.303 1.27 3.22 1.354 4.918 1.597.354.724 1.033 1.17 1.64 1.663-.429 1.094-1.231 1.967-1.884 2.923-.39-.253-.768-.845-1.288-.596-.718.345-1.112 1.192-.947 1.971.472.042.947.053 1.419.022-.009.36-.022.718-.018 1.079.022.443.077.881.129 1.322-.716-.419-1.55-1.109-2.42-.71-.966.494-.931 1.813-.67 2.717.15.678.72 1.124 1.323 1.394.653-.026 1.164-.434 1.64-.836.146.365.29.73.423 1.1-.011.67-.029 1.444-.566 1.928-.67.725-1.714.716-2.62.768-.198 1.28.762 2.262.914 3.476.35 2.159.662 4.387 1.76 6.317.594 1.264 1.752 2.27 3.14 2.53 1.062.219 2.306-.096 2.948-1.023.594-.902.588-2.09.266-3.09-.65-1.872-2.38-3.073-3.194-4.852-.477-1.044-.444-2.345.224-3.298.903-1.337 2.276-2.231 3.427-3.33.57-.556 1.118-1.224 1.23-2.04.14-1.404-1.343-2.738-2.723-2.321-.722.177-1.04.908-1.366 1.5-.137.229-.279.458-.42.683 0-.646.013-1.297.137-1.932.204-.31.426-.607.677-.884 1.638-1.415 4.501-1.068 5.694.777.446 1.133.448 2.473-.21 3.528-1.074 1.755-2.984 2.691-4.455 4.051-.481.43-.799 1-1.07 1.576 1.024-.74 2.17-1.434 3.49-1.347 1.017.116 1.886.762 2.467 1.585.563 1.286.143 2.78-.912 3.665l-.163.169c.135-.845.446-1.85-.19-2.57-.726-1.093-2.493-1.157-3.3-.13-.42.466-.42 1.13-.414 1.72 1.006 1.414 2.379 2.656 2.785 4.413.446 1.443-.104 3.203-1.475 3.928-1.625.875-3.599.528-5.241-.123l-.488-.277c-.459-.295-.918-.59-1.397-.856.22 1.345.916 2.633 2.067 3.39 1.084.756 2.463.712 3.7.446-.32.412-.66.812-.947 1.25-1.558 2.166-1.473 4.95-1.314 7.486.085.723-.631.943-1.195 1.05-.511.046-.668.583-.912.945l-.132-.146-.105-.118c-.1-.277-.19-.559-.278-.838l-.599-.061c-.676-.046-.985.565-1.244 1.08-.113.092-.342.273-.455.365-.03-.537-.057-1.072-.08-1.607-.418.03-.838.063-1.252.129-.37.041-.7.218-1.011.41-.172.398-.303.812-.462 1.218-.07-.109-.206-.325-.276-.432.004-1.035-.638-2.438.418-3.159 1.225-.794 2.759-.5 4.136-.641.661-1.111 1.251-2.345 1.216-3.668-.032-.746-.259-1.563-.866-2.045-.696-.275-1.494-.125-2.188-.417-.616-.439-.716-1.301-1.265-1.794-.535-.19-1.116-.17-1.675-.175-1.388.175-2.92.827-3.538 2.167-.379.87.372 1.694 1.134 2.005.376.168.766.3 1.15.447-.176.08-.356.157-.535.234-.715.3-1.507.563-2.001 1.2-.805 1.022-.794 2.428-1.497 3.504-.47.672-1.406.454-2.078.744-.39.384-.422.987-.625 1.476-.135-.53-.267-1.063-.396-1.594-.448-.008-.894-.02-1.34-.004-.542.314-.96.799-1.12 1.412l-.168.452-.235-.375a23.33 23.33 0 0 1 .115-1.52c-.555.007-1.11.007-1.662.049-.118.074-.355.222-.474.299-.468.211-.22 1.176-.814 1.065l-.035-.146c-.063-.876-.2-1.747-.242-2.624a1.078 1.078 0 0 1 .677-1.092c1.643-.626 3.547.352 5.113-.56 1.66-1.005 2.067-3.083 2.468-4.836-.647-.47-1.623-.871-1.617-1.814-.1-.745.237-1.474.812-1.939 1.956-1.74 4.63-2.25 6.775-3.682.71-.459 1.323-1.29 1.062-2.177-.172-.849-.983-1.266-1.697-1.584.063.626.235 1.261.122 1.892-.479.69-1.436.644-2.159.906l-.463-.694c-.366-.561-.67-1.155-.988-1.742-1.32 1.64-2.929 3.202-5.048 3.682-.435-.33-.833-.75-1.366-.916-1.458-.214-3.175.81-3.14 2.42l-.52.136-.009-.188a47.434 47.434 0 0 0-.117-1.574c-.527.16-1.038.37-1.536.603.063-.507.143-1.011.23-1.513-.291.068-.583.137-.87.223l-.614.331c.116-.589.36-1.14.662-1.654-.42.039-.84.067-1.247.18l-.28.101c.128-.864.928-1.419 1.699-1.678 1.549-.372 3.259.087 4.715-.699 1.172-.633 2.295-1.36 3.464-2.004 1.394-.83 2.856-1.545 4.173-2.502-.925-.067-1.858-.137-2.744-.43-.18-.33-.368-.655-.557-.978-.444.496-.89 1.02-1.501 1.31-.627.321-1.35.306-2.035.328a10.536 10.536 0 0 1-1.116-.924c.599-.183 1.66.053 1.795-.777.22-.722-.446-1.224-1.016-1.484-.975-.387-2-.616-3.018-.85-.002 2.576-.017 5.152.015 7.728-.245.04-.491.079-.735.114-.165-2.666.002-5.34-.074-8.01-.311-.032-.624-.063-.933-.1-.392-.052-.838-.107-1.108-.428-.226-.478-.368-.989-.566-1.478-.287-.545.346-1.07.131-1.622-.072-.373-.207-.792.033-1.135.27-.541.942-.62 1.48-.574.332.007.665.02.998.03l.002-.621c-.333-.02-.666-.038-.997-.06a6.754 6.754 0 0 1-1.431-.233c.283-.196.592-.347.91-.476-.225-.168-.451-.332-.66-.517-.731-1.01-1.216-2.262-1.016-3.528.11-1.17.918-2.091 1.7-2.899 1.686-.904 3.814.042 4.732 1.616.75 1.707.304 3.877-1.182 5.036-.454.423-1.186.602-1.39 1.246.074.356.072.755.28 1.068.505.366 1.132.5 1.715.698.803.319 1.645.6 2.367 1.087.838.76 1.724 1.493 2.38 2.426.453.64.449 1.458.575 2.204.997-.172 1.586-1.137 1.658-2.089.002-.532-.298-1.11.044-1.596.666-1.226 1.47-2.442 1.623-3.866-1.032-.473-2.252-.964-2.59-2.176l-.08-.188c.472.26.883.655 1.417.786.463.057.911-.122 1.344-.266 1.278-.308 2.12-1.869 1.456-3.06-.372-.776-1.338-.599-2.039-.623.581-.901 1.717-1.021 2.692-1.008l1.205-.024c.01-.917.178-1.83.579-2.66zm-15.875 3.532c-.2.277-.427.539-.579.847-.178.465.14.904.305 1.318.55.428 1.07.924 1.207 1.642 1.173-.568 2.08-2.072 1.478-3.344-.455-.891-1.65-1.048-2.411-.463zm17.472 1.408c.518.633 1.458 1.33 2.287.877-.42-.345-.84-.713-1.001-1.255-.442.06-1.18-.246-1.286.378zm1.808-.408c-.072.473.19.803.661.855.12-.305.24-.609.357-.914-.34.017-.679.037-1.018.059zm-20.599 5.852a26.89 26.89 0 0 0-.058 1.11 7.906 7.906 0 0 0 2.247-.03c-.563-.604-1.273-1.36-2.189-1.08zm.233 1.629c-.444.13-.25.665-.322 1.006.77.26 1.636.024 2.3-.406-.611-.323-1.275-.61-1.978-.6zm-.03 1.633l.008.696a4.68 4.68 0 0 0 1.752-.328c-.494-.397-1.147-.663-1.76-.369z" fill="#00318A"/><path d="M40.248 3.064a60.128 60.128 0 0 1 3.138-.002c.22 2.045-.04 4.106.144 6.154a28.01 28.01 0 0 1 2.493.128c.14.767.152 1.553-.004 2.317-1.92.14-3.85.104-5.768-.007-.009-2.864-.002-5.726-.002-8.59zm.203.155c-.002 2.768-.005 5.534 0 8.302 1.808.13 3.627.07 5.437.03.03-.552.022-1.106-.082-1.648.021-.096.067-.286.089-.38-.888-.021-1.776-.02-2.661-.02-.12-2.07.067-4.151-.083-6.218-.072-.038-.211-.116-.283-.153-.807.013-1.614.004-2.417.087zm-5.324 2.628a13.6 13.6 0 0 1 1.296-.3c-.357.3-.792.48-1.181.73.466.238.992.269 1.506.297-.466.096-.93.19-1.395.288a167.73 167.73 0 0 1-.226-1.015zM27.21 8.661c.1.214.196.43.294.644-.414.22-.831.435-1.252.644-.09-.17-.182-.34-.271-.51.26.01.524.032.785.002.279-.149.296-.527.444-.78zm31.706.622c.448.192.892.398 1.325.622-.433-.054-.864-.106-1.294-.161.02.231.04.463.065.692-.176-.09-.35-.181-.522-.275.141-.293.282-.585.426-.878zm2.994 8.038c.222-.107.444-.21.666-.312.357.29.711.585 1.064.882-.118.349-.237.698-.368 1.043-.033-.434.107-.978-.263-1.303-.29-.282-.731-.238-1.099-.31zM17.92 66.435c.667-.122 1.152.454 1.688.751-.203.216-.403.435-.603.653l.811.177c-1.005.677-1.438 1.88-1.305 3.065l-.098.231c-.448-.76-.157-1.62.041-2.405l-.594-.367.116-.068c.313-.185.611-.395.903-.613-.331-.47-.662-.935-.96-1.424zm34.575 7.717c.194-1.31 1.369-2.395 2.685-2.49.662-.05 1.267.261 1.848.543-.04.463-.27.86-.562 1.212-.461-.116-.925-.254-1.403-.26-.266.229-.46.528-.668.81.2.51.322 1.11.766 1.478.367.148.759.23 1.14.347-.522 0-1.208.198-1.55-.33-.422-.61-.835-1.56-.254-2.2.48-.572 1.301-.23 1.94-.245.116-.214.231-.426.349-.637-.627-.212-1.286-.612-1.963-.384-1.066.227-2.045 1.23-1.923 2.377 0 .628.278 1.209.524 1.772-.652-.425-.955-1.235-.929-1.993zm-19.339-.77c.923-.097 1.904-.01 2.672.56-.829-.194-1.677-.294-2.502-.517l-.17-.043zm12.533.868c.503-.299 1.151-.465 1.7-.185-.527.118-1.056.22-1.584.325.08 1.624.502 3.205.628 4.825-.583-.978-.426-2.153-.683-3.22-.076-.572-.354-1.194-.06-1.745zm-3.73.149a4.972 4.972 0 0 1 1.885-.011c.183 1.266.076 2.547.096 3.822a76.34 76.34 0 0 1 1.721.066c.013.447.007.895-.022 1.345-1.157.165-2.328.323-3.496.207-.068-.614-.261-1.301.058-1.875l.198-.103c.007.507.013 1.013.037 1.52.153.622.997.27 1.417.135.476-.018.95-.033 1.43-.028l.254.01c-.026-.355-.05-.71-.072-1.06-.566-.012-1.131-.016-1.695-.02-.013-1.284-.013-2.572-.17-3.849a35.797 35.797 0 0 0-1.447.009c-.004.679-.004 1.36-.004 2.041-.294-.7-.206-1.471-.19-2.21zm-7.497.275c.398.028.96.266.844.76.044.521-.629.362-.95.451.03-.406.067-.81.106-1.211z" fill="#2B2F36"/><path d="M40.449 3.22c.803-.084 1.61-.075 2.417-.088-.015.227-.028.456-.039.685-.622-.235-1.288-.238-1.939-.179-.01 2.47.003 4.94-.01 7.41l.008.204c1.521.092 3.085.258 4.58-.124a56.8 56.8 0 0 0 .337-1.225c.105.542.114 1.096.083 1.649-1.81.039-3.63.1-5.437-.031-.005-2.768-.002-5.534 0-8.302z" fill="#9E8644"/><path d="M42.867 3.132c.072.037.211.116.283.153.15 2.067-.037 4.147.083 6.219.885 0 1.773-.002 2.66.02l-.089.38c-.106.41-.222.816-.337 1.224l-.109-1.135a50.379 50.379 0 0 0-2.567-.063c-.07-2.037-.076-4.078.037-6.113.01-.229.024-.458.039-.685z" fill="#A29165"/><path d="M32.146 4.217c1.675-.165 3.298-.648 4.963-.862.483.428.376 1.264.576 1.862-.409.15-.835.251-1.262.33-.437.079-.87.181-1.297.301.075.339.15.677.227 1.015.465-.098.929-.192 1.395-.288.354-.076.709-.153 1.064-.225.287.644.404 1.343.389 2.046-.376.059-.75.118-1.125.19-.446.078-.888.176-1.327.286.06.419.122.838.183 1.255.654-.04 1.296-.181 1.934-.336.257-.053.518-.09.779-.11.163.616.296 1.238.374 1.871-1.75.49-3.549.828-5.348 1.068-.56-2.231-.914-4.506-1.386-6.754-.124-.54-.194-1.094-.14-1.649zm.472.448c.028.447.08.895.178 1.334.435 2.017.773 4.054 1.24 6.064 1.41-.142 2.799-.467 4.182-.77.481-.112.1-.734.12-1.057-.905.059-1.778.34-2.683.404a37.577 37.577 0 0 1-.424-2.13c.833-.189 1.669-.363 2.5-.562-.065-.336-.133-.674-.2-1.013-.85.088-1.686.258-2.53.382a7.509 7.509 0 0 1-.294-1.888c.809-.15 1.614-.325 2.415-.524a58.39 58.39 0 0 0-.22-1.026c-1.44.199-2.855.535-4.284.786zm24.097 2.692c.244-.376.379-.965.842-1.105 1.547.705 3.042 1.528 4.563 2.294-.168.673-.514 1.273-.888 1.847a23.083 23.083 0 0 1-.99-.487 19.71 19.71 0 0 0-1.325-.622c-.144.293-.285.585-.426.878.172.094.346.185.522.275.555.281 1.105.57 1.645.877-.155.675-.475 1.293-.884 1.845a40.11 40.11 0 0 1-.8-.413 40.05 40.05 0 0 0-1.428-.731c-.204.39-.407.786-.602 1.181.178.096.359.192.541.288.594.304 1.2.592 1.791.904-.176.64-.474 1.236-.831 1.794-1.662-.735-3.316-1.526-4.865-2.486.966-2.15 2.126-4.209 3.135-6.34zm.873-.592c-1.156 2.231-2.318 4.46-3.399 6.728 1.299.803 2.696 1.43 4.05 2.133.158-.323.306-.653.439-.99-.757-.405-1.515-.811-2.28-1.204.224-.707.572-1.365.983-1.98.775.356 1.52.775 2.313 1.094.14-.33.28-.66.422-.99-.725-.401-1.462-.774-2.191-1.163.218-.594.494-1.163.803-1.714.811.31 1.566.74 2.356 1.096a7.12 7.12 0 0 0 .396-1.017c-1.29-.677-2.6-1.318-3.892-1.993zm7.763 6.643c.903-.476 1.773-1.028 2.752-1.334-.224 1.25-.74 2.419-1.11 3.626-.615 1.954-1.265 3.894-1.91 5.84-.74-.433-1.386-1.014-1.934-1.668-.272-.282.059-.64.124-.937.13-.345.25-.694.368-1.043a81.49 81.49 0 0 0-1.064-.882 44.77 44.77 0 0 0-.666.312c-.35.163-.688.367-1.066.46-.616-.196-.997-.781-1.408-1.244 1.924-1.13 3.958-2.058 5.914-3.13zm.631.19a329.11 329.11 0 0 1-5.775 3.014c.21.265.433.516.668.758.586-.249 1.16-.522 1.721-.821a8.443 8.443 0 0 1 1.456 1.29c-.196.566-.383 1.13-.574 1.694.415.448.866.873 1.418 1.15.784-2.58 1.745-5.105 2.472-7.7-.477.17-.942.37-1.386.615zM33.327 73.426c.825.223 1.673.323 2.502.517.877.289 1.251 1.37.908 2.19l-.333.14c.16-.587.31-1.376-.246-1.803-.788-.524-1.763-.603-2.672-.747-.324 1.52-.81 3.006-1 4.551.922.217 1.873.697 2.834.461.87-.364.686-1.456.999-2.185.146.871.026 1.807-.688 2.403-.596-.03-1.192-.022-1.788-.035a4.81 4.81 0 0 1-.873-.248c-.239-.114-.5-.254-.77-.166-.009-.72.198-1.41.398-2.092.16-.539.279-1.089.383-1.641.087-.454.211-.902.346-1.345z" fill="#A48C4C"/><path d="M40.888 3.639c.65-.06 1.317-.057 1.939.179-.113 2.034-.107 4.075-.037 6.112a50.04 50.04 0 0 1 2.568.063c.037.378.071.758.108 1.135-1.527-.091-3.059-.03-4.589-.08.014-2.47 0-4.94.011-7.41zm-8.272 1.026c1.43-.252 2.844-.588 4.284-.786.076.34.15.683.22 1.026-.8.198-1.606.373-2.415.524.01.64.122 1.272.293 1.888.845-.125 1.68-.295 2.53-.382.068.338.136.677.201 1.013-.831.198-1.667.373-2.5.56.117.715.266 1.424.424 2.131.906-.063 1.778-.345 2.683-.403-.02.322.361.945-.12 1.056-1.383.303-2.772.629-4.181.77-.468-2.01-.806-4.047-1.24-6.064a8.607 8.607 0 0 1-.18-1.333zM49.4 5.06c1.44-.891 3.64-.029 3.956 1.694a13.84 13.84 0 0 1-.886.325c-.237-.559-.457-1.334-1.196-1.347-.764-.186-1.238.75-.877 1.36.422.733 1.249 1.105 1.751 1.777.7.799.514 2.133-.28 2.8-.864.77-2.202.74-3.186.232-.663-.345-1.035-1.026-1.31-1.692.3-.039.612-.2.916-.113.381.471.705 1.2 1.43 1.13.777.042 1.257-.973.818-1.582-.618-.795-1.658-1.277-1.967-2.294-.159-.834.048-1.836.831-2.29zm8.186 1.705c1.292.674 2.602 1.316 3.892 1.993-.104.349-.24.687-.396 1.017-.79-.356-1.545-.786-2.356-1.096-.31.55-.585 1.12-.803 1.714.729.388 1.466.761 2.191 1.163-.141.33-.283.66-.422.989-.792-.319-1.538-.738-2.313-1.094-.411.616-.76 1.273-.983 1.98.765.393 1.523.8 2.28 1.205-.133.337-.28.666-.44.99-1.353-.704-2.75-1.33-4.049-2.134 1.081-2.268 2.243-4.496 3.399-6.727zm-41.498 6.994c.814-1.55 2.668-2.216 4.332-1.889-.028.365-.06.73-.091 1.094-.792.011-1.693-.041-2.324.53-.707.584-.942 1.631-.526 2.454.513 1.076 1.457 2.1 2.689 2.262a1.975 1.975 0 0 0 1.997-.976c.388-.594.279-1.332.375-2 .206-.334.704-.148 1.037-.233.046.849.105 1.735-.21 2.543-.523 1.39-1.972 2.312-3.432 2.342-2.992.295-5.49-3.538-3.847-6.127zm49.892-.162a9.47 9.47 0 0 1 1.386-.615c-.727 2.595-1.688 5.12-2.472 7.701-.552-.277-1.003-.703-1.418-1.15.191-.564.378-1.129.574-1.694a8.442 8.442 0 0 0-1.456-1.29 21.32 21.32 0 0 1-1.72.82 9.782 9.782 0 0 1-.669-.757 330.16 330.16 0 0 0 5.775-3.015zm-2.574 2.506c.3.275.614.535.936.784.209-.478.367-.974.472-1.485a8.064 8.064 0 0 0-1.408.701z" fill="#FFFFFA"/><path d="M49.35 4.549c1.9-1.076 4.839.574 4.39 2.873-.567.02-1.133.052-1.7.085-.142-.404-.288-.804-.434-1.205-.272-.013-.546-.027-.818-.037-.067.862.718 1.288 1.27 1.783a3.16 3.16 0 0 1 .997 1.714c.153 1.152-.554 2.366-1.655 2.759-1.312.474-2.99.166-3.865-.985-.365-.443-.526-1.004-.679-1.547a6.045 6.045 0 0 1 1.758-.542c.218.459.447.91.682 1.358.424.009.805-.155 1.124-.43-.115-.21-.228-.419-.352-.622-.644-.627-1.466-1.124-1.847-1.973-.429-1.155-.066-2.696 1.129-3.231zm.05.51c-.783.455-.99 1.457-.831 2.29.309 1.018 1.349 1.5 1.967 2.295.44.609-.042 1.624-.818 1.582-.725.07-1.05-.659-1.43-1.13-.304-.088-.616.074-.916.113.274.666.646 1.347 1.31 1.692.983.509 2.322.537 3.185-.231.795-.668.982-2.002.281-2.801-.503-.672-1.33-1.044-1.752-1.777-.36-.61.114-1.546.877-1.36.74.013.96.788 1.197 1.347.3-.098.594-.208.886-.325C53.04 5.03 50.84 4.169 49.4 5.06z" fill="#A28C51"/><path d="M26.246 6.524c.8-.44 1.595-.936 2.506-1.109 1.158 2.544 2.457 5.021 3.54 7.597-.796.452-1.603.923-2.506 1.127-.479-.9-.855-1.85-1.303-2.762-.505-.181-.956.177-1.395.369.126.297.25.594.385.886.357.712.74 1.413 1.014 2.166-.766.478-1.58.893-2.45 1.148-.603-.934-.992-1.98-1.473-2.977-.725-1.513-1.454-3.024-2.141-4.554.733-.587 1.625-.902 2.489-1.236.392.736.698 1.513 1.068 2.26.09.17.18.34.272.51.42-.21.838-.423 1.251-.644-.098-.213-.193-.43-.293-.643-.355-.697-.745-1.382-.964-2.138zm.609.203c.322.965.842 1.847 1.192 2.801-.648.38-1.327.699-2.027.965-.503-.871-.875-1.81-1.352-2.694a14.69 14.69 0 0 0-1.651.736c1.005 2.323 2.147 4.588 3.246 6.872a11.7 11.7 0 0 0 1.619-.819c-.424-1.024-.947-2.004-1.369-3.03.675-.355 1.362-.694 2.08-.954.534.98.901 2.05 1.524 2.982.537-.24 1.064-.5 1.573-.799-1.04-2.283-2.096-4.566-3.26-6.789-.54.21-1.066.452-1.575.73z" fill="#A48C49"/><path d="M26.856 6.728c.509-.278 1.035-.52 1.575-.73 1.164 2.223 2.22 4.506 3.26 6.79-.51.298-1.036.558-1.574.798-.622-.932-.99-2.001-1.523-2.982-.718.26-1.405.599-2.08.954.422 1.026.945 2.007 1.369 3.03a11.73 11.73 0 0 1-1.62.819c-1.098-2.283-2.24-4.55-3.245-6.872.537-.273 1.083-.53 1.651-.736.476.884.849 1.823 1.351 2.694.7-.266 1.38-.585 2.028-.965-.35-.954-.87-1.836-1.192-2.8z" fill="#FFFFFC"/><path d="M50.79 6.265c.272.01.546.024.818.037.146.401.292.8.433 1.205.568-.033 1.134-.066 1.702-.085-.531.281-1.103.473-1.682.626-.553-.495-1.338-.921-1.27-1.783z" fill="#03317F"/><path d="M35.747 8.871c.44-.109.881-.207 1.327-.286-.241.26-.585.37-.907.491l-.109.647c.603.037 1.203.05 1.806.067-.637.155-1.28.297-1.934.337l-.183-1.256z" fill="#374041"/><path d="M50.07 9.753c.123.203.236.412.352.622-.32.275-.7.439-1.125.43a2.24 2.24 0 0 0 .772-1.052z" fill="#424740"/><path d="M40.879 11.047c1.53.05 3.061-.01 4.589.081-1.495.382-3.06.216-4.58.124l-.01-.205z" fill="#E1C278"/><path d="M18 11.55c.945-.31 1.954-.216 2.922-.118.044.729-.1 1.45-.235 2.163l-.263-.037c-.713-.127-1.501-.244-2.113.251-.635.544-.678 1.528-.267 2.216.409.78 1.116 1.36 1.928 1.68.304.184.724.23 1.005-.023 1.127-.52 1.112-1.838.975-2.89a9.018 9.018 0 0 1 1.875-.396c.044.1.126.306.168.406.072.764.078 1.537.002 2.301-.496 2.744-3.986 4.058-6.32 2.781-1.13-.666-1.98-1.774-2.412-3.008-.705-2.133.65-4.612 2.735-5.326zm-1.91 2.209c-1.643 2.589.855 6.422 3.847 6.128 1.46-.031 2.909-.952 3.431-2.343.316-.808.257-1.694.211-2.543-.333.085-.831-.1-1.038.234-.095.668.013 1.405-.374 2a1.975 1.975 0 0 1-1.997.975c-1.232-.162-2.176-1.185-2.69-2.262-.415-.823-.18-1.87.527-2.453.63-.572 1.532-.52 2.324-.53.03-.365.063-.73.091-1.094-1.665-.328-3.518.338-4.332 1.888zM45.805 74.39c.53-.105 1.058-.208 1.584-.326.03.25.061.496.094.745.113 1.056.244 2.115.516 3.143a20.95 20.95 0 0 0 1.599-.294c.072.43.135.86.194 1.292-.227.061-.453.116-.682.161-.887.1-1.78.16-2.66.317l-.016-.214c-.126-1.62-.548-3.2-.629-4.824zm.194.185c.22 1.535.46 3.065.718 4.593.95-.078 1.889-.26 2.822-.45-.06-.246-.124-.493-.185-.737-.515.087-1.029.174-1.545.253-.335-1.275-.385-2.602-.692-3.881a69.02 69.02 0 0 0-1.118.222z" fill="#A48C4D"/><path d="M27.088 11.746c.44-.192.89-.55 1.395-.369-.296.144-.599.284-.899.42-.04.279-.076.556-.111.835-.135-.292-.259-.59-.385-.886z" fill="#323C41"/><path d="M56.943 13.195c.196-.395.399-.79.603-1.18.48.233.955.478 1.427.73a78.933 78.933 0 0 1-1.427-.292c-.026.343-.048.686-.06 1.03a62.145 62.145 0 0 1-.543-.288z" fill="#2B3B48"/><path d="M41.32 12.855c5.78-.206 11.608 1.403 16.475 4.538 5.798 3.709 10.257 9.516 12.224 16.139 2.32 7.596 1.412 16.145-2.561 23.034C64.26 62.17 59.18 66.678 53.22 69.125c-4.704 1.96-9.924 2.565-14.965 1.923-6.538-.858-12.77-4.019-17.272-8.865-4.308-4.497-7.074-10.441-7.798-16.632-.49-4.427-.065-8.976 1.434-13.18 2.284-6.587 7.023-12.265 13.06-15.711 4.14-2.369 8.87-3.729 13.64-3.805zm-2.168 1.093c-3.457.34-6.836 1.371-9.924 2.965-6.079 3.115-10.935 8.533-13.385 14.925-2.185 5.645-2.487 11.99-.87 17.824 1.662 6.066 5.43 11.521 10.498 15.223 4.898 3.626 11.005 5.578 17.09 5.447 5.85-.055 11.661-2.026 16.35-5.534 5.007-3.704 8.74-9.114 10.383-15.136 1.643-5.94 1.303-12.422-.996-18.14-2.287-5.766-6.545-10.708-11.876-13.845-5.157-3.063-11.314-4.383-17.27-3.729zm23.752 52.935c.757.696 1.362 1.537 1.997 2.342.203.269.398.56.468.898.002.423-.002.844-.01 1.27-.345 1.266-2.06 1.559-3.021.86.611.07 1.258.317 1.86.061.903-.32 1.417-1.554.86-2.38-.588-.97-1.319-1.844-2.037-2.717-.202.19-.402.384-.6.578.611.948 1.414 1.766 1.975 2.749.283.572-.609 1.19-1.038.694-.78-.814-1.333-1.816-2.088-2.654-.318.242-.634.484-.947.73.612.885 1.327 1.704 1.854 2.647-.883-.775-1.52-1.786-2.165-2.76.429-.358.862-.729 1.395-.919.707.88 1.281 1.873 2.069 2.685.14.016.416.048.553.066.024-1.4-1.454-2.148-1.909-3.384.264-.253.527-.506.784-.766zm-23.54 7.025c.478.832.667 1.779.952 2.685.307 1.058.71 2.091.93 3.174a27.822 27.822 0 0 1-1.545-.105c-.246-.506-.388-1.247-1.06-1.316-.272.334-.54.672-.812 1.006a4.169 4.169 0 0 0-1.029.028c.083-.707.47-1.316.784-1.938.613-1.168 1.144-2.377 1.78-3.534zm-.02.637c-.812 1.524-1.665 3.043-2.265 4.665.17.005.507.011.674.015.183-.351.366-.702.544-1.054.372.05.742.11 1.112.177.122.35.248.698.374 1.048.381.041.764.074 1.15.098-.436-1.674-.91-3.357-1.59-4.949z" fill="#BA8A1D"/><path d="M18.31 13.809c.612-.495 1.4-.378 2.113-.251-.687.19-1.4.253-2.112.251z" fill="#2A3843"/><path d="M23.993 14.802c.668.505.294 1.61.244 2.347l-.242-.046c.076-.764.07-1.537-.002-2.3z" fill="#1D2F44"/><path d="M63.406 16.103a8.075 8.075 0 0 1 1.408-.7 7.411 7.411 0 0 1-.472 1.484 14.543 14.543 0 0 1-.936-.784z" fill="#B3944A"/><path d="M19.973 17.706c.243-.254.753-.276 1.005-.024-.28.253-.7.207-1.005.024z" fill="#514E34"/><path d="M43.844 22.137c-.314-1.277.792-2.163 1.784-2.683-.4.83-.568 1.742-.579 2.659l-1.205.024zm-2.842 1.01l.15-.002c.7.024 1.667-.152 2.039.623.663 1.191-.179 2.752-1.456 3.06.407-.712.884-1.545.546-2.384-.158-.545-.794-.598-1.24-.77l-.039-.526z" fill="#596DB1"/><path d="M26.645 23.224c.307-1.076 1.127-2.02 2.195-2.382-.78.808-1.588 1.73-1.699 2.9-.2 1.265.285 2.516 1.016 3.527-1.414-.736-1.9-2.578-1.512-4.045zm5.903 39.012c.553-.042 1.108-.042 1.662-.048-.05.504-.098 1.01-.115 1.519a62.926 62.926 0 0 1-.498-.319c-.157-.57-.348-1.154-1.049-1.152z" fill="#586EB1"/><path d="M33.575 22.458c.772.067 1.122.844 1.401 1.467.464 1.27.259 2.776-.56 3.86-.541.774-1.368 1.27-2.188 1.702-.385-.284-.807-.515-1.225-.747.204-.644.936-.823 1.39-1.246 1.486-1.16 1.932-3.33 1.182-5.036zM60.86 39.432c.911.317 1.54 1.227 1.54 2.194.096 1.369-.892 2.624-2.13 3.109-.054-.557-.128-1.111-.322-1.638 1.055-.886 1.475-2.379.912-3.665zm-19.304 18.66c.494-.637 1.286-.9 2.002-1.2.59.29 1.192.548 1.799.799-.9.458-1.995.711-2.605 1.589-.705.971-.696 2.26-1.316 3.268-.474.773-1.477.567-2.2.875-.285.434-.365.974-.574 1.447a6.032 6.032 0 0 1-1.306-1.054c.203-.489.235-1.092.625-1.476.672-.29 1.608-.072 2.078-.744.703-1.076.692-2.482 1.497-3.504z" fill="#D3D3D6"/><path d="M29.754 22.986c.761-.585 1.956-.428 2.41.463.603 1.272-.304 2.776-1.477 3.344-.137-.718-.657-1.214-1.207-1.642.637-.043 1.631.038 1.69-.842.15-.86-.755-1.177-1.416-1.323z" fill="#596DB2"/><path d="M29.754 22.986c.661.146 1.566.463 1.416 1.323-.059.88-1.053.799-1.69.843-.166-.415-.484-.854-.305-1.319.152-.308.378-.57.579-.847z" fill="#D2D3D9"/><path d="M47.226 24.394c.106-.624.844-.318 1.285-.377.161.541.581.91 1.001 1.255-.829.452-1.769-.245-2.286-.878z" fill="#CDD3E0"/><path d="M49.034 23.986c.34-.022.68-.042 1.019-.06-.118.307-.238.61-.357.916-.472-.053-.734-.383-.662-.856z" fill="#B4C8EB"/><path d="M53.402 24.444c.42.382 1.066.66 1.201 1.251-.28.718-.814 1.299-1.186 1.967-.36-.1-.716-.218-1.079-.299a1.84 1.84 0 0 0-.311.635c-.594-.508-1.03.352-1.325.766a9.32 9.32 0 0 1-1.419-.021c-.165-.78.229-1.627.947-1.972.52-.248.898.343 1.288.596.652-.956 1.455-1.829 1.884-2.923zm-7.095 38.709c.31-.192.642-.37 1.011-.41.148.025.446.08.594.106.164.312.329.627.499.937-.738.192-1.014.908-1.315 1.525-.578-.571-.624-1.41-.79-2.158z" fill="#D3D3D7"/><path d="M38.88 27.62c-.094-.386.045-.764.174-1.124.337 1.212 1.558 1.703 2.589 2.177-.152 1.423-.957 2.639-1.623 3.866-.342.484-.042 1.063-.044 1.596-.072.951-.661 1.916-1.658 2.089-.126-.747-.121-1.566-.574-2.205-.657-.932-1.543-1.666-2.38-2.425 1.024.08 2.04.26 3.068.314.67-.845 1.235-1.766 1.734-2.722-.496-.45-1.19-.834-1.286-1.565zm17.034 2.275c1.38-.417 2.864.917 2.722 2.32-.11.817-.659 1.485-1.23 2.042-1.15 1.098-2.523 1.993-3.426 3.329-.668.954-.7 2.255-.224 3.298.814 1.78 2.543 2.98 3.194 4.853.322 1 .328 2.187-.266 3.089-.641.928-1.886 1.242-2.948 1.024-1.388-.26-2.545-1.267-3.14-2.53.35.3.719.587 1.102.85.974.553 2.258.841 3.285.27.825-.459 1.07-1.54.8-2.395-.389-1.343-1.481-2.29-2.288-3.377-1.06-1.35-1.758-3.235-1.092-4.914.879-2 2.906-3.06 4.264-4.672.34-.369.453-.868.47-1.358-.228-.72-.95-1.211-1.7-.945-.304.195-.602.4-.89.616.327-.592.645-1.323 1.367-1.5zm-26.55 4.488c.31.037.623.068.934.1.076 2.67-.091 5.345.074 8.01.244-.035.49-.074.736-.113.44-.107.87-.258 1.277-.457 1.15-.648 2.189-1.475 3.292-2.198.935-.596 1.925-1.105 2.863-1.698.886.292 1.82.362 2.744.43-1.316.956-2.779 1.672-4.173 2.501-1.169.644-2.291 1.371-3.464 2.004-1.456.786-3.166.328-4.715.699-.77.26-1.571.814-1.7 1.679l-.065.244c-.361-.181-.124-.626-.085-.923.246-1.138 1.41-1.61 2.302-2.148.003-2.71.024-5.418-.02-8.13zm15.212 8.763c.714.319 1.525.735 1.697 1.585.261.886-.352 1.718-1.062 2.176-2.145 1.432-4.82 1.943-6.775 3.683-.575.465-.912 1.194-.812 1.938-.006.943.97 1.345 1.617 1.814-.4 1.753-.807 3.831-2.468 4.835-1.566.913-3.47-.065-5.113.562a1.078 1.078 0 0 0-.676 1.09c.04.879.178 1.75.241 2.625-.272-.295-.44-.664-.413-1.072-.009-.965-.213-2.072.433-2.89a4.572 4.572 0 0 1 1.514-.657c1.251-.018 2.835.556 3.806-.526.746-1.011 1-2.323 1.06-3.556-.258-.712-1.221-1.009-1.391-1.808-.298-1.532.731-2.888 1.74-3.912 1.34-1.261 2.855-2.392 4.565-3.089.723-.262 1.68-.216 2.159-.906.113-.63-.059-1.266-.122-1.892zm.768 8.893c.56.005 1.14-.015 1.675.175.549.493.649 1.355 1.265 1.794.694.293 1.492.142 2.188.417.608.483.834 1.299.867 2.046.034 1.322-.555 2.556-1.217 3.667-1.377.142-2.911-.153-4.136.642-1.055.72-.413 2.124-.418 3.158-.533-.943-.576-2.23-.07-3.189.89-1.083 2.444-.912 3.689-1.133.396-.02.457-.47.544-.773a5.742 5.742 0 0 0-.007-1.938c-.06-.28-.13-.555-.2-.83-.348-.11-.699-.22-1.044-.34-1.178-.463-2.105-1.432-2.666-2.552-.174-.375-.324-.76-.47-1.144z" fill="#5A6DB2"/><path d="M53.417 27.662c.874.284 1.59-.472 2.271-.893-.163.947-.737 1.86-1.719 2.102a26.078 26.078 0 0 1-.816-.122c-.391-.227-.755-.493-1.127-.751a1.84 1.84 0 0 1 .311-.635c.364.08.718.198 1.08.299z" fill="#EA0E16"/><path d="M29.341 28.496c.331.022.664.04.997.059l-.002.622c-.333-.01-.666-.024-1-.03 0-.164.003-.49.005-.651z" fill="#536EB5"/><path d="M31.003 28.74c.418.232.84.463 1.225.747.283.319.526.67.77 1.02-.583-.2-1.21-.333-1.714-.7-.21-.311-.207-.71-.281-1.067z" fill="#5A6EAE"/><path d="M53.154 28.749c.272.046.544.085.816.122.331.11.649.256.973.39a7.37 7.37 0 0 0-.677.885c-.344-.168-.698-.317-1.003-.548-.1-.27-.087-.565-.109-.85z" fill="#D7D3D5"/><path d="M7.601 29.251c1.602-.489 3.493.11 4.467 1.489 1.119 1.495 1.034 3.774-.246 5.147-1.08 1.238-2.948 1.701-4.477 1.1-1.423-.532-2.483-1.914-2.618-3.433-.207-1.875 1.064-3.785 2.874-4.303zm-.633.87c.242.113.47.372.762.3.84-.168 1.688-.286 2.535-.412-1.017-.6-2.302-.465-3.297.111zm-1.096 1.043c1.39.678 2.71 1.482 4.064 2.23.085-.37.165-.742.244-1.115-1.053-.854-2.25-1.528-3.551-1.921-.26.262-.512.53-.757.805zm2.254-.636c.335.277.672.681 1.157.603.76-.037 1.521-.072 2.283-.11a4.678 4.678 0 0 0-.592-.602c-.942-.2-1.915-.083-2.848.11zm1.312.838c.296.262.59.535.942.72.58.049 1.164.005 1.745-.014-.098-.23-.196-.457-.296-.682a7.386 7.386 0 0 0-2.391-.024zM5.33 32.622c1.277.864 2.674 1.572 4.153 2.015.04-.356.466-.852.066-1.122a22.177 22.177 0 0 0-3.828-2.1 4.89 4.89 0 0 0-.391 1.207zm6.253-.336c-.109 1.469-.707 2.805-1.416 4.069 1.582-.542 2.339-2.336 2.106-3.917-.23-.052-.46-.102-.69-.152zm-2.537 3.67l.494.379c1.212-.937 1.628-2.52 1.79-3.973l-.809-.041c-.38 1.255-.855 2.48-1.475 3.634zm-3.801-2.992c.059.524-.03 1.208.463 1.553a6.56 6.56 0 0 0 3.107 1.298c.164-.312.325-.626.483-.94-1.403-.524-2.72-1.236-4.053-1.91zm.661 2.111c-.1.302 0 .417.305.345.104-.303.002-.419-.305-.345zm.603.317c.028.66.598.954 1.158 1.1.013-.688-.55-1.01-1.158-1.1zm1.205.513c.155.249.286.524.507.727.386.15.808.05 1.206.024-.364-.6-1.058-.769-1.713-.751z" fill="#FDF7FB"/><path d="M74.4 29.247c2.38-.788 5.159 1.111 5.202 3.646.227 2.106-1.47 4.134-3.562 4.324-2.256.354-4.562-1.565-4.545-3.875-.163-1.84 1.155-3.604 2.905-4.095zm-.692.871c.248.125.492.38.796.301.842-.166 1.69-.288 2.542-.412-1.034-.592-2.326-.452-3.338.111zm-1.068 1.05c1.388.683 2.706 1.495 4.07 2.22.075-.358.294-.716.227-1.09-1.003-.905-2.243-1.501-3.512-1.938-.268.262-.529.53-.785.808zm2.258-.644c.296.238.564.613.981.605.814-.016 1.628-.077 2.444-.07-.17-.218-.335-.439-.538-.622-.95-.234-1.943-.103-2.887.087zm1.32.843c.295.266.58.563.945.733.579.033 1.158-.006 1.737-.032a80.175 80.175 0 0 1-.279-.658 6.632 6.632 0 0 0-2.402-.043zm-3.822.172c-.165.347-.237.725-.313 1.098a18.73 18.73 0 0 0 4.064 2.004c.148-.297.292-.596.433-.895-1.012-.801-2.163-1.41-3.307-1.993-.285-.08-.577-.367-.877-.214zm4.778 1.131a20.86 20.86 0 0 1-1.353 3.285c.126.1.374.302.5.402 1.192-.987 1.693-2.572 1.71-4.078-.296.085-.777-.015-.857.391zm1.166-.415a7.899 7.899 0 0 1-1.608 4.205c1.606-.507 2.618-2.293 2.294-3.938-.157-.219-.462-.182-.686-.267zm-6.286.742c.024.478-.074 1.074.32 1.435.85.737 1.937 1.154 3.029 1.373.394-.112.461-.62.668-.926-1.393-.513-2.694-1.222-4.017-1.882zm.62 2.1c-.087.304.02.413.322.33.09-.308-.02-.42-.322-.33zm.625.306c.03.66.566.976 1.149 1.094-.015-.67-.54-1.015-1.15-1.094zm1.194.478c.144.251.26.53.468.74.348.136.734.094 1.101.12-.089-.749-.979-.823-1.569-.86z" fill="#FDF8FD"/><path d="M6.969 30.12c.994-.576 2.28-.712 3.296-.111-.846.126-1.695.244-2.535.412-.291.072-.52-.188-.761-.301z" fill="#C6363B"/><path d="M73.707 30.118c1.012-.564 2.304-.703 3.338-.112-.851.125-1.7.247-2.542.413-.304.078-.548-.177-.796-.301z" fill="#C63136"/><path d="M28.434 29.839c.916-.28 1.625.476 2.189 1.08a7.913 7.913 0 0 1-2.248.029c.01-.372.033-.74.059-1.11z" fill="#576DB5"/><path d="M50.686 29.843l1.222.03c.07.773.135 1.544.196 2.316-.764-.388-1.7-1.23-2.548-.57-.968.662-.67 1.97-.509 2.948-.602-.271-1.173-.716-1.323-1.395-.26-.904-.296-2.222.67-2.716.87-.4 1.704.29 2.42.71-.052-.441-.107-.88-.128-1.323zm.424 4.988l.14.367c.256-.1.515-.201.774-.3.417.87.618 2.044-.092 2.816-.65.786-1.745.782-2.665.922-.13 1.312.75 2.403.91 3.67.293 2.003.704 4.003 1.523 5.865-.383-.264-.751-.55-1.101-.852-1.1-1.93-1.41-4.158-1.76-6.317-.153-1.214-1.112-2.196-.914-3.475.905-.053 1.949-.044 2.62-.769.537-.484.554-1.257.565-1.927z" fill="#D2D3D8"/><path d="M60.638 30.04c1.083.379 1.636 1.538 1.595 2.636.063 1.288-.69 2.438-1.593 3.285-.73.655-1.515 1.24-2.248 1.887-1.318-.088-2.465.607-3.49 1.346.272-.576.59-1.146 1.07-1.576 1.471-1.36 3.382-2.296 4.457-4.051.657-1.055.655-2.395.209-3.528zM55.88 42.284c.192-.547.46-1.167 1.099-1.29.81-.307 1.6.262 1.908.998-.452.118-1.005.111-1.325.506-.39.42-.379 1.114.04 1.509.924 1.074 1.938 2.157 2.32 3.565.375 1.194.225 2.645-.73 3.532-1.16 1.235-3.042 1.29-4.582.901-.98-.277-2.037-.642-2.661-1.502 1.642.65 3.616.998 5.241.123 1.37-.725 1.921-2.485 1.475-3.928-.407-1.757-1.78-2.999-2.785-4.413zM36.041 47.19c2.12-.48 3.727-2.044 5.048-3.683.318.587.622 1.181.988 1.742-1.465 1.142-2.798 2.62-4.711 2.978-.496-.35-.955-.821-1.56-.96-.957-.008-1.97.412-2.559 1.182-.274.646-.6 1.273-.883 1.917-.083 1.235-.04 2.48-.03 3.718-.029.724.857 1.178.626 1.934-.163.93-.246 1.87-.2 2.816a4.576 4.576 0 0 0-1.515.657c-.474-.184-.918-.467-1.081-.976.494-.24 1.147-.404 1.347-.987.109-.572-.091-1.157.026-1.727a8.84 8.84 0 0 0 .161-1.621c-.229-.247-.66-.402-.653-.79-.067-1.52.03-3.042-.03-4.56.13-.036.39-.101.52-.136-.035-1.611 1.682-2.635 3.14-2.421.533.166.93.587 1.366.917zm5.766 7.016c.618-1.34 2.15-1.993 3.538-2.168.146.384.296.768.47 1.144-.862.39-1.8.749-2.411 1.51-.346.424-.361 1-.464 1.518-.761-.31-1.512-1.136-1.133-2.004zm-9.733 8.328c.12-.077.357-.225.475-.3.7-.002.892.584 1.049 1.153-.312.413-.603.836-.897 1.26-.757-.421-.585-1.389-.627-2.113zM34.5 63.63c.161-.614.58-1.099 1.12-1.413.438.293.758.714 1.074 1.129-.48.502-.82 1.11-1.121 1.73a3.433 3.433 0 0 1-1.073-1.447zm14.607.224c.259-.515.568-1.126 1.244-1.08.29.301.588.596.877.9l.105.117c-.47.439-.845.96-1.195 1.498-.44-.404-.757-.91-1.031-1.435z" fill="#D2D3D7"/><path d="M5.871 31.163c.246-.275.498-.543.757-.805 1.301.393 2.498 1.067 3.551 1.92a66.89 66.89 0 0 1-.243 1.116c-1.354-.748-2.674-1.552-4.065-2.23zm66.182 1.834c1.323.66 2.624 1.369 4.017 1.882-.207.305-.274.814-.668.925-1.092-.218-2.178-.635-3.029-1.373-.394-.36-.296-.956-.32-1.434z" fill="#EF0C14"/><path d="M8.126 30.528c.933-.192 1.906-.31 2.848-.11.216.184.411.383.592.603-.762.037-1.523.072-2.283.11-.485.078-.822-.326-1.157-.603z" fill="#E31219"/><path d="M72.639 31.168c.256-.277.517-.546.785-.808 1.269.437 2.509 1.033 3.512 1.939.067.373-.152.73-.226 1.089-1.365-.725-2.683-1.537-4.071-2.22z" fill="#EF0D14"/><path d="M74.897 30.524c.944-.19 1.936-.32 2.887-.087.202.183.367.404.537.622-.816-.007-1.63.054-2.443.07-.418.008-.686-.367-.981-.605z" fill="#DC151B"/><path d="M55.439 30.78c.748-.267 1.47.224 1.7.944-.686.297-1.248.797-1.722 1.365.052-.768.072-1.54.022-2.31z" fill="#D3D3D8"/><path d="M9.438 31.366a7.385 7.385 0 0 1 2.39.024c.1.225.199.452.297.682-.581.02-1.164.063-1.745.015-.353-.186-.647-.459-.943-.72z" fill="#E1131A"/><path d="M28.668 31.467c.703-.01 1.366.277 1.978.6-.664.43-1.53.666-2.3.406.072-.34-.122-.875.322-1.006z" fill="#566DB5"/><path d="M76.22 31.367a6.631 6.631 0 0 1 2.402.043c.091.219.185.44.278.657-.578.027-1.157.066-1.736.033-.365-.17-.65-.467-.944-.733z" fill="#E21219"/><path d="M5.33 32.621a4.89 4.89 0 0 1 .392-1.207 22.176 22.176 0 0 1 3.827 2.1c.4.271-.026.767-.065 1.122-1.48-.443-2.877-1.15-4.154-2.015zm2.955 17.397c.592-.426 1.536.039 1.545.772.071.751-.84 1.36-1.49.952-.662-.323-.736-1.382-.055-1.724zm1.62 1.757c.793.05 1.826.373 2.098 1.207-.206.552-.861.677-1.286 1.017-.441.23-.818.725-1.357.662-.694-.587-.383-1.618-.279-2.393.396.186.731.465 1.069.738-.083-.41-.172-.819-.244-1.231z" fill="#F10B13"/><path d="M72.396 31.539c.3-.153.592.133.877.214 1.145.583 2.296 1.191 3.307 1.993-.141.299-.285.598-.433.895a18.73 18.73 0 0 1-4.064-2.004c.076-.374.148-.751.313-1.098zM5.433 52.76c-.018-1.019 1.423-1.115 2.195-1.172-.141.417-.307.825-.457 1.24.357-.225.7-.471 1.047-.714.27.668.226 1.47-.076 2.118-.18.401-.77.319-1.014.026-.527-.544-1.206-.921-1.695-1.498z" fill="#F10C13"/><path d="M11.583 32.285c.231.05.46.1.69.153.233 1.58-.524 3.375-2.106 3.916.71-1.264 1.308-2.6 1.416-4.069z" fill="#E11219"/><path d="M77.175 32.67c.08-.406.561-.306.857-.39-.017 1.505-.518 3.09-1.71 4.077-.127-.1-.374-.301-.5-.402a20.862 20.862 0 0 0 1.353-3.285z" fill="#EB0F16"/><path d="M78.34 32.255c.224.085.528.048.685.266.324 1.646-.688 3.432-2.294 3.938a7.899 7.899 0 0 0 1.608-4.204z" fill="#E41118"/><path d="M9.045 35.955c.62-1.155 1.094-2.38 1.475-3.635.202.011.607.03.81.042-.164 1.454-.58 3.036-1.791 3.973l-.494-.38z" fill="#E90F16"/><path d="M28.638 33.1c.613-.295 1.266-.028 1.76.369a4.68 4.68 0 0 1-1.752.327l-.008-.696z" fill="#556DB6"/><path d="M5.245 32.965c1.334.674 2.65 1.386 4.054 1.91-.16.314-.32.628-.483.94a6.553 6.553 0 0 1-3.107-1.298c-.494-.345-.405-1.029-.464-1.553zm71.89 18.633c.676.024 1.381.136 1.943.542.398.185.265.777-.061.967-.481.384-.964.766-1.421 1.18-.246.304-.868.315-1.005-.1-.248-.576-.255-1.222-.242-1.838.47-.22.814.308 1.214.47-.141-.409-.298-.81-.428-1.22z" fill="#F00C14"/><path d="M31.093 34.652c1.019.233 2.043.463 3.018.85.087.2.172.405.255.608a44.476 44.476 0 0 0-1.998-.36 94.127 94.127 0 0 0 .018 6.173c-.407.199-.838.35-1.277.457-.033-2.576-.018-5.152-.016-7.728z" fill="#D1D3D8"/><path d="M5.906 35.075c.306-.074.409.042.304.345-.304.072-.404-.044-.304-.345z" fill="#BC7D80"/><path d="M72.674 35.097c.302-.09.411.022.322.33-.303.083-.41-.026-.322-.33z" fill="#C86D70"/><path d="M6.51 35.392c.607.09 1.17.413 1.157 1.1-.559-.146-1.129-.44-1.157-1.1z" fill="#C33539"/><path d="M34.113 35.5c.57.26 1.236.763 1.016 1.485-.135.83-1.197.594-1.795.778.368-.267.831-.444 1.094-.832.055-.273-.015-.55-.06-.821a29.37 29.37 0 0 0-.255-.61z" fill="#566DAF"/><path d="M73.298 35.402c.61.079 1.133.424 1.149 1.094-.583-.118-1.119-.434-1.15-1.094z" fill="#CE3439"/><path d="M7.715 35.905c.655-.018 1.349.15 1.712.75-.398.027-.82.127-1.205-.023-.222-.203-.353-.478-.507-.727z" fill="#CC2B30"/><path d="M74.493 35.88c.59.038 1.48.112 1.569.861-.368-.026-.753.015-1.101-.12-.209-.21-.324-.49-.468-.74z" fill="#CA1D23"/><path d="M36.484 38.358c.611-.29 1.057-.814 1.5-1.31.19.323.377.649.558.978-.938.594-1.928 1.103-2.863 1.699a20.66 20.66 0 0 0-1.23-1.04c.686-.021 1.408-.006 2.035-.327z" fill="#CDD3DF"/><path d="M56.294 40.566c.808-1.027 2.574-.963 3.301.13.636.72.324 1.725.19 2.57-.246.225-.58.308-.873.445-.002-.574.032-1.148-.024-1.718-.309-.736-1.099-1.305-1.908-.998-.64.123-.907.743-1.099 1.29-.007-.589-.007-1.252.413-1.72zm-27.58 5.815c.287-.085.578-.155.87-.223a32.03 32.03 0 0 0-.23 1.513 11.47 11.47 0 0 1 1.535-.602c.046.523.09 1.047.118 1.573-.22-.233-.44-.467-.662-.698-.095 1.969-.002 3.942-.021 5.911-.042.321.028.764-.333.926-.444.17-.927.186-1.393.251-.013-.32-.028-.642-.043-.963.259-.098.52-.194.78-.288.125-1.574.02-3.156.064-4.735.087-.954-.507-1.76-.686-2.665z" fill="#5A6DB1"/><path d="M27.515 45.24c.407-.114.826-.143 1.246-.182-.302.515-.546 1.065-.661 1.655l-.068.262c-.202-.572-.213-1.205-.517-1.736z" fill="#6C81B9"/><path d="M6.807 47.658c.2-.415.38-1.04.94-1.044.844.031 1.684.134 2.53.147.608.024.812.655 1 1.126.465.118 1.12.18 1.272.736.179.81.41 1.607.623 2.41.13.563-.377.934-.784 1.198.042.526.196 1.225-.344 1.555-.685.397-1.344.834-2.008 1.264-.494.314-1.016-.048-1.432-.315-.46.144-.968.441-1.444.181-.477-.325-.855-.772-1.33-1.1-.315-.262-.733-.463-.87-.877-.078-.398.06-.788.128-1.175-.367-.345-.842-.808-.59-1.36.325-.727.605-1.469.875-2.216.229-.58.919-.552 1.434-.53zm.594-.249c-.122.755.464 1.395.868 1.971.53.166.429-.73.673-1.03.159.369.248.762.348 1.153.618-.223.994-.813 1.277-1.376.198-.277.111-.733-.24-.831-.606-.173-1.253-.077-1.875-.142-.359.006-.844-.144-1.05.255zm-2.126 2.445c-.134.39-.478.819-.224 1.236.697.469 1.55-.01 2.287-.138-.1-.434-.457-.705-.746-1.01.365-.04.827.218 1.12-.088-.222-.777-.757-1.476-1.492-1.823-.581.443-.646 1.205-.945 1.823zm4.772.325c.405.018.812.024 1.216.04-.276.31-1.048.419-.84.94.516.286 1.08.507 1.67.562.352.002.685-.308.567-.673-.196-.74-.378-1.484-.579-2.224-.07-.319-.559-.463-.809-.256-.555.389-1.073.926-1.225 1.611zm-1.762-.161c-.681.343-.607 1.401.054 1.724.65.409 1.562-.2 1.49-.951-.008-.734-.953-1.199-1.544-.773zm-2.853 2.744c.49.576 1.168.954 1.695 1.497.244.293.833.376 1.014-.026.302-.648.346-1.45.076-2.117-.346.242-.69.489-1.046.713.15-.414.315-.822.456-1.24-.772.057-2.212.153-2.195 1.173zm4.474-.987c.071.413.16.82.243 1.231-.337-.273-.672-.552-1.068-.738-.105.775-.416 1.806.278 2.393.54.063.916-.432 1.358-.662.424-.34 1.08-.465 1.286-1.017-.272-.834-1.305-1.157-2.097-1.207z" fill="#FFF3F9"/><path d="M74.118 46.875c.396-.212.86-.118 1.29-.145.577.005 1.151-.159 1.73-.093.483.085.633.617.798 1.008.51-.004 1.164-.046 1.419.509.298.744.561 1.502.89 2.233.261.559-.187 1.059-.603 1.37.115.525.364 1.212-.146 1.612-.611.478-1.207.978-1.795 1.484-.494.393-1.1.081-1.555-.203-.244.184-.468.406-.758.513-.594.103-1.044-.364-1.499-.657-.424-.308-.92-.502-1.325-.838-.383-.354-.226-.91-.196-1.362-.383-.315-.876-.683-.78-1.249.2-.805.434-1.602.613-2.412.144-.611.857-.638 1.355-.758.133-.358.17-.833.562-1.012zm1.086.331c-.37.024-.89-.043-1.073.374-.04.86.663 1.519 1.297 1.993.128-.406.23-.821.343-1.231.15.351.275.713.429 1.063.429.07.557-.476.783-.74.266-.428.66-1.157.087-1.511-.622-.048-1.244.061-1.866.052zm2.92 1.042a3.3 3.3 0 0 0-1.1 1.733c.425-.002.85-.024 1.273-.03-.278.32-.909.475-.852.982.766.218 1.9.753 2.432-.13-.337-.74-.611-1.503-.903-2.26a.535.535 0 0 0-.85-.295zm-5.52.845c-.099.857-.658 1.672-.43 2.545.85.207 1.66-.199 2.364-.635a10.48 10.48 0 0 0-1.082-.775c.44-.016.882-.027 1.321-.062-.263-.659-.72-1.266-1.343-1.615-.398-.253-.822.129-.83.541zm2.889.87c-.64.269-.77 1.22-.213 1.65.548.553 1.605.158 1.645-.623.156-.776-.76-1.393-1.432-1.026zm-1.234 1.873c-.629.238-1.484.516-1.49 1.332.698.483 1.418.932 2.125 1.404.303.233.701.032.825-.302.159-.661.059-1.349-.052-2.01-.394.214-.742.495-1.101.76.104-.396.228-.784.348-1.173-.215-.043-.444-.115-.655-.01zm2.877-.237c.13.41.287.812.428 1.22-.4-.162-.744-.69-1.214-.47-.013.616-.006 1.262.242 1.839.137.414.759.403 1.005.1.457-.415.94-.797 1.42-1.181.327-.19.46-.782.062-.967-.562-.406-1.267-.517-1.943-.541z" fill="#FFF2F4"/><path d="M7.401 47.41c.207-.4.692-.25 1.051-.256.622.065 1.269-.03 1.876.142.35.098.437.554.24.831-.284.564-.66 1.153-1.278 1.376-.1-.391-.19-.784-.348-1.153-.244.3-.144 1.196-.673 1.03-.404-.576-.99-1.215-.868-1.97zm-2.126 2.444c.299-.618.364-1.38.945-1.823.735.348 1.27 1.046 1.492 1.823-.293.306-.755.048-1.12.087.29.306.646.577.746 1.011-.737.129-1.59.607-2.287.138-.254-.417.09-.845.224-1.236zm72.847-1.606a.535.535 0 0 1 .851.294c.292.758.566 1.522.903 2.262-.533.882-1.667.347-2.433.128-.056-.506.575-.66.853-.982-.424.007-.848.029-1.272.03a3.3 3.3 0 0 1 1.098-1.732zm-68.075 1.931c.152-.685.67-1.222 1.225-1.61.25-.208.74-.064.81.255.2.74.382 1.484.578 2.224.118.365-.215.675-.568.673-.59-.055-1.153-.275-1.669-.561-.208-.522.564-.631.84-.941-.404-.016-.811-.022-1.216-.04zm62.555-1.087c.009-.412.433-.794.831-.541.623.35 1.08.956 1.343 1.615-.44.035-.881.046-1.32.062.371.242.741.486 1.08.774-.702.437-1.514.843-2.362.636-.229-.873.33-1.688.428-2.546zm2.89.871c.672-.366 1.588.251 1.431 1.026-.039.782-1.096 1.177-1.645.625-.556-.43-.426-1.382.214-1.65zm-1.234 1.873c.211-.105.44-.032.655.011-.12.389-.244.777-.348 1.172.359-.264.707-.545 1.1-.76.112.662.212 1.35.053 2.011-.124.334-.522.535-.825.301-.707-.471-1.427-.92-2.125-1.403.006-.816.861-1.094 1.49-1.332z" fill="#F20B13"/><path d="M75.203 47.206c.622.009 1.245-.1 1.867-.052.572.353.178 1.082-.087 1.51-.226.264-.355.81-.783.74-.155-.349-.279-.711-.429-1.063-.113.41-.215.825-.344 1.231-.633-.473-1.336-1.132-1.297-1.992.183-.417.703-.35 1.073-.374z" fill="#F30B12"/><path d="M30.345 47.944c.222.231.442.465.661.698l.009.188c.06 1.52-.037 3.04.03 4.56-.006.389.425.544.653.79a8.842 8.842 0 0 1-.16 1.623c-.118.57.082 1.154-.027 1.726-.2.583-.853.747-1.347.987-.646-.203-1.175-.611-1.482-1.225.477.12.951.315 1.447.297.649-.175.84-1.187.298-1.585-.57-.294-1.233-.299-1.858-.367.009-.152.022-.454.029-.604.465-.066.948-.08 1.392-.251.361-.162.292-.605.333-.926.02-1.969-.074-3.942.022-5.911z" fill="#043083"/><path d="M50.065 49.372c.478.266.937.56 1.396.855-.1.906.36 1.718.67 2.535-1.15-.758-1.847-2.046-2.066-3.39z" fill="#CFD3DE"/><path d="M54.884 54.458a35.38 35.38 0 0 0 2.204-.131c-1.764 1.84-2.463 4.451-2.313 6.96 0 .722.21 1.466.016 2.178-.287.517-.992.478-1.486.685-.172.29-.346.579-.52.867a78.662 78.662 0 0 1-1.321-1.078c.244-.363.4-.9.912-.946.563-.107 1.279-.327 1.194-1.05-.159-2.536-.244-5.32 1.314-7.485z" fill="#D2D3D6"/><path d="M28.57 55.637c.624.067 1.287.072 1.857.366.542.398.35 1.41-.298 1.585-.496.018-.97-.177-1.447-.297-.026-.517.205-.982.486-1.399l-.599-.255z" fill="#586DB3"/><path d="M48.481 55.735c.346.12.697.23 1.045.34.07.276.14.55.2.83-.474-.32-.964-.653-1.245-1.17z" fill="#C8CDE1"/><path d="M35.62 62.218c.446-.015.892-.004 1.34.005.129.53.261 1.063.396 1.593a4.732 4.732 0 0 1-.663-.47c-.316-.414-.636-.835-1.073-1.128z" fill="#586EAF"/><path d="M47.32 62.742c.413-.065.833-.098 1.25-.129.024.535.05 1.07.08 1.607-.06-.11-.18-.325-.238-.434-.17-.31-.335-.625-.499-.937l-.594-.107z" fill="#4C68A4"/><path d="M50.35 62.775l.598.061c.09.28.178.561.279.838-.29-.303-.588-.598-.877-.9z" fill="#5A72AE"/><path d="M65.794 64.148c.08-.454 1.151-.456 1.203.024-.402-.004-.803.006-1.203-.024z" fill="#2A3A46"/><path d="M65.77 64.478c.392-.352 1.01-.262 1.409.037.352.308.528.76.842 1.105.418.331 1.127.484 1.181 1.113.207 1.358-1.227 2.1-2.025 2.953-1.119-1.095-2.279-2.16-3.301-3.35.622-.63 1.199-1.31 1.895-1.858zm-.63 1.4c.32.4.688.76 1.105 1.06.263-.376.7-.904.29-1.338-.429-.513-1.008-.007-1.395.277zm1.997.962c-.091.1-.274.303-.365.406l-.16-.116c.188.487.55.865.956 1.177.292-.345.781-.802.407-1.273-.187-.31-.546-.207-.838-.194zm-51.563-.094c.823-.734 1.582-1.537 2.405-2.268a11.8 11.8 0 0 1 1.99 1.993c-.17.166-.339.334-.506.502a76.08 76.08 0 0 1-1.158-1.054l-.707.713c.326.352.653.703.981 1.053l-.378.64c-.422-.348-.836-.701-1.252-1.055-.504.498-1.018.987-1.488 1.517-.31-.32-.622-.642-.929-.965.338-.369.677-.736 1.042-1.076zm17.91 6.977c.91.144 1.884.222 2.672.746.557.428.407 1.216.245 1.803l-.084.278c-.314.729-.129 1.82-1 2.185-.96.236-1.912-.245-2.834-.46.191-1.546.677-3.033 1-4.552zm.977.951c-.04.402-.076.806-.107 1.212.322-.09.994.07.95-.452.116-.493-.445-.731-.843-.76zm-.392 1.828a5.272 5.272 0 0 0-.285 1.41c.392-.033.92.098 1.138-.339.037-.294-.05-.582-.09-.868l-.763-.203z" fill="#FFFFF8"/><path d="M65.14 65.877c.388-.284.967-.79 1.395-.278.412.435-.026.963-.29 1.338a5.544 5.544 0 0 1-1.104-1.06zm.399-.003c.21.254.44.49.687.706l.299-.502c-.07-.13-.21-.387-.277-.516-.24.1-.474.206-.71.312z" fill="#A69A77"/><path d="M65.538 65.875c.235-.107.47-.212.71-.313.067.13.206.387.276.516l-.298.502a6.156 6.156 0 0 1-.688-.705z" fill="#323B38"/><path d="M62.904 66.883c.194-.19.39-.375.588-.558.359.375.713.755 1.07 1.133-.113.615.168 1.194.34 1.768-.636-.806-1.24-1.646-1.998-2.343z" fill="#143362"/><path d="M67.139 66.84c.291-.013.65-.116.837.194.375.471-.115.928-.406 1.273-.407-.313-.769-.69-.956-1.177l.16.116c.286.207.567.421.85.637.078-.218.157-.439.237-.655-.24-.133-.48-.264-.722-.388z" fill="#9B916E"/><path d="M66.772 67.246l.366-.406c.241.124.483.255.722.388-.08.217-.159.437-.237.655-.283-.216-.563-.43-.85-.637z" fill="#3B4342"/><path d="M62.422 67.796c.198-.195.398-.389.6-.579.718.874 1.45 1.747 2.037 2.718.557.825.043 2.059-.86 2.38-.602.255-1.249.008-1.86-.062-.041-.074-.122-.218-.161-.292-.526-.943-1.242-1.762-1.854-2.646.314-.246.629-.489.947-.731.755.838 1.307 1.84 2.088 2.654.43.496 1.321-.122 1.038-.694-.561-.982-1.364-1.8-1.975-2.748z" fill="#FFFFF4"/><path d="M19.817 68.016c.607-.419 1.417-.353 2.098-.205.776.194 1.244.88 1.566 1.565.229 1.18-.324 2.343-1.249 3.06-1.323.784-3.16.06-3.72-1.355-.133-1.185.3-2.388 1.305-3.065zm1.293.77c-1.01.398-1.974 2.094-.853 2.858 1.218.184 2.33-1.244 1.982-2.41a.976.976 0 0 0-1.13-.447z" fill="#FFFFF6"/><path d="M21.304 68.998c.533-.146 1.042.476.816.974-.231.62-.703 1.194-1.332 1.425-.535.186-1.058-.417-.846-.917.258-.613.657-1.338 1.362-1.482z" fill="#023185"/><path d="M23.48 69.376c.033-.096.103-.286.137-.38.294.557.31 1.193.322 1.808.305-.103.608-.266.936-.266l.161.013c-.624.474-1.312.962-1.582 1.737-.383.854-.067 1.797.368 2.561-.827-.476-.933-1.456-.97-2.316l-.62-.096c.924-.718 1.477-1.882 1.248-3.06z" fill="#28334A"/><path d="M65.37 70.123c.46.1.455 1.183-.01 1.27.008-.426.012-.847.01-1.27z" fill="#2F3C42"/><path d="M57.154 70.913c.344-.164.688-.328 1.032-.485.541.876 1.04 1.775 1.545 2.67.148.183.206.498.46.565.484-.192.921-.476 1.376-.72.124.24.246.485.365.729-.794.483-1.59.965-2.421 1.384-.858-1.334-1.713-2.691-2.357-4.143zm-27.866 1.404c1.017.294 2.013.657 2.994 1.05-.045.235-.093.471-.139.709-.359-.072-.718-.142-1.077-.216-.45 1.196-.844 2.416-1.334 3.6l-1.096-.44c.287-.881.592-1.759.9-2.634.085-.21.17-.417.25-.624.025-.066.068-.197.092-.262-.302-.227-.618-.437-.929-.649l.34-.534z" fill="#FFFFF7"/><path d="M25.038 70.55c.955.09 2.091.153 2.674 1.046.738.97.335 2.249-.167 3.225-.934 1.074-2.753 1.034-3.721.028-.435-.764-.75-1.707-.368-2.56.27-.776.958-1.265 1.582-1.738zm.442 1.289c-.72.565-1.312 1.873-.512 2.589 1.138.395 2.033-1.007 1.86-2.02.12-.703-.913-1.065-1.348-.57zm29.345.157c.677-.227 1.336.172 1.963.384-.118.212-.233.424-.348.637-.64.016-1.46-.327-1.941.245-.581.64-.168 1.591.254 2.2.342.529 1.027.33 1.55.33l.209-.308c.176-.26.348-.52.52-.781.226.017.454.039.68.06-.15.736-.472 1.49-1.161 1.865-.825.515-1.826.234-2.672-.063a4.852 4.852 0 0 1-.453-.42c-.246-.563-.524-1.143-.524-1.772-.122-1.146.857-2.15 1.923-2.377z" fill="#FFFFF3"/><path d="M25.478 71.839c.435-.496 1.468-.133 1.349.57.172 1.012-.723 2.414-1.86 2.019-.801-.716-.21-2.024.51-2.59z" fill="#06317B"/><path d="M28.115 71.871c.313.092.63.17.955.23-.107.336-.213.672-.322 1.008.348.214.694.43 1.038.653-.08.207-.166.415-.25.624-.122.175-.242.352-.362.53.005-.412.029-.825.066-1.235-.468-.299-.857.01-1.14.4a3.73 3.73 0 0 0 .015-2.21z" fill="#374654"/><path d="M29.436 72.092c.855-.011 1.886.124 2.428.868-.83-.233-1.623-.567-2.428-.868z" fill="#253C58"/><path d="M31.286 74.233c.32-.013.637.048.955.098l.13.022a3.072 3.072 0 0 0-1.673 1.072c.163-.408.242-.895.588-1.192z" fill="#2A3E55"/><path d="M46 74.576c.372-.079.744-.151 1.118-.223.307 1.28.357 2.606.692 3.881.516-.078 1.03-.166 1.545-.253.06.245.124.491.185.738-.934.19-1.871.371-2.822.45A181.752 181.752 0 0 1 46 74.576zm-6.654-.031c.679 1.591 1.153 3.275 1.589 4.949a25.168 25.168 0 0 1-1.15-.098c-.126-.35-.252-.699-.374-1.048-.37-.068-.74-.127-1.111-.177-.179.351-.362.703-.544 1.054-.168-.004-.505-.01-.675-.015.6-1.622 1.453-3.141 2.265-4.665zm-.461 2.5c-.368.091-.253.737.135.652.357-.083.213-.71-.135-.653z" fill="#FFFFF5"/><path d="M42.154 74.567a35.61 35.61 0 0 1 1.447-.009c.156 1.277.156 2.565.17 3.849.563.004 1.129.009 1.694.02.022.351.046.705.072 1.06l-.254-.01-.198-.727c-.52-.04-1.04-.075-1.56-.107-.044-1.28-.061-2.556-.116-3.834l-1.05.016c-.003 1.008.038 2.017.04 3.025l-.197.103a25.28 25.28 0 0 1-.053-1.345c0-.68 0-1.362.005-2.04z" fill="#C2B388"/><path d="M32.598 76.412c-.152-.594.015-1.168.383-1.642a16.938 16.938 0 0 1-.383 1.642z" fill="#3E4B53"/><path d="M42.358 74.825c.348-.007.698-.01 1.05-.015.055 1.277.072 2.554.116 3.833.52.033 1.04.068 1.56.107l.198.727a30.95 30.95 0 0 0-1.43.028c-.467-.076-.94-.176-1.416-.135-.024-.507-.03-1.013-.037-1.52-.002-1.008-.044-2.016-.041-3.025z" fill="#FFFFF9"/><path d="M47.482 74.81c.394.05.31.543.383.824.061.642.12 1.288.246 1.924.496-.007.997-.01 1.486.1a20.95 20.95 0 0 1-1.599.295c-.272-1.029-.402-2.087-.516-3.144z" fill="#293E58"/><path d="M34.071 76.501l.764.203c.04.286.126.575.09.87-.218.436-.747.305-1.139.338.033-.483.124-.957.285-1.41zm.194.247c-.08.312-.159.624-.233.94.461.1.72-.237.79-.647a59.06 59.06 0 0 1-.557-.293z" fill="#A0936B"/><path d="M34.265 76.748l.557.292c-.07.41-.329.747-.79.649.074-.317.153-.629.233-.941z" fill="#363A31"/><path d="M38.883 77.045c.348-.057.491.57.134.653-.387.085-.502-.561-.135-.653z" fill="#AB955C"/><path d="M32.199 78.503c.27-.088.53.052.77.166-.159.3-.807.207-.77-.166z" fill="#464B44"/><path d="M33.842 78.918c.596.013 1.192.004 1.788.035-.468.41-1.37.474-1.788-.035z" fill="#3B4544"/><path d="M46.45 79.429c.88-.157 1.772-.216 2.66-.317-.79.323-1.682.653-2.537.48l-.124-.163z" fill="#2C3F56"/><path d="M36.8 79.38a4.18 4.18 0 0 1 1.03-.028c.002.452-.975.457-1.03.029z" fill="#2F3D49"/><path d="M42.435 79.37c.477-.042.95.058 1.417.135-.42.135-1.264.487-1.416-.136z" fill="#B0A789"/></svg>