<svg width="110" height="32" fill="none" xmlns="http://www.w3.org/2000/svg"><path fill-rule="evenodd" clip-rule="evenodd" d="M39.415 14.779c2.777 0 3.703-1.86 3.703-4.416 0-4.938-3.646-4.531-3.934-4.531h-1.331v8.947h1.562zm.174-1.569V7.46c1.446 0 1.794 1.8 1.794 2.904 0 1.104-.406 2.905-1.794 2.847zm8.736-7.378v8.947h3.587v-1.627h-1.794v-2.034h1.562V9.433h-1.562V7.516h1.794V5.832h-3.587zm12.554.348c-.462-.29-.983-.465-1.504-.465-1.562 0-2.371 1.22-2.371 2.614 0 1.337.636 1.976 1.678 2.673.462.348 1.04.581 1.04 1.278 0 .581-.462.988-1.04.988-.522 0-.926-.174-1.332-.465v1.685c.406.29 1.042.407 1.505.407 1.678 0 2.546-1.162 2.546-2.731 0-2.44-2.662-2.498-2.662-4.009 0-.523.348-.871.869-.871.52 0 .925.29 1.272.58V6.18zm5.844 8.599h1.737V5.832h-1.737v8.947zM76.848 9.84v1.627h1.099c0 .64-.115 1.801-1.04 1.801-1.274 0-1.332-2.033-1.332-2.963 0-.813.115-3.021 1.331-2.963.636 0 .81.697.867 1.162l1.737-.697c-.406-1.22-1.274-2.092-2.662-2.092-2.487 0-3.124 2.614-3.124 4.648 0 1.976.751 4.532 3.124 4.532 2.43 0 2.893-2.498 2.893-4.358V9.84h-2.893zm8.1-4.008v8.947h1.735v-4.474l-.115-.872.058-.057 2.14 5.403h1.679V5.832H88.71v4.067c0 .406 0 .872.114 1.336l-2.197-5.402h-1.679v-.001zm10.993 0v8.947h3.586v-1.627h-1.85v-2.034h1.62V9.433h-1.62V7.516h1.793V5.832h-3.529zm10.645 8.947v-4.125h.058l1.504 4.125H110l-1.504-4.067c.867-.465 1.214-1.336 1.214-2.325 0-2.381-1.967-2.556-3.124-2.556h-1.735v8.947h1.735zm0-7.437h.232c.926-.058 1.215.465 1.215 1.104 0 .697-.348 1.278-1.1 1.278l-.347-.057V7.342zM37.968 20.356v.697h.984v5.52h.81v-5.52h.926v-.697h-2.72zm7.348 0v6.216h2.257v-.697h-1.446v-2.15h1.272v-.696h-1.272v-1.976h1.446v-.697h-2.257zm9.431.117c-.232-.175-.405-.175-.694-.175-1.678 0-1.852 2.033-1.852 3.254 0 1.336.232 3.137 1.91 3.137.232 0 .463-.06.637-.174v-.755c-.116.115-.29.115-.463.115-1.157 0-1.215-1.568-1.215-2.381 0-.756 0-2.44 1.157-2.44.173 0 .347.057.52.174v-.755zm4.802-.117v6.216h.868v-3.078h1.214v3.079h.811v-6.217h-.81v2.44h-1.215v-2.44h-.868zm8.736 1.453l1.447 4.764h.752v-6.217h-.81v2.208l.231 2.498h-.057L68.4 20.356h-.752v6.216h.81v-2.265l-.116-2.092-.058-.406zm8.852-1.51c-1.62 0-1.62 2.032-1.62 3.195 0 1.103 0 3.195 1.62 3.195s1.62-2.092 1.62-3.195c0-1.163 0-3.196-1.62-3.196zm0 .755c.636 0 .752 1.103.752 2.44 0 1.277-.116 2.38-.752 2.38s-.752-1.103-.752-2.38c0-1.336.116-2.44.752-2.44zm6.596-.698v6.216h2.257v-.697h-1.388v-5.519h-.869zm8.39-.058c-1.62 0-1.62 2.033-1.62 3.196 0 1.103 0 3.195 1.62 3.195 1.562 0 1.62-2.092 1.62-3.195 0-1.163-.058-3.196-1.62-3.196zm0 .756c.636 0 .751 1.103.751 2.44 0 1.277-.115 2.38-.752 2.38-.636 0-.752-1.103-.752-2.38 0-1.336.116-2.44.752-2.44zm8.099 2.266v.696h.636v.349c0 1.452-.347 1.51-.693 1.51-.349 0-.695-.232-.695-2.38 0-1.512.057-2.44.695-2.44.52 0 .636.405.693.812l.811-.348c-.232-.814-.637-1.22-1.504-1.22-1.447 0-1.563 1.452-1.563 3.195 0 1.742.173 3.195 1.62 3.195 1.678 0 1.505-2.091 1.505-3.311v-.058h-1.505zm5.959-2.964l1.273 3.544v2.673h.81V23.9l1.158-3.544h-.869l-.578 2.092-.115.813-.752-2.905h-.927z" fill="#333"/><path fill-rule="evenodd" clip-rule="evenodd" d="M7.536 25.875c-.232-.174-1.91-2.555-2.257-4.532 13.307 12.491 28.987 1.627 24.416-7.727-.058-.174-.174-.348-.348-.58 0-.349-.115-1.394-.173-1.743l.405.406c6.248 7.436.925 15.86-7.058 18.068-6.828 1.569-11.572-.87-14.985-3.892z" fill="#828282"/><path fill-rule="evenodd" clip-rule="evenodd" d="M6.783 11.816c-1.33 1.51-1.678 3.37-1.678 3.37 1.158 5.926 6.307 7.204 6.307 7.204-5.496-4.183-4.629-10.574-4.629-10.574zM5.627 5.483c-2.951 1.801-3.993 4.822-3.53 6.797-.81 1.511-.983 1.918-1.62 4.125C-1.432 9.55 3.486 5.832 5.627 5.483z" fill="#828282"/><path fill-rule="evenodd" clip-rule="evenodd" d="M27.034 22.389a27.18 27.18 0 0 1-3.009 2.382C32.935 7.46 15-3.232 8.115 6.355 7.882 6.47 5.972 7.4 5.452 7.807 10.255-5.44 27.901-.27 29.58 11.699c.347 3.37.174 6.391-2.545 10.69z" fill="#C4C4C4"/><path fill-rule="evenodd" clip-rule="evenodd" d="M19.628 5.309c.868.348 1.562.988 2.256 1.685C9.272 4.147 3.833 11.642 3.775 17.742c-.058 7.03 6.133 14.582 14.638 12.433.057 0 .462-.116.694-.233.925-.116 1.678-.174 2.314-.29a1.115 1.115 0 0 0-.232.174C10.197 36.332-.449 27.096.015 17.16 1.055 8.737 9.387 2.055 19.628 5.31z" fill="#C4C4C4"/><path fill-rule="evenodd" clip-rule="evenodd" d="M7.536 25.875c-.232-.174-1.91-2.556-2.257-4.532 5.844 5.46 12.15 6.45 16.953 5.055.347 1.22.694 2.032.289 3.37-6.828 1.568-11.572-.872-14.985-3.893z" fill="#828282"/></svg>