<svg width="48" height="48" fill="none" xmlns="http://www.w3.org/2000/svg"><mask id="a" maskUnits="userSpaceOnUse" x="0" y="0" width="48" height="48"><path d="M24 48c13.255 0 24-10.745 24-24S37.255 0 24 0 0 10.745 0 24s10.745 24 24 24z" fill="#fff"/></mask><g mask="url(#a)"><path d="M24 48c13.255 0 24-10.745 24-24S37.255 0 24 0 0 10.745 0 24s10.745 24 24 24z" fill="#C4C4C4"/><path d="M7.259 33.136l20.126 14.971 49.501 3.113-37.932-35.11v8.005l-3.54-2.535-6.585-5.47-3.92 6.391-5.511-4.601-9.691-.614-2.448 15.85z" fill="#828282"/><path d="M22.282 24.592c0-5.087-3.127-8.536-9.082-8.536H7.318v17.122h6.006c5.781 0 8.958-3.498 8.958-8.586zm-4.268.025c0 3.673-1.886 5.261-4.914 5.261h-1.538V19.356H13.1c2.903 0 4.914 1.663 4.914 5.261zm21.167 8.561V16.056h-3.946v9.579l-6.303-9.58h-4.119v17.123h3.946V22.93l6.75 10.25h3.672z" fill="#fff"/></g></svg>