<svg width="25" height="25" fill="none" xmlns="http://www.w3.org/2000/svg"><g clip-path="url(#clip0)"><path fill-rule="evenodd" clip-rule="evenodd" d="M.489 15.452a9.06 9.06 0 1 1 18.12 0 9.06 9.06 0 0 1-18.12 0z" fill="#00ADEE"/><path fill-rule="evenodd" clip-rule="evenodd" d="M12.948 23.852l-3.391-2.076v-3.143l2.832-2.057 3.304.742.659 4.115-3.404 2.419z" fill="#fff"/><path fill-rule="evenodd" clip-rule="evenodd" d="M18.55 14.436l-2.857 2.882-3.305-.742-1.082-3.33 2.043-3.142 4.018.771 1.183 3.56zm-12.08 9.54l3.07-2.2v-3.142l-2.833-2.058-3.305.742-.499 4.292 3.568 2.366z" fill="#fff"/><path fill-rule="evenodd" clip-rule="evenodd" d="M.55 14.39l2.853 2.928 3.304-.742 1.082-3.33-2.042-3.142-4.008.753L.551 14.39z" fill="#fff"/><path fill-rule="evenodd" clip-rule="evenodd" d="M7.789 6.564l-2.042 3.54 2.042 3.143h3.518l2.043-3.143-2.043-3.54H7.79z" fill="#fff"/><path d="M1.29 10.663A9.481 9.481 0 0 0 .068 14.33l-.002.013a9.511 9.511 0 0 0 2.441 7.551.49.49 0 0 0 .088.094 9.576 9.576 0 0 0 3.756 2.461c1 .357 2.077.552 3.198.552a9.498 9.498 0 0 0 3.628-.717 9.59 9.59 0 0 0 3.497-2.482.504.504 0 0 0 .082-.093 9.508 9.508 0 0 0 2.282-7.316l-.002-.013a9.47 9.47 0 0 0-.392-1.835l5.129-5.129a.488.488 0 0 0-.69-.69l-4.822 4.82a9.49 9.49 0 0 0-.446-.868.477.477 0 0 0-.056-.095 9.592 9.592 0 0 0-5.463-4.275l3.44-3.44a.489.489 0 0 0-.69-.69l-3.867 3.867a9.552 9.552 0 0 0-9.826 4.517.487.487 0 0 0-.061.102zm4.225-.019l1.738 2.674-.924 2.842-2.196.493-.57.129-2.497-2.564a8.505 8.505 0 0 1 .99-2.924l3.46-.65zm6.329 2.674l1.736-2.672 3.471.665a8.51 8.51 0 0 1 .986 2.95l-2.5 2.521-2.77-.622-.615-1.894-.308-.948zm4.812 6.92l-.44-2.752 1.902-1.92a8.521 8.521 0 0 1-1.462 4.672zm-5.703-6.503l.862 2.655-2.258 1.64L7.3 16.39l.863-2.655h2.79zM.978 15.528l1.913 1.964-.338 2.908a8.525 8.525 0 0 1-1.575-4.872zm2.437 5.906l.433-3.716 1.05-.235L6.6 17.1l2.452 1.781v2.644l-2.65 1.899a8.603 8.603 0 0 1-2.986-1.991zm4.15 2.357l2.004-1.435 2.233 1.366a8.548 8.548 0 0 1-4.236.07zm5.422-.489l-2.941-1.8v-2.62l1.73-1.256.722-.525 2.766.62.568 3.554a8.612 8.612 0 0 1-2.845 2.027zm3.309-13.13l-2.635-.506-1.341-2.325a8.606 8.606 0 0 1 3.976 2.831zm-5.298-3.168l1.78 3.085-1.736 2.67H8.055l-1.735-2.67L8.1 7.004a8.59 8.59 0 0 1 2.899 0zm-4.221.337L5.436 9.665l-2.625.494A8.605 8.605 0 0 1 6.777 7.34z" fill="#334382"/><path d="M18.275 7.416L24.857.834a.488.488 0 1 0-.69-.69l-6.582 6.581a.489.489 0 0 0 .69.69zm-1.387-5.903a.492.492 0 0 0 .488-.488.491.491 0 0 0-.488-.489.49.49 0 0 0 0 .977z" fill="#334382"/></g><defs><clipPath id="clip0"><path fill="#fff" transform="rotate(-180 12.5 12.5)" d="M0 0h25v25H0z"/></clipPath></defs></svg>