<svg width="25" height="25" fill="none" xmlns="http://www.w3.org/2000/svg"><path d="M12.5 0C19.403 0 25 5.597 25 12.5S19.403 25 12.5 25 0 19.403 0 12.5 5.596 0 12.5 0z" fill="#fff"/><path d="M16.814 5.467h-8.63a2.72 2.72 0 0 0-2.717 2.718v8.63a2.72 2.72 0 0 0 2.718 2.718h8.63a2.72 2.72 0 0 0 2.717-2.718v-8.63a2.722 2.722 0 0 0-2.718-2.718zm.856 1.573h.308v2.334l-2.352.007-.008-2.334 2.052-.007zm-5.17 3.107c1.95 0 2.353 1.831 2.353 2.354a2.356 2.356 0 0 1-2.353 2.352 2.356 2.356 0 0 1-2.354-2.352c0-.523.403-2.354 2.354-2.354zm5.491 6.498c0 .743-.604 1.347-1.348 1.347H8.33a1.349 1.349 0 0 1-1.348-1.347v-5.71h1.953c-.182.445-.284 1.055-.284 1.566a3.85 3.85 0 0 0 3.846 3.846 3.85 3.85 0 0 0 3.846-3.846c0-.511-.103-1.12-.283-1.567h1.93v5.71h.001z" fill="#00ADEE"/></svg>