<svg width="99" height="32" fill="none" xmlns="http://www.w3.org/2000/svg"><g clip-path="url(#clip0)"><path fill-rule="evenodd" clip-rule="evenodd" d="M.489 15.452a9.06 9.06 0 1 1 18.12 0 9.06 9.06 0 0 1-18.12 0z" fill="#fff"/><path fill-rule="evenodd" clip-rule="evenodd" d="M12.948 23.851l-3.391-2.075v-3.143l2.832-2.057 3.304.741.659 4.116-3.404 2.418z" fill="#00ADEE"/><path fill-rule="evenodd" clip-rule="evenodd" d="M18.55 14.436l-2.857 2.882-3.305-.742-1.082-3.33 2.043-3.142 4.018.771 1.183 3.56zm-12.08 9.54l3.07-2.2v-3.142l-2.833-2.058-3.305.742-.499 4.292 3.568 2.366z" fill="#00ADEE"/><path fill-rule="evenodd" clip-rule="evenodd" d="M.55 14.39l2.853 2.928 3.304-.742 1.082-3.33-2.042-3.142-4.008.753-1.188 3.532z" fill="#00ADEE"/><path fill-rule="evenodd" clip-rule="evenodd" d="M7.789 6.564l-2.042 3.54 2.042 3.143h3.518l2.043-3.143-2.043-3.54H7.79z" fill="#00ADEE"/><path d="M1.29 10.663A9.481 9.481 0 0 0 .068 14.33l-.002.013a9.511 9.511 0 0 0 2.441 7.551.49.49 0 0 0 .088.094 9.576 9.576 0 0 0 3.756 2.461c1 .357 2.077.552 3.198.552a9.498 9.498 0 0 0 3.628-.717 9.59 9.59 0 0 0 3.497-2.482.504.504 0 0 0 .082-.093 9.508 9.508 0 0 0 2.282-7.316l-.002-.013a9.47 9.47 0 0 0-.392-1.835l5.129-5.129a.488.488 0 0 0-.69-.69l-4.822 4.82a9.49 9.49 0 0 0-.446-.868.477.477 0 0 0-.056-.095 9.592 9.592 0 0 0-5.463-4.275l3.44-3.44a.489.489 0 0 0-.69-.69l-3.867 3.867a9.552 9.552 0 0 0-9.826 4.517.487.487 0 0 0-.061.102zm4.225-.019l1.738 2.674-.924 2.842-2.196.493-.57.129-2.497-2.564a8.505 8.505 0 0 1 .99-2.924l3.46-.65zm6.329 2.674l1.736-2.672 3.471.665a8.51 8.51 0 0 1 .986 2.95l-2.5 2.521-2.77-.622-.615-1.894-.308-.948zm4.812 6.92l-.44-2.752 1.902-1.92a8.521 8.521 0 0 1-1.462 4.672zm-5.703-6.503l.862 2.655-2.258 1.64L7.3 16.39l.863-2.655h2.79zM.978 15.528l1.913 1.964-.338 2.908a8.525 8.525 0 0 1-1.575-4.872zm2.437 5.906l.433-3.716 1.05-.235L6.6 17.1l2.452 1.781v2.644l-2.65 1.899a8.603 8.603 0 0 1-2.986-1.991zm4.15 2.357l2.004-1.435 2.233 1.366a8.548 8.548 0 0 1-4.236.07zm5.422-.489l-2.941-1.8v-2.62l1.73-1.256.722-.525 2.766.62.568 3.554a8.612 8.612 0 0 1-2.845 2.027zm3.309-13.13l-2.635-.506-1.341-2.325a8.606 8.606 0 0 1 3.976 2.831zm-5.298-3.168l1.78 3.085-1.736 2.67H8.055l-1.735-2.67L8.1 7.004a8.59 8.59 0 0 1 2.899 0zm-4.221.337L5.436 9.665l-2.625.494A8.605 8.605 0 0 1 6.777 7.34z" fill="#fff"/><path d="M18.275 7.416L24.857.834a.488.488 0 1 0-.69-.69l-6.582 6.58a.489.489 0 0 0 .69.692zm-1.387-5.903a.492.492 0 0 0 .488-.489.491.491 0 0 0-.488-.488.49.49 0 0 0 0 .977z" fill="#fff"/></g><path d="M34.984 25.384c-.736 0-1.44-.104-2.112-.312a6.101 6.101 0 0 1-1.848-.936 6.578 6.578 0 0 1-1.464-1.512 7.558 7.558 0 0 1-.984-2.112l3.048-1.2c.224.864.616 1.584 1.176 2.16.56.56 1.296.84 2.208.84.336 0 .656-.04.96-.12.32-.096.6-.224.84-.384a1.93 1.93 0 0 0 .6-.648 1.78 1.78 0 0 0 .216-.888c0-.32-.056-.608-.168-.864-.112-.256-.304-.496-.576-.72-.256-.224-.6-.44-1.032-.648a14.53 14.53 0 0 0-1.56-.648l-1.056-.384a8.503 8.503 0 0 1-1.416-.648 6.294 6.294 0 0 1-1.272-.984 5.125 5.125 0 0 1-.96-1.344c-.24-.528-.36-1.12-.36-1.776 0-.672.128-1.296.384-1.872a4.663 4.663 0 0 1 1.128-1.536 5.18 5.18 0 0 1 1.752-1.032c.688-.256 1.448-.384 2.28-.384.864 0 1.608.12 2.232.36.64.224 1.176.52 1.608.888.448.352.808.744 1.08 1.176.272.432.472.84.6 1.224l-2.856 1.2c-.16-.48-.456-.912-.888-1.296-.416-.384-.992-.576-1.728-.576-.704 0-1.288.168-1.752.504-.464.32-.696.744-.696 1.272 0 .512.224.952.672 1.32.448.352 1.16.696 2.136 1.032l1.08.36c.688.24 1.312.52 1.872.84a5.42 5.42 0 0 1 1.464 1.104c.416.432.728.928.936 1.488.224.544.336 1.176.336 1.896 0 .896-.184 1.672-.552 2.328a4.862 4.862 0 0 1-1.368 1.584 6.001 6.001 0 0 1-1.896.936 7.265 7.265 0 0 1-2.064.312zm7.589-12.144h2.952v1.416h.192c.288-.496.736-.92 1.344-1.272.608-.352 1.36-.528 2.256-.528.752 0 1.464.16 2.136.48a5.338 5.338 0 0 1 1.8 1.296A5.91 5.91 0 0 1 54.5 16.6c.304.768.456 1.608.456 2.52 0 .912-.152 1.752-.456 2.52a6.189 6.189 0 0 1-1.248 1.992 5.815 5.815 0 0 1-1.8 1.296 5.123 5.123 0 0 1-2.136.456c-.896 0-1.648-.176-2.256-.528-.608-.352-1.056-.776-1.344-1.272h-.192l.192 1.68v4.92h-3.144V13.24zm6.096 9.24c.416 0 .808-.08 1.176-.24.384-.16.72-.384 1.008-.672.288-.288.52-.64.696-1.056.176-.416.264-.88.264-1.392 0-.512-.088-.976-.264-1.392a3.28 3.28 0 0 0-.696-1.056A3.092 3.092 0 0 0 49.845 16c-.368-.16-.76-.24-1.176-.24-.416 0-.816.08-1.2.24-.368.144-.696.36-.984.648a3.28 3.28 0 0 0-.696 1.056 3.604 3.604 0 0 0-.264 1.416c0 .528.088 1 .264 1.416a3.166 3.166 0 0 0 1.68 1.728 3.39 3.39 0 0 0 1.2.216zm13.385-9.624c.912 0 1.744.16 2.496.48a5.554 5.554 0 0 1 1.968 1.296c.56.544.992 1.2 1.296 1.968.32.768.48 1.608.48 2.52 0 .912-.16 1.752-.48 2.52a5.8 5.8 0 0 1-1.296 1.992c-.544.544-1.2.976-1.968 1.296-.752.304-1.584.456-2.496.456-.912 0-1.752-.152-2.52-.456a6.378 6.378 0 0 1-1.968-1.296 6.305 6.305 0 0 1-1.296-1.992c-.304-.768-.456-1.608-.456-2.52 0-.912.152-1.752.456-2.52a6.021 6.021 0 0 1 1.296-1.968 5.854 5.854 0 0 1 1.968-1.296c.768-.32 1.608-.48 2.52-.48zm0 9.624c.4 0 .784-.072 1.152-.216.384-.16.72-.384 1.008-.672.288-.288.512-.64.672-1.056.176-.416.264-.888.264-1.416 0-.528-.088-1-.264-1.416a2.987 2.987 0 0 0-.672-1.056A2.799 2.799 0 0 0 63.206 16a2.86 2.86 0 0 0-1.152-.24c-.416 0-.808.08-1.176.24-.368.144-.696.36-.984.648a3.28 3.28 0 0 0-.696 1.056c-.16.416-.24.888-.24 1.416 0 .528.08 1 .24 1.416a3.166 3.166 0 0 0 1.68 1.728c.368.144.76.216 1.176.216zm10.497-7.608h.192a3.587 3.587 0 0 1 1.392-1.416 3.988 3.988 0 0 1 2.064-.552c.272 0 .488.008.648.024.16.016.312.048.456.096v3.12a2.936 2.936 0 0 0-.6-.192 3.478 3.478 0 0 0-.768-.072c-.992 0-1.776.304-2.352.912-.56.592-.84 1.408-.84 2.448V25H69.6V13.24h2.952v1.632zm8.232 1.056H78.72V13.24h2.064v-3.6h3.144v3.6h2.88v2.688h-2.88v4.56c0 .272.024.528.072.768.064.224.176.416.336.576.224.256.544.384.96.384.272 0 .488-.024.648-.072.16-.064.312-.144.456-.24l.888 2.76a4.789 4.789 0 0 1-1.2.384c-.416.096-.88.144-1.392.144a4.644 4.644 0 0 1-1.608-.264 3.57 3.57 0 0 1-1.176-.768c-.752-.72-1.128-1.744-1.128-3.072v-5.16zm12.75 9.456c-.768 0-1.456-.096-2.064-.288a6.129 6.129 0 0 1-1.56-.744c-.432-.32-.8-.68-1.104-1.08a5.428 5.428 0 0 1-.696-1.248l2.808-1.2c.272.608.632 1.064 1.08 1.368.464.288.976.432 1.536.432.576 0 1.032-.104 1.368-.312.336-.208.504-.456.504-.744 0-.32-.144-.576-.432-.768-.272-.208-.752-.392-1.44-.552l-1.656-.36a6.078 6.078 0 0 1-1.152-.384 4.549 4.549 0 0 1-1.056-.672c-.32-.272-.584-.6-.792-.984-.208-.384-.312-.832-.312-1.344 0-.576.12-1.088.36-1.536.256-.448.6-.824 1.032-1.128.432-.32.936-.56 1.512-.72a6.622 6.622 0 0 1 1.896-.264c1.12 0 2.12.224 3 .672.88.432 1.528 1.128 1.944 2.088l-2.712 1.104a2.08 2.08 0 0 0-.984-1.008 2.965 2.965 0 0 0-1.296-.312c-.448 0-.84.096-1.176.288-.336.176-.504.408-.504.696 0 .272.136.488.408.648.288.16.672.304 1.152.432l1.8.432c1.2.288 2.088.752 2.664 1.392a3.13 3.13 0 0 1 .888 2.232c0 .512-.12 1-.36 1.464-.24.464-.584.88-1.032 1.248-.432.352-.96.632-1.584.84-.608.208-1.288.312-2.04.312z" fill="#fff"/><defs><clipPath id="clip0"><path fill="#fff" transform="rotate(-180 12.5 12.5)" d="M0 0h25v25H0z"/></clipPath></defs></svg>