<svg width="38" height="24" fill="none" xmlns="http://www.w3.org/2000/svg"><path d="M25.667 10.333a4.98 4.98 0 0 0 4.983-5c0-2.766-2.216-5-4.983-5-2.767 0-5 2.234-5 5 0 2.767 2.233 5 5 5zm-13.333 0a4.98 4.98 0 0 0 4.983-5c0-2.766-2.217-5-4.983-5-2.767 0-5 2.234-5 5 0 2.767 2.233 5 5 5zm0 3.334C8.45 13.667.667 15.617.667 19.5v4.167H24V19.5c0-3.883-7.783-5.833-11.666-5.833zm13.333 0c-.483 0-1.033.033-1.617.083 1.934 1.4 3.284 3.283 3.284 5.75v4.167h10V19.5c0-3.883-7.784-5.833-11.667-5.833z" fill="#fff"/></svg>