<svg width="69" height="58" fill="none" xmlns="http://www.w3.org/2000/svg"><path fill-rule="evenodd" clip-rule="evenodd" d="M22.982 13.755c-1.103-.767-1.63-1.03-2.807-1.03-1.007 0-1.919.479-2.59 1.15-.672.672-1.056 1.583-1.056 2.614a3.62 3.62 0 0 0 1.056 2.59c.671.671 1.583 1.175 2.59 1.175H32.65l-9.668-6.499z" fill="#CECECE"/><path fill-rule="evenodd" clip-rule="evenodd" d="M27.205 7.856c-.504-1.247-.792-1.774-1.752-2.422-.84-.576-1.871-.695-2.806-.504-.936.168-1.752.72-2.328 1.559a3.691 3.691 0 0 0-.6 2.758c.192.935.648 1.822 1.512 2.397l10.867 7.41-4.893-11.198z" fill="#4E5353"/><path fill-rule="evenodd" clip-rule="evenodd" d="M33.945 5.098c.216-1.294.264-1.894-.215-2.973C33.322 1.19 32.506.566 31.618.23c-.887-.335-1.87-.311-2.83.12-.936.408-1.608 1.127-1.944 2.014-.335.888-.407 1.919.024 2.854l5.326 12.23 1.751-12.35z" fill="#333939"/><path fill-rule="evenodd" clip-rule="evenodd" d="M45.844 13.755c1.104-.767 1.632-1.03 2.806-1.03 1.033 0 1.92.479 2.591 1.15.672.672 1.056 1.583 1.056 2.614 0 1.007-.36 1.919-1.031 2.59-.696.671-1.584 1.175-2.616 1.175H36.2l9.644-6.499z" fill="#ADACAC"/><path fill-rule="evenodd" clip-rule="evenodd" d="M41.647 7.856c.48-1.247.767-1.774 1.727-2.422.864-.576 1.87-.695 2.806-.504.936.168 1.776.72 2.352 1.559.575.84.768 1.822.575 2.758-.167.935-.647 1.822-1.487 2.397l-10.867 7.41 4.894-11.198z" fill="#8E8F8F"/><path fill-rule="evenodd" clip-rule="evenodd" d="M41.982 2.364C41.647 1.477 40.975.758 40.04.35c-.935-.431-1.92-.455-2.806-.12-.888.336-1.704.96-2.136 1.895-.335.768-.407 1.295-.335 2.014v.048l1.007.024c.576.024.863.168.144.48-.264.192-1.008.312-.84 1.63l1.584 11.127 5.325-12.23c.408-.935.336-1.966 0-2.854z" fill="#4E5353"/><path fill-rule="evenodd" clip-rule="evenodd" d="M42.918 34.475c0 3.789-3.095 4.052-4.246 4.052-.792 0-8.3.096-8.3.096V22.58h7.316c2.303 0 4.078 1.823 4.078 4.029s-1.15 3.525-2.039 3.525c0 0 3.191.527 3.191 4.34z" fill="#000"/><path fill-rule="evenodd" clip-rule="evenodd" d="M34.593 25.506v2.973h2.135c1.512 0 1.584-2.973 0-2.973h-2.135zm0 6.355v3.43h3.046c1.752 0 1.847-3.43 0-3.43h-3.046z" fill="#fff"/><path fill-rule="evenodd" clip-rule="evenodd" d="M16.985 36.753c-1.032-.816-2.255-1.247-4.415-.935v2.805h4.367a.959.959 0 0 1-.408-.576c-.12-.455.144-.863.36-1.175.023-.047.048-.095.096-.12zm-2.903-4.197c1.271 0 2.255.216 2.998.551v-4.34l7.701 9.88.024-.024h4.51v-16.09h-4.534v9.88l-7.7-9.88h-4.51v10.095a16.92 16.92 0 0 1 1.51-.072zm41.599 5.78v-.864h-.025c-.24.384-.503.815-.768 1.247a12.3 12.3 0 0 0 .793-.383zm-4.703.983c.216-.336.456-.696.672-1.055-.864.191-1.391.312-1.631.383-.624.192-1.008-.12-1.128-.24-.288-.287-.36-.695-.216-1.127.168-.48.648-1.031 1.487-1.175a40.2 40.2 0 0 0 3.287-.671c.095-.144.192-.288.288-.456-.48.192-.984.264-1.512.264a4.503 4.503 0 0 1-4.51-4.509c0-2.445 2.015-4.46 4.51-4.46 1.391 0 2.615.624 3.455 1.607v-4.533a8.443 8.443 0 0 0-4.03-1.007c-4.703 0-8.517 3.813-8.517 8.489a8.507 8.507 0 0 0 7.845 8.49z" fill="#000"/><path fill-rule="evenodd" clip-rule="evenodd" d="M68.78 34.019c-.265-.264-.529-.791-2.04-.528-1.271.216-7.869 1.463-10.724 2.062.145-.287.288-.551.36-.743.72-1.583-.336-2.038-1.151-.887-.216.336-.744 1.127-1.368 2.11-1.559.36-2.638.576-3.574.72-1.151.192-1.344 1.51-.456 1.246.432-.119 1.68-.383 3.215-.695-1.367 2.159-2.95 4.677-3.479 5.564-.887 1.51-3.19 3.02-4.438 3.645-1.223.6-1.583.168-.791-1.15.791-1.344 1.511-2.663 2.04-3.382.527-.696 0-.96-.529-.791 0 0 .624-2.207-.72-2.207-1.32 0-1.847.96-2.374 1.583-.505.6-2.207 2.446-3.958 2.638.383-1.703-.745-2.014-.745-2.014s.888-1.847-1.774-1.775c-.889.024-2.736.623-3.983 2.062-.36.048-.96.216-1.655.768-1.248.983-3.191 2.398-4.246 2.925 0 0 1.247-1.678 1.247-3.189 0-1.486-.816-1.535-2.04-1.535-1.03 0-2.806 1.2-4.51 2.974.096-.407.576-2.926-.72-2.854-.743.049-1.079.696-1.223 1.439-.72.096-2.974.48-6.261 2.038-1.127-.84-3.167-1.127-5.542-1.343-3.622-.36-5.134-.528-5.134-1.774 0-1.247 3.455-3.885 7.173-5.036 4.222-1.319 6.381-1.08 8.229.527.528.433-.96 1.32-.264 1.68.72.36 1.607 0 1.512-1.415-.096-1.415-.888-3.454-4.774-3.454-3.91 0-10.1 1.774-13.29 7.075-.793 1.317.887 3.093 3.98 3.357 2.063.192 4.75.575 6.142 1.415-.072.023-.145.071-.193.095C5.398 48.192 0 50.567 0 53.228c0 1.247.696 1.607 2.735 1.607 2.04 0 11.084-4.173 11.084-8.873 0-.504-.12-.936-.36-1.295 1.895-.84 3.79-1.511 5.493-1.799l.072-.168c-.048.48-.048.912-.072 1.223-.048.408-.287 1.535-.6 2.83-2.038 2.638-4.51 6.115-4.725 7.986-.264 2.47.096 3.261 1.152 3.261.96 0 1.966-.335 5.014-10.216.215.623.863 1.151 1.895 1.007 1.415-.168 4.078-.96 6.549-3.165 1.991-1.774 2.543-2.23 3.07-2.23-.073.266-.12.54-.143.815-.264 3.453 1.151 3.789 2.135 3.884.935.097 3.982-.838 5.23-4.052.576.12 1.943.168 3.766-1.606 2.496-2.399 2.231-1.415 1.872-.816-.36.623-2.4 3.19-1.68 4.964.696 1.775 1.847 2.038 4.15.36 2.303-1.68 3.19-2.47 3.19-2.47s-.167 2.47 2.304 2.47c1.511 0 3.19-1.319 5.062-3.19 1.847-1.846 3.095-3.62 3.886-3.62 0 0 1.151 2.47-.264 3.98-1.175 1.223-1.56 1.56-2.207 1.248-1.08-.552-2.663.264-1.703.96.983.718 1.607 1.605 3.55.263 1.944-1.32 4.247-3.261 6.19-5.036 1.775-1.607.36-1.774-.696-.527-.791.91-3.19 2.47-3.19 2.47s.719-2.927-.888-4.869c0 0-.696-1.87-1.68.097 0 0-2.998 3.524-4.15 4.676-2.495 2.493-6.597 3.261-5.062.36.576-1.104 2.807-4.51 4.247-6.883 1.127-.216 2.279-.456 3.286-.648 3.19-.623 8.949-1.414 9.836-1.414.887 0 .695-.53.431-.793z" fill="#333939"/><path fill-rule="evenodd" clip-rule="evenodd" d="M11.78 46.68c-.793 2.734-6.118 6.547-8.157 6.812-2.04.263-2.471-.888.192-2.998 1.511-1.223 4.486-3.237 7.748-4.892.24.312.336.67.216 1.078zm4.965 5.397c-.888 2.206-1.607 3.62-2.231 3.453-.6-.169.24-3.238 3.023-5.876a29.05 29.05 0 0 1-.792 2.423zm9.116-8.85c-.456 1.68-2.303 3.55-3.358 3.286-.792-.216-1.8-.216-2.352.12 0-.024 0-.049.024-.072 1.08-1.631 1.8-3.094 3.19-3.861 2.232-1.247 2.928-1.152 2.496.528zm9.62 3.19c-1.224.528-2.711.96-2.711-.192 0-1.151 0-2.998 1.823-4.245l.36-.623s1.248.456 2.135.263c0 0 .168 1.08.528 1.511 0 0-.887 2.758-2.135 3.286z" fill="#fff"/></svg>