<svg width="210" height="34" fill="none" xmlns="http://www.w3.org/2000/svg"><path d="M62.347.001H3.107C1.398.001 0 1.391 0 3.089v27.824C0 32.612 1.398 34 3.107 34l59.24-.004V.001z" fill="#828282"/><path opacity=".8" d="M62.347.716H2.444s1.31 7.014 9.57 12.895c0 0 4.229 3.164 6.983 3.136h43.349V.716h.001z" fill="#DADADA"/><path d="M62.348 33.994l144.547-.003c1.706 0 3.105-1.388 3.105-3.086V3.088C210 1.389 208.601 0 206.895 0H62.348v33.994z" fill="#A4A1A1"/><path opacity=".8" d="M62.348.716h145.188s-1.309 7.014-9.568 12.895c0 0-4.231 3.164-6.007 3.136H62.348V.716z" fill="#E3E8ED"/><path d="M41.176 31.575c.407.208 1.233.454 2.268.483 1.783.037 2.753-.64 3.473-2.228l9.555-21.183c-.394-.209-1.272-.443-1.98-.457-1.231-.026-2.883.222-3.93 2.724l-3.088 7.255-6.07-9.822a8.928 8.928 0 0 0-2.045-.287c-2.148 0-3.34.781-4.586 2.124l-5.897 6.41 4.744 7.424c.878 1.355 2.032 2.045 3.906 2.045 1.232 0 2.254-.285 2.725-.507l-5.714-8.559 4.05-4.273 6.645 10.369-4.049 8.482h-.007zm-12.534-8.013c0 1.563-.616 2.463-3.683 2.463-.406 0-.76-.027-1.1-.08V5.234c0-1.576.536-3.218 3.63-3.218.393 0 .785.04 1.153.117v21.43zm-6.326-3.126c0 2.918-1.913 5.04-5.806 5.459-2.818.3-6.893-.053-8.833-.274a5.348 5.348 0 0 1-.118-1.017c0-2.54 1.376-3.125 2.673-3.125 1.35 0 3.474.233 5.047.233 1.742 0 2.266-.587 2.266-1.145 0-.731-.694-1.029-2.044-1.29l-3.696-.704c-3.066-.587-4.704-2.697-4.704-4.938 0-2.721 1.939-5.002 5.753-5.418 2.883-.313 6.395.038 8.323.273.064.326.104.637.104.977 0 2.54-1.35 3.087-2.647 3.087-.997 0-2.542-.182-4.312-.182-1.796 0-2.542.495-2.542 1.094 0 .638.706.898 1.835 1.094l3.525.652c3.617.664 5.176 2.709 5.176 5.224zm67.138 1.41c0-3.646-2.388-5.42-6.192-6.256L76.6 14.086c-1.211-.268-2.221-.636-2.221-1.84 0-1.305 1.044-1.806 3.836-1.806 3.299 0 4.073.167 7.068.167 1.38 0 2.792-.636 2.792-3.345a5.39 5.39 0 0 0-.1-1.038c-2.02-.167-5.62-.368-10.061-.368-6.697 0-9.255 2.878-9.255 6.557 0 3.445 2.188 5.354 6.058 6.256l6.662 1.538c1.549.366 2.39 1.037 2.39 2.007 0 1.305-1.177 1.807-3.97 1.807-3.297 0-4.812-.233-7.808-.233-1.38 0-2.792.634-2.792 3.344 0 .334.033.701.1 1.037 2.02.199 6.36.434 10.802.434 6.7 0 9.359-2.843 9.359-6.757h-.005zm54.986-5.887v-5.586h5.283c2.256 0 4.039.333 4.039 2.675 0 1.972-1.346 2.91-4.039 2.91h-5.286.003zm-.034 4.415h2.792l5.392 6.388c1.006 1.238 1.984 1.874 4.273 1.874 1.548 0 2.59-.2 3.429-.603l-7.004-8.06c3.939-.836 5.923-3.38 5.923-7.126 0-4.616-2.827-6.89-8.546-6.89l-8.177-.033c-2.658.1-3.535 1.002-3.535 3.411V28.27c.403.066.877.098 1.347.098 3.364 0 4.138-.968 4.138-2.708l-.026-5.286h-.006zM97.359 16.56v-6.155h5.485c2.727 0 4.074 1.003 4.074 2.978 0 2.108-1.347 3.177-4.074 3.177h-5.485zm-5.485 11.708a8.52 8.52 0 0 0 1.345.099c3.367 0 4.14-.968 4.14-2.708v-4.583h5.721c6.226 0 9.321-2.675 9.321-7.693 0-4.851-3.096-7.427-8.951-7.427h-8.043c-2.692 0-3.533 1.037-3.533 3.412v18.9zm38.735-11.44c0 2.577-.437 4.38-1.312 5.452-.841 1.104-2.222 1.606-4.106 1.606-1.919-.035-3.296-.569-4.173-1.606-.873-1.036-1.312-2.842-1.312-5.452 0-2.576.472-4.382 1.346-5.42.875-1.07 2.254-1.571 4.138-1.571 1.885 0 3.231.501 4.106 1.572.873 1.037 1.313 2.843 1.313 5.419zm-5.421 11.507c3.533 0 6.26-.836 8.179-2.542 1.915-1.673 2.894-4.684 2.894-8.965-.036-4.214-1.01-7.158-2.996-8.898-1.986-1.707-4.677-2.575-8.078-2.575-3.398 0-6.091.868-8.076 2.575-1.985 1.74-2.962 4.684-2.996 8.898 0 4.281.976 7.292 2.895 8.965 1.919 1.707 4.647 2.542 8.179 2.542h-.001zm48.496-17.795h4.409c1.447 0 2.926-.67 2.926-3.515a5.78 5.78 0 0 0-.1-1.069h-17.128c-1.447 0-2.929.67-2.929 3.512 0 .336.034.735.103 1.072h7.234v17.728c.405.066.875.098 1.347.098 3.362 0 4.138-.968 4.138-2.708V10.541zm28.837 11.305c0-3.646-2.392-5.42-6.192-6.256l-6.663-1.504c-1.212-.268-2.221-.636-2.221-1.84 0-1.305 1.042-1.806 3.835-1.806 3.299 0 4.074.167 7.067.167 1.381 0 2.794-.636 2.794-3.345 0-.336-.031-.704-.099-1.038-2.02-.167-5.621-.368-10.064-.368-6.695 0-9.254 2.878-9.254 6.557 0 3.445 2.187 5.354 6.058 6.256l6.663 1.538c1.549.366 2.39 1.037 2.39 2.007 0 1.305-1.179 1.807-3.97 1.807-3.299 0-4.812-.233-7.81-.233-1.38 0-2.793.634-2.793 3.344 0 .334.034.701.102 1.037 2.018.199 6.36.434 10.802.434 6.7 0 9.359-2.843 9.359-6.757h-.004z" fill="#fff"/></svg>