<svg width="149" height="49" fill="none" xmlns="http://www.w3.org/2000/svg"><path fill-rule="evenodd" clip-rule="evenodd" d="M58.603 30.328h5.395l2.097-8.954c.334-1.213.667-2.112 1.127-2.546 1.099-1.032 4.048-.87 4.048-.87l1.194-5.063c-1.873.01-4.771-.025-6.57.478-1.04.29-2.139 1.107-2.763 1.77-1.14 1.213-1.82 3.723-1.82 3.723l-2.708 11.462zM11.945 17.476h19.72c1.15.03 2.072.481 2.498 1.086.517.738 1.07 1.84.218 3.916-.91 2.217-2.534 2.88-4.229 2.932h-3.53l1.455-6.238h-5.43L17.79 40h5.401l2.264-9.677s1.57.007 3.603.008c1.571-.034 3.414-.223 5.153-1.149 1.88-1 3.164-2.67 3.968-4.166.742-1.38 1.22-3.64 1.332-4.883.098-1.088.234-2.916-1.07-4.697-.593-.81-1.893-1.804-3.21-2.121-1.439-.347-3.443-.365-3.443-.365H11.26c-3.16.03-4.84 1.146-5.78 2.129-1.015 1.062-1.534 2.523-1.529 3.796.005 1.206.319 2.487 1.004 3.26.624.703 1.668 1.482 3.742 1.623H12.3s.498.017.772.141a.773.773 0 0 1 .415.782c-.056.396-.183.898-1.499.953H1.739L0 30.353h12.295c1.638-.022 4.664-.333 6.05-2.77.515-.906.975-2.603.992-3.862a4.856 4.856 0 0 0-.665-2.568c-.332-.577-.963-1.243-2.227-1.675-.658-.225-2.096-.267-2.096-.267h-3.386c-.654 0-1.158-.202-1.091-.871.038-.38.332-.694.699-.804.27-.082 1.374-.06 1.374-.06zm39.003-.926c-1.34.014-2.503.534-3.635 1.65-1.076 1.06-1.652 2.71-1.765 4.167-.07.9.178 2.154.765 2.92.576.75 1.742 1.321 2.84 1.293 1.667-.042 2.82-.563 3.742-1.595 1.082-1.211 1.793-3.027 1.75-4.748-.023-.906-.212-1.828-1-2.634-.788-.806-1.863-1.062-2.697-1.053l.7-4.105c2.235-.03 4.695.596 6.267 2.145 1.573 1.55 1.899 3.6 1.871 5.283-.033 2.101-.747 4.99-3.267 7.77-2.222 2.448-6.087 3.4-8.765 3.276-2.679-.125-4.66-.99-6.115-2.525-1.274-1.344-1.732-2.913-1.732-4.895 0-1.751.547-4.023 2.19-6.259 1.93-2.623 5.62-4.743 9.551-4.794l-.7 4.104zM75.102 8h5.439l-1.18 4.98h4.127l-1.135 4.928h-4.127l-1.224 5.479c-.195 1.116-.006 1.684.613 2.061.254.156 1.114.223 1.114.223h11.748c1.31-.022 2.251-.143 2.293-1.034.044-.916-1.07-.893-1.07-.893h-3.342c-1.747-.09-3.21-.581-3.909-1.34-.603-.655-1.157-1.63-1.114-3.528.05-2.143 1.158-3.663 1.638-4.131.48-.47 2.257-1.81 4.834-1.765H102l-1.696 4.489H90.302c-.655.022-.954.122-1.136.357-.19.245-.28.631-.153.938.12.286.416.402 1.245.447h3.123c1.595.089 2.92.344 3.713 1.027.723.622 1.42 1.429 1.42 3.506 0 2.346-1.132 3.866-1.9 4.667-.95.993-2.271 1.72-6.224 1.92h-14.5c-1.573-.022-2.862.045-4.063-1.361-1.2-1.407-.793-3.165-.677-4.147L75.102 8z" fill="#000"/><path d="M109.76 35l3.996-22.608h-7.2l.576-3.168h17.712l-.576 3.168h-7.2L113.072 35h-3.312zm16.381-25.776h3.6l3.348 20.916h.144l11.052-20.916h3.744L134.097 35h-3.456l-4.5-25.776z" fill="#000"/></svg>