<svg width="35" height="33" fill="none" xmlns="http://www.w3.org/2000/svg"><path d="M2.216 28.75l2.234.933v-15.05L.4 24.4c-.684 1.7.133 3.65 1.816 4.35zm32.5-6.167L26.45 2.633c-.517-1.25-1.734-2.016-3.017-2.05-.433 0-.883.067-1.317.25L9.833 5.917a3.331 3.331 0 0 0-2.05 3c-.017.45.067.9.25 1.333L16.3 30.2c.516 1.267 1.75 2.033 3.05 2.05.433 0 .866-.083 1.283-.25L32.9 26.917c1.7-.7 2.516-2.65 1.816-4.334zm-23.583-12c-.917 0-1.667-.75-1.667-1.666 0-.917.75-1.667 1.667-1.667S12.8 8 12.8 8.917c0 .916-.75 1.666-1.667 1.666zM7.8 28.917c0 1.833 1.5 3.333 3.333 3.333h2.417L7.8 18.35v10.567z" fill="#fff"/></svg>