<svg width="25" height="25" fill="none" xmlns="http://www.w3.org/2000/svg"><path d="M12.5 0C19.404 0 25 5.597 25 12.5 25 19.404 19.404 25 12.5 25S0 19.404 0 12.5C0 5.597 5.596 0 12.5 0z" fill="#fff"/><path d="M20.314 8.421a6.224 6.224 0 0 1-1.75.467 2.98 2.98 0 0 0 1.34-1.637c-.589.34-1.24.586-1.935.718a3.086 3.086 0 0 0-2.223-.933c-1.681 0-3.046 1.323-3.046 2.955 0 .232.027.458.08.675a8.738 8.738 0 0 1-6.28-3.09 2.872 2.872 0 0 0-.412 1.487c0 1.024.537 1.93 1.354 2.46a3.097 3.097 0 0 1-1.38-.37v.037c0 1.433 1.05 2.627 2.444 2.9a3.15 3.15 0 0 1-1.375.05c.387 1.175 1.512 2.03 2.846 2.053a6.228 6.228 0 0 1-3.784 1.266c-.246 0-.488-.014-.727-.042a8.816 8.816 0 0 0 4.67 1.33c5.603 0 8.667-4.507 8.667-8.413l-.008-.383a6.077 6.077 0 0 0 1.518-1.53z" fill="#00ADEE"/></svg>